STARTFONT 2.1
COMMENT
COMMENT Converted from OpenType font "Q:\font stuff\winfont\ZapfinoExtraLT-Four.otf" by "otf2bdf 3.0".
COMMENT
FONT -FreeType-Zapfino Extra LT Four-Medium-R-Normal--84-840-72-72-P-424-ISO10646-1
SIZE 84 72 72
FONTBOUNDINGBOX 179 115 -55 -44
STARTPROPERTIES 19
FOUNDRY "FreeType"
FAMILY_NAME "Zapfino Extra LT Four"
WEIGHT_NAME "Medium"
SLANT "R"
SETWIDTH_NAME "Normal"
ADD_STYLE_NAME ""
PIXEL_SIZE 84
POINT_SIZE 840
RESOLUTION_X 72
RESOLUTION_Y 72
SPACING "P"
AVERAGE_WIDTH 424
CHARSET_REGISTRY "ISO10646"
CHARSET_ENCODING "1"
FONT_ASCENT 56
FONT_DESCENT 41
COPYRIGHT "Copyright (c) 2003 Linotype Library GmbH, www.linotype.com. All rights reserved. This software may not be reproduced, used, displayed, modified, disclosed or transferred without the express written approval of Linotype Library GmbH. Zapfino is a trademark of Heidelberger Druckmaschinen AG, exclusively licensed through Linotype Library GmbH, and may be registered in certain jurisdictions. The typeface is original artwork of Hermann Zapf. The design may be protected in certain jurisdictions."
_OTF_FONTFILE "Q:\font stuff\winfont\ZapfinoExtraLT-Four.otf"
_OTF_PSNAME "ZapfinoExtraLT-Four"
ENDPROPERTIES
CHARS 371
STARTCHAR 000D
ENCODING 13
SWIDTH 0 0
DWIDTH 0 0
BBX 0 0 0 0
BITMAP
ENDCHAR
STARTCHAR 0020
ENCODING 32
SWIDTH 202 0
DWIDTH 17 0
BBX 0 0 0 0
BITMAP
ENDCHAR
STARTCHAR 0021
ENCODING 33
SWIDTH 214 0
DWIDTH 18 0
BBX 20 34 8 -1
BITMAP
0001F0
0003E0
000780
000700
000F00
000E00
001C00
001800
003800
003000
007000
006000
004000
00C000
008000
018000
018000
010000
030000
020000
060000
040000
040000
080000
080000
000000
000000
000000
000000
000000
700000
F80000
F00000
F00000
ENDCHAR
STARTCHAR 0022
ENCODING 34
SWIDTH 321 0
DWIDTH 27 0
BBX 21 22 14 17
BITMAP
000600
000E38
001C38
001C70
0038E0
0070E0
0071C0
00E380
01C300
018700
030E00
030C00
061800
041800
083000
186000
104000
20C000
608000
410000
830000
020000
ENDCHAR
STARTCHAR 0023
ENCODING 35
SWIDTH 333 0
DWIDTH 28 0
BBX 28 35 6 0
BITMAP
00000010
00000010
00000820
00001840
00001040
00002080
00004100
00004100
00008200
00008400
001FFF80
001FFF00
003FFE00
00041000
00082000
00082000
00104000
00108000
00208000
00410000
00410000
00BFC000
07FFF000
0FFFE000
1FC84000
02080000
04100000
04100000
08200000
18400000
10400000
20800000
21800000
41000000
C1000000
ENDCHAR
STARTCHAR 0024
ENCODING 36
SWIDTH 369 0
DWIDTH 31 0
BBX 33 58 3 -16
BITMAP
0000000080
0000000100
0000000200
0000000200
0000000400
0000078C00
00001FE800
000063F000
000080F000
0001007800
0002007800
0002007800
0004009000
000C009000
0008010000
0018010000
001C020000
001C040000
003E040000
003F080000
001FE80000
000FFC0000
0001FF0000
00003FC000
00004FE000
000043E000
000081F000
000080F000
000100F000
000200F000
000200F000
000400E000
000400E000
000800C000
000801C000
0010018000
0010010000
8020020000
8040040000
C040080000
E080100000
F080600000
7F03800000
3FFC000000
07C0000000
0200000000
0400000000
0400000000
0800000000
0800000000
1800000000
1000000000
3000000000
2000000000
2000000000
6000000000
4000000000
4000000000
ENDCHAR
STARTCHAR 0025
ENCODING 37
SWIDTH 619 0
DWIDTH 52 0
BBX 44 44 7 -7
BITMAP
000021FF8000
00003FFFC000
00003F80E000
0000C0006000
000106004000
000606004000
000C06004000
000C06008000
00180E008000
00380C010000
00300C020000
003008020000
007018040000
007030080000
007020100000
007040100000
007180200000
003E00400000
000000800000
000001000000
000002001800
000004003FF0
000004011C00
000008060C00
0000101C0C00
000020280C00
000040D80C00
000081101C00
000106301800
000208701800
000430601000
000840603000
001180E02000
003200E04000
006C00E08000
00D000710000
01A0007E0000
03C000000000
070000000000
0E0000000000
3C0000000000
780000000000
E00000000000
400000000000
ENDCHAR
STARTCHAR 0026
ENCODING 38
SWIDTH 571 0
DWIDTH 48 0
BBX 40 38 5 -2
BITMAP
0000000E00
0000007F00
0000008700
0000010300
0000020300
0000040300
0000040600
0000080400
0000080800
0000181000
0000106006
000030800F
0000370003
0000380001
0001F00001
000E600002
0030600002
00C0600004
0380600078
0600601FF0
1E0060FFC0
1C0063C800
3800660400
7800640200
7000780200
7000700200
F000700200
F000700400
F000700400
F000700800
F000381000
7000382000
78003C4000
7C001C8000
3C001F0060
0F001F0080
07C1E78300
003E03FC00
ENDCHAR
STARTCHAR 0027
ENCODING 39
SWIDTH 214 0
DWIDTH 18 0
BBX 12 18 15 21
BITMAP
0070
0070
00E0
01C0
01C0
0380
0300
0600
0E00
0C00
1800
1800
3000
2000
6000
4000
8000
8000
ENDCHAR
STARTCHAR 0028
ENCODING 40
SWIDTH 369 0
DWIDTH 31 0
BBX 29 46 8 -4
BITMAP
00000018
00000020
000000C0
00000100
00000200
00000C00
00001800
00003000
00006000
0000C000
00018000
00030000
00070000
000E0000
001C0000
001C0000
00380000
00700000
00700000
00E00000
01C00000
01C00000
03800000
07800000
07000000
0F000000
0E000000
1E000000
1C000000
3C000000
38000000
38000000
70000000
70000000
70000000
60000000
E0000000
E0000000
E0000000
E0000000
60000000
60000000
60000000
20000000
10000000
08000000
ENDCHAR
STARTCHAR 0029
ENCODING 41
SWIDTH 404 0
DWIDTH 34 0
BBX 28 46 11 -4
BITMAP
00000080
00000040
00000020
00000020
00000030
00000030
00000030
00000030
00000030
00000070
00000070
00000070
00000070
000000E0
000000E0
000001E0
000001C0
000001C0
00000380
00000380
00000700
00000700
00000E00
00000E00
00001C00
00003C00
00003800
00007800
00007000
0000E000
0001E000
0001C000
00038000
00070000
00060000
000E0000
001C0000
00380000
00700000
00E00000
01C00000
03800000
06000000
0C000000
30000000
C0000000
ENDCHAR
STARTCHAR 002A
ENCODING 42
SWIDTH 250 0
DWIDTH 21 0
BBX 15 14 14 19
BITMAP
0030
0030
1860
0C40
0480
0280
033E
FFC4
C280
02C0
0460
0C60
1830
1800
ENDCHAR
STARTCHAR 002B
ENCODING 43
SWIDTH 404 0
DWIDTH 34 0
BBX 18 18 11 2
BITMAP
000E00
000C00
001800
003000
003000
006000
006000
FFFF00
FFFFC0
018040
018000
030000
060000
060000
0E0000
0C0000
1C0000
080000
ENDCHAR
STARTCHAR 002C
ENCODING 44
SWIDTH 214 0
DWIDTH 18 0
BBX 15 19 -1 -11
BITMAP
0006
0006
000E
001E
001C
0038
0070
00E0
01C0
0180
0300
0600
0C00
1800
1000
2000
6000
C000
8000
ENDCHAR
STARTCHAR 002D
ENCODING 45
SWIDTH 321 0
DWIDTH 27 0
BBX 14 1 12 10
BITMAP
FFFC
ENDCHAR
STARTCHAR 002E
ENCODING 46
SWIDTH 226 0
DWIDTH 19 0
BBX 5 5 8 0
BITMAP
38
78
F0
F0
E0
ENDCHAR
STARTCHAR 002F
ENCODING 47
SWIDTH 369 0
DWIDTH 31 0
BBX 28 60 8 -13
BITMAP
00000010
00000030
00000020
00000060
00000040
000000C0
00000080
00000180
00000180
00000300
00000300
00000200
00000600
00000400
00000C00
00000800
00001800
00001000
00003000
00003000
00006000
00006000
0000C000
0000C000
00008000
00018000
00010000
00030000
00020000
00060000
00060000
000C0000
000C0000
00180000
00180000
00300000
00300000
00200000
00600000
00400000
00C00000
00C00000
01800000
01800000
03000000
03000000
06000000
06000000
04000000
0C000000
08000000
18000000
18000000
30000000
30000000
60000000
60000000
40000000
C0000000
80000000
ENDCHAR
STARTCHAR 0030
ENCODING 48
SWIDTH 309 0
DWIDTH 26 0
BBX 19 21 5 -1
BITMAP
000300
001FC0
0063C0
0181E0
0200E0
0400E0
0C00E0
1800E0
1800E0
3000E0
7000C0
6000C0
600180
E00180
E00300
E00200
E00400
F00800
F83000
7FC000
3E0000
ENDCHAR
STARTCHAR 0031
ENCODING 49
SWIDTH 297 0
DWIDTH 25 0
BBX 20 18 3 1
BITMAP
07FFF0
0001E0
0001E0
0001C0
000380
000780
000700
000E00
000E00
001C00
001C00
003800
007800
007000
00E000
01E000
03E000
FFFF80
ENDCHAR
STARTCHAR 0032
ENCODING 50
SWIDTH 297 0
DWIDTH 25 0
BBX 23 19 3 0
BITMAP
001F80
00FFC0
0003E0
0001E0
0001E0
0001E0
0001C0
000380
000300
000400
000800
003000
004000
008000
030000
060000
1F8000
3FF000
FFFE02
ENDCHAR
STARTCHAR 0033
ENCODING 51
SWIDTH 250 0
DWIDTH 21 0
BBX 26 35 -10 -16
BITMAP
00003F80
000043C0
000001C0
000001C0
000001C0
00000180
00000380
00000700
00000C00
00001F00
00007F80
000007C0
000003C0
000001C0
000001C0
000001C0
000001C0
00000180
00000180
00000100
00000100
00000200
00000200
00000400
00000800
00001000
00002000
00004000
80008000
80030000
C0060000
60380000
7FF00000
7FC00000
1E000000
ENDCHAR
STARTCHAR 0034
ENCODING 52
SWIDTH 452 0
DWIDTH 38 0
BBX 40 35 -3 -14
BITMAP
0000001E00
0000003E00
0000003E00
0000003E03
0000001C04
0000003C18
0000003830
00000030E0
00000061C0
000000C380
0000030700
0000060600
00000C0C00
0000301C00
0000603800
0001803000
0003007000
000C00E000
001800C000
006001C000
0180038000
FE7FFE7FFF
80000E0003
00001C0002
00001C0000
0000380000
0000380000
0000700000
0000700000
0000F00000
0000E00000
0000E00000
0000C00000
0000C00000
0000400000
ENDCHAR
STARTCHAR 0035
ENCODING 53
SWIDTH 285 0
DWIDTH 24 0
BBX 34 35 -6 -15
BITMAP
00000701C0
00000FFF80
00001FFE00
0000380000
0000400000
0000800000
0000800000
0001000000
0001000000
0003000000
0007000000
0007800000
0007C00000
0003E00000
0001F00000
0000F80000
0000780000
0000380000
0000180000
0000180000
0000180000
0000100000
0000100000
0000100000
0000200000
0000200000
0000400000
0000800000
0001000000
0003000000
800E000000
C038000000
FFF0000000
7FE0000000
1F00000000
ENDCHAR
STARTCHAR 0036
ENCODING 54
SWIDTH 345 0
DWIDTH 29 0
BBX 37 40 7 0
BITMAP
00000003E0
0000001FF0
0000006018
0000018008
0000020008
00000C0000
0000100000
0000200000
0000400000
0001800000
0003000000
0006000000
000C000000
0008000000
0010000000
0020000000
0060000000
00C0000000
0180000000
0380000000
0300000000
070FC00000
0E7FE00000
0E00F00000
1C00F00000
1C00700000
3C00700000
3800700000
7800700000
7800600000
7000600000
F000C00000
F000C00000
F001800000
F001000000
F002000000
F004000000
F808000000
7C30000000
1FC0000000
ENDCHAR
STARTCHAR 0037
ENCODING 55
SWIDTH 321 0
DWIDTH 27 0
BBX 26 37 6 -15
BITMAP
00000040
010000C0
02000180
03000300
07F80400
07FFF800
0FFFF000
10002000
20004000
20008000
40010000
80020000
00020000
00040000
00080000
00100000
00200000
00400000
00400000
00800000
01000000
02000000
02000000
04000000
0C000000
18000000
10000000
30000000
30000000
60000000
60000000
E0000000
E0000000
E0000000
F0000000
F8000000
7C000000
ENDCHAR
STARTCHAR 0038
ENCODING 56
SWIDTH 333 0
DWIDTH 28 0
BBX 33 42 5 1
BITMAP
0000000200
0000000300
0000000380
0000000380
0000000380
0000000380
000003C300
00000C0700
0000100600
0000600C00
0000400C00
0000C01800
0001803000
0001802000
000380C000
0003810000
0003C20000
0003C40000
0003F80000
0003F00000
0004F00000
0018F80000
00207C0000
00403C0000
00803E0000
03001E0000
06000E0000
0C000E0000
18000E0000
10000C0000
30000C0000
6000080000
6000180000
6000100000
E000200000
E000400000
F000800000
F001000000
7806000000
7E1C000000
3FF0000000
0FC0000000
ENDCHAR
STARTCHAR 0039
ENCODING 57
SWIDTH 321 0
DWIDTH 27 0
BBX 35 34 -9 -15
BITMAP
0000003F00
000000C7C0
00000103C0
00000601E0
00000C01E0
00001801E0
00003001E0
00003001E0
00006001E0
0000E001C0
0000E003C0
0000C003C0
0001C00380
0001C00380
0001C00780
0001C00700
0001C00E00
0000E00E00
0000301C00
00000E3800
0000003800
0000007000
000000E000
000001C000
0000038000
0000070000
00000E0000
00001C0000
0000380000
0000E00000
8003C00000
800F000000
6078000000
1FC0000000
ENDCHAR
STARTCHAR 003A
ENCODING 58
SWIDTH 238 0
DWIDTH 20 0
BBX 13 19 7 -1
BITMAP
0030
0078
00F0
00F0
01E0
0080
0000
0000
0000
0000
0000
0000
0000
0000
3800
7800
7800
F000
F000
ENDCHAR
STARTCHAR 003B
ENCODING 59
SWIDTH 226 0
DWIDTH 19 0
BBX 22 30 -2 -12
BITMAP
000018
00007C
000078
0000F8
0000F0
000000
000000
000000
000000
000000
000000
000300
000700
000F00
000E00
001C00
003800
007000
006000
00C000
018000
030000
030000
060000
0C0000
180000
300000
600000
400000
800000
ENDCHAR
STARTCHAR 003C
ENCODING 60
SWIDTH 404 0
DWIDTH 34 0
BBX 23 17 10 4
BITMAP
000002
00000E
00007E
0003F0
001F80
00FC00
07C000
3E0000
F00000
7C0000
0F0000
03E000
00F800
003E00
000F80
000380
000080
ENDCHAR
STARTCHAR 003D
ENCODING 61
SWIDTH 404 0
DWIDTH 34 0
BBX 20 7 11 8
BITMAP
1FFFF0
1FFFF0
000000
000000
000000
7FFFC0
FFFFC0
ENDCHAR
STARTCHAR 003E
ENCODING 62
SWIDTH 404 0
DWIDTH 34 0
BBX 24 15 9 5
BITMAP
018000
03E000
007C00
000F80
0001F0
00003E
00000F
00007C
0007E0
003F00
01F800
1FC000
FE0000
F00000
800000
ENDCHAR
STARTCHAR 003F
ENCODING 63
SWIDTH 273 0
DWIDTH 23 0
BBX 25 40 9 1
BITMAP
00010000
00030000
0007C000
0007F800
0000FE00
00003F00
00000F80
00000780
00000380
00000380
00000380
00000380
00000300
00000300
00000600
00000C00
00000800
00001000
00002000
0000C000
00010000
00060000
00080000
00300000
00400000
00800000
01000000
03000000
07000000
03000000
03000000
03800000
00000000
00000000
00000000
60000000
F0000000
F0000000
F0000000
E0000000
ENDCHAR
STARTCHAR 0040
ENCODING 64
SWIDTH 583 0
DWIDTH 49 0
BBX 47 43 7 -4
BITMAP
0000001FFF00
000000E001C0
000003000070
00000C000038
00003000001C
0000C000000C
00010000000E
00020000000E
00040000000E
001800000006
0030003FC006
006000C38006
00C001830006
00800307000E
0100060E000C
03000C0E000C
06001C1C000C
0600383C0018
0C0070580018
1C0060780030
1800E0B80020
3801C1300060
3001C2700040
700384700080
700388600100
700390600200
7003A0700C00
F003C0703000
E003003FC000
E00000000000
F00000001000
F00000002000
F00000002000
700000004000
780000008000
780000010000
3C0000020000
1E00000C0000
0F0000300000
078000C00000
03E003000000
00FFF8000000
000F00000000
ENDCHAR
STARTCHAR 0041
ENCODING 65
SWIDTH 726 0
DWIDTH 61 0
BBX 62 54 5 -4
BITMAP
0000000000000004
0000000000000004
0000000000000004
0000000000007F04
000000000007FFE4
00000000003FFFFC
0000000001FFFFFC
0000000007FC00FC
000000001FC0001C
000000007E00003C
00000001F000003C
00000007C0000070
0000000F000000F0
0000003C000001E0
00000078000001C0
000001E000000380
0000038000000780
0000070000000F00
00001E0000001E00
0000380000001E00
0000700000003C00
0000E0000000F800
0003C00000017800
0007000000027000
000E00000004E000
001C00000009E000
003800000011C000
0078000000238000
00F0000000478000
01E0000000870000
01C00000010F0000
03800000021E0000
07800000041E0000
0F000000083C0000
0F000000103C0000
1E00000020780000
3E000000C0780000
3C00000100F00000
7C00000201F00000
7C00000C01E00000
7800001001E00000
F800006003C00000
F800008003C00000
F800030007C00000
F8000C0007800004
FC00700007800008
7E03C0000F800030
7FFE00000F800060
1FE000000F800080
000000000F800300
000000000FC00C00
0000000007F07000
0000000003FFC000
0000000000FC0000
ENDCHAR
STARTCHAR 0042
ENCODING 66
SWIDTH 738 0
DWIDTH 62 0
BBX 58 61 3 -2
BITMAP
0000000000000180
0000000000000200
0000000000000C00
0000000000001800
0000000000003000
0000000000006000
0000000000004000
000000000000C000
0000000000018000
0000000000030000
0000000000030000
0000000000060000
000000001FFFF800
00000007FFFFFF00
000000FFFFFFFF80
000007FF00103F80
00001FC0002007C0
00007C00002003C0
0001E000004001C0
0003800000800180
000E000000800180
000C000001000300
0018000001000600
0030000002000C00
0020000004001800
0060000004002000
0040000008004000
0040000008008000
0040000010010000
0000000010020000
0000000020060000
00000000200E0000
00000000400F0000
00000000800F8000
00000000800FC000
000000010007F000
000000010003F800
000000020000FE00
0000000600007F00
0000000400001F80
0000000800000F80
00000018000007C0
00000010000003C0
00000020000003C0
00000040000001C0
000000C000000180
0000008000000180
0000010000000100
0000020000000100
0000040000000200
0000180000000400
0000200000000800
0000C00000001000
0003000000002000
003C00000000C000
0FC00000000F0000
3FFFFFFFFFFC0000
7FFFFFFFFFF00000
7FFFFFFFFF000000
FFFFFFFFE0000000
FFFFFF8000000000
ENDCHAR
STARTCHAR 0043
ENCODING 67
SWIDTH 607 0
DWIDTH 51 0
BBX 53 52 5 0
BITMAP
00000000000018
00000000000070
00000000000070
000000000000E0
000000000000C0
000000001FE1C0
00000001E03980
0000000F000F00
0000003C000700
000000F0000600
000001C0000600
00000780000C00
00001E00000C00
00003C00001C00
00007800001800
0000F000003800
0003E000003800
0007C000007000
000F8000007000
001F000000E000
003E000001E000
007C000001C000
00780000000000
00F80000000000
01F00000000000
03E00000000000
07E00000000000
07C00000000000
0FC00000000000
0F800000000000
1F000000000000
3F000000000000
3E000000000000
3E000000000000
7E000000000000
7C000000000000
7C000000000000
FC000000000000
F8000000000000
F8000000000000
F8000000000000
F8000000000000
F8000000000000
F8000000007C00
F800000003FE00
780000000F8600
7C000000780200
3C000001C00200
1E00000E000200
0F000070000200
03C00780000400
007FF800000000
ENDCHAR
STARTCHAR 0044
ENCODING 68
SWIDTH 892 0
DWIDTH 75 0
BBX 74 59 4 1
BITMAP
00000000000000C00000
00000000000001000000
00000000000006000000
0000000000000C000000
0000000000001C000000
00000000000038000000
00000000000070000000
000000000000F0000000
000000000000E0000000
000000000001E0000000
000000000001C0000000
000000000003C0000000
00000000000380000000
0000000007FFFF000000
00000001F80701F80000
0000000F000F001E0000
00000078000E00078000
000001C0001E0001E000
00000780001C0000F000
00000E00003C00007800
00003C00003800003C00
00007000007800003E00
0000E000007000001F00
0001E00000F000000F00
0001C00000E000000F80
0003800001E000000F80
0007800001C000000780
0007000003C0000007C0
000700000380000007C0
000300000780000007C0
000100000700000007C0
000000000F00000007C0
000000000E00000007C0
000000001E00000007C0
000000001C00000007C0
000000003800000007C0
000000003800000007C0
00000000700000000F80
00000000F00000000F80
00000000E00000000F80
0C000001C00000000F00
1E000001C00000001F00
1F000003800000001E00
3F000007000000003E00
3F800006000000003C00
6FC0000E000000007C00
47E0001C000000007800
43F0003800000000F000
41F8003000000001E000
C0FC006000000003C000
C03E00C0000000078000
C01F81000000000F0000
C00FC2000000001E0000
E003FC00000000380000
E001FC00000000F00000
70007F80000003800000
78009FF000001E000000
3E0701FF8001F0000000
0FF80007FFFE00000000
ENDCHAR
STARTCHAR 0045
ENCODING 69
SWIDTH 785 0
DWIDTH 66 0
BBX 69 55 0 -1
BITMAP
000000000001800000
000000000002000000
00000000000C000000
000000000018000000
000000000030000000
000000000020000000
0000000007FFFFF800
00000000FFFFFFF000
00000007FFFFFFF000
0000003F8080000000
000000780180000000
000001C00100000000
000007000300000000
00000E000200000000
000018000600000000
000030000400000000
000060000800000000
0000C0001800000000
0000C0001000000000
000180003000000000
000180002000000000
000300004000000000
000300004000000000
000700008000000000
000700008000000000
000700010000000000
000700020000000000
000700020000000000
0003001FFFFFF80000
0003001FFFFF800000
0001001FFF80000000
000000100000000000
000000200000000008
000000400000000008
000000800000000008
000001000000000008
000002000000000008
000004000000000008
000008000000000010
000010000000000010
0FFFE0000000000010
300FF8000000000030
6000FE000000000020
60013F800000000060
E0020FE00000000040
E00403F80000000080
F00801FE0000000180
7830007F8000000700
1FC0001FF000000E00
00000007FE00003C00
00000001FFE003F800
000000007FFFFFE000
000000001FFFFF8000
0000000003FFFE0000
00000000003FF00000
ENDCHAR
STARTCHAR 0046
ENCODING 70
SWIDTH 452 0
DWIDTH 38 0
BBX 70 51 -2 -4
BITMAP
00001FF00000003FF8
0000FFFF800003C03C
0003FFFFFC000C003C
0007FFFFFFE01000F0
000FFFFFFFFFFFFF00
001F00000000800000
003800000001000000
006000000003000000
004000000006000000
00800000000C000000
010000000018000000
010000000038000000
020000000030000000
020000000070000000
0400000000E0000000
0400000000C0000000
0000000001C0000000
000000000380000000
000000000380000000
000000000700000000
000000000F00000000
000000000E00000000
000000001E00000000
000000001C00000000
000001FFFFFFFF0000
000003FFFFFFFF0000
000007C07800000000
000006007000000000
00000800F000000000
00001000E000000000
00001001E000000000
00000003C000000000
000000038000000000
000000078000000000
000000070000000000
0000000F0000000000
0000000E0000000000
0000001C0000000000
000000180000000000
000000380000000000
000000700000000000
000000600000000000
000000C00000000000
000001800000000000
800003000000000000
800006000000000000
800008000000000000
400010000000000000
200060000000000000
180380000000000000
07FC00000000000000
ENDCHAR
STARTCHAR 0047
ENCODING 71
SWIDTH 535 0
DWIDTH 45 0
BBX 74 71 -16 -23
BITMAP
000000000000001FE000
00000000000001FFFE00
0000000000001F003F00
000000000000E0000380
000000000003000000C0
00000000000C00000040
00000000001000000040
00000000004000000000
00000000018000000000
00000000030000000000
00000000040000000000
00000000180000000000
00000000300000000000
00000000600000000000
00000000E00000000000
00000001C00000000000
00000003800000000000
00000007000000007800
0000000700000000C800
0000000E000000038800
0000001E000000070800
0000001C0000000F1000
0000003C0000001E2000
0000003C0000001C2000
0000003C0000003C4000
00000078000000788000
00000078000000F10000
00000078000000F20000
00000078000001E40000
00000078000003C80000
00000078000003D00000
00000078000007E00000
0000003C000007800000
0000003C00000F000000
0000001E00000E000000
0000000F00003E000000
000000078000FC000000
00000001F00F38000000
000000003FF078000000
00000000000070000000
000000000000F0000000
000000000000E0000000
000000000001C0000000
000000000003C0000000
00000000000380000000
00000000000700000000
00000000000700000000
00000000000E00000000
00000000000C00000000
00000000001800000000
00000000003800000000
00000000003000000000
00000000006000000000
2000000000C000000000
40000000008000000000
40000000018000000000
40000000030000000000
40000000060000000000
C0000000040000000000
C0000000080000000000
C0000000100000000000
E0000000200000000000
E0000000400000000000
F0000001800000000000
78000002000000000000
7C00000C000000000000
3E000010000000000000
1F800060000000000000
0FF00700000000000000
03FFFC00000000000000
007F8000000000000000
ENDCHAR
STARTCHAR 0048
ENCODING 72
SWIDTH 773 0
DWIDTH 65 0
BBX 74 51 2 -1
BITMAP
000000000000200003C0
000000000000400007C0
000000001FFFC0000CC0
00000007FFFF800018C0
0000001FFFFF800030C0
0000007C0003800070C0
000000C000030000E0C0
0000010000030000C080
00000200000200018080
00000400000600030180
00000800000400070100
00000800000C00060300
000010000008000C0200
00001000001800180400
00001000001000180800
00001000003000301000
00001000002000606000
00001000006000608000
00001800004000C30000
0000180000C0008C0000
00001800008001F00000
00000C00010003800000
0000000001000F000000
00000000020076000000
00000000020386000000
00000000043C0C000000
0000000007C00C000000
000000007C001C000000
0000001F980018000000
000003F0100038000000
00007E00200038000000
0007E000600030000000
003E0000400070000000
00F00000800070000000
01C00001000070000000
020000030000E0000000
040000060000E0000000
0800000C0000E0000000
100000180001E0000000
200000300001E0000000
200000600001E0000000
200000C00001E0000000
600001800001E0000000
600007000001E0000000
F0001E000001F0000000
F8007C000001F0000000
FFCFF0000001F0000000
FFFFE0000000F8004000
7FFF80000000FC038000
7FFE000000007FFC0000
1FE0000000001FE00000
ENDCHAR
STARTCHAR 0049
ENCODING 73
SWIDTH 369 0
DWIDTH 31 0
BBX 54 51 -1 0
BITMAP
0000000000003C
0000000000007C
0000000000019C
0000000000021C
00000000000218
00000000000430
000000000008C0
00000000001F00
00000000007000
0000000003B000
000000001C6000
00000000E06000
0000000300C000
0000000C01C000
00000038018000
000000E0038000
000001C0070000
00000380070000
000007000E0000
00000F001E0000
00000E001C0000
00000E003C0000
00000E00380000
00000E00780000
00000600700000
00000200F00000
00000000E00000
00000001E00000
00000003C00000
00000003C00000
00000007800000
00000007800000
0000000F000000
0000000E000000
0000001E000000
0000003C000000
00000038000000
00000078000000
00000070000000
000000E0000000
000001C0000000
00000380000000
00000300000000
00000600000000
00000C00000000
00001800000000
40002000000000
F0008000000000
FF070000000000
FFF80000000000
3FE00000000000
ENDCHAR
STARTCHAR 004A
ENCODING 74
SWIDTH 285 0
DWIDTH 24 0
BBX 55 66 -13 -13
BITMAP
00000000000006
00000000000018
00000000000070
000000000000E0
000000000000E0
000000040001C0
000000040003C0
000000040007C0
0000000E001F80
0000000F806780
0000000FFF8700
00000007FE0F00
00000003E00E00
00000000001E00
00000000001C00
00000000003C00
00000000003800
00000000007800
00000000007000
00000000007000
0000000000E000
0000000000E000
0000000001C000
00000000018000
00000000038000
00000000030000
00000000070000
00000000060000
000000000E0000
000000000C0000
000000001C0000
00000000180000
00000000380000
00000000300000
00000000700000
00000000600000
00000000C000C0
00000000C00F00
00000001807000
00000001878000
00000003780000
00000007C00000
0000000E000000
0000000C000000
0000000C000000
00000008000000
00000018000000
00000010000000
00000020000000
00000020000000
00000040000000
00000080000000
00000080000000
00000100000000
00000200000000
00000200000000
00000400000000
00000800000000
40001000000000
40002000000000
E000C000000000
F0018000000000
FC0F0000000000
7FFC0000000000
3FF80000000000
0FC00000000000
ENDCHAR
STARTCHAR 004B
ENCODING 75
SWIDTH 619 0
DWIDTH 52 0
BBX 90 55 -13 -7
BITMAP
00000000000008000000FE00
00000000004008000007FF80
0000000000401000003E07C0
0000000000C0100000C000C0
0000000000E0300003000040
0000000001F860000C000040
0000000000FFE00030000040
00000000007C4000C0000000
000000000000400100000000
000000000000800600000000
000000000000800800000000
000000000001003000000000
000000000001004000000000
000000000002018000000000
000000000002020000000000
000000000004040000000000
000000000004080000000000
000000000008300000000000
000000000008400000000000
000000000010800000000000
000000000013000000000000
000000000024000000000000
000000000028000000000000
000000000050000000000000
000000000060000000000000
0000000000C0000000000000
0000000000C0000000000000
000000000160000000000000
000000000360000000000000
000000000260000000000000
000000000460000000000000
000000000470000000000000
000000000830000000000000
000000001030000000000000
000000001030000000000000
000000002038000000000000
000000004018000000000000
000000004018000000000000
00000000801C000000000000
00000001000C000000000000
00000002000C000000000000
00000006000E000000000000
000000040006000000000000
000000080007000000000000
800000100003000000000000
800000200003800000000000
C00000400001C00000000000
C00001800000E00000000000
E00003000000700000000000
70000E000000380002000000
7C00380000001C001C000000
3F00F00000000780E0000000
1FFFC000000000FF00000000
0FFF00000000000000000000
03F800000000000000000000
ENDCHAR
STARTCHAR 004C
ENCODING 76
SWIDTH 952 0
DWIDTH 80 0
BBX 79 54 4 -7
BITMAP
00000000000001FF0000
000000000000060FC000
0000000000001807E000
0000000000006003E000
0000000000008001F000
0000000000030001F000
0000000000060000F000
00000000000C0000F000
0000000000180000F000
0000000000300000F000
0000000000600000F000
0000000000400000E000
0000000000C00000E000
0000000001800000C000
0000000003000001C000
00000000020000018000
00000000060000018000
000000000C0000030000
00000000080000020000
00000000100000040000
00000000300000080000
00000000200000100000
00000000400000200000
00000000400000400000
00000000800000800000
00000001000003000000
00000001000004000000
00000002000018000000
00FF9FF40000E0000000
0307E03E000100000000
0C018017000000000000
10010013C00000000000
20000020E00000000000
40000020780000000000
400000403C0000000000
400000801E0000000000
C00000800F8000000000
C000010007C000000000
C000020003E000000000
E000040000F800000000
F0000800007C00000000
78001000003F00000000
7C006000001F80000000
3FC3C000000FE0000000
0FFF00000007F0000002
03F800000001FC000004
000000000000FF000008
0000000000007FC00010
0000000000003FF00020
0000000000000FFE01C0
00000000000003FFFF80
00000000000001FFFE00
000000000000007FFC00
000000000000000FE000
ENDCHAR
STARTCHAR 004D
ENCODING 77
SWIDTH 1119 0
DWIDTH 94 0
BBX 96 59 9 -9
BITMAP
0000000000000000000001F0
000000000000000000000FFC
000000000000000000003FFE
00000000000000000000F07F
00000000000000000003801F
0000000000000000000E001F
00000001FE0000000018000F
0000003FFF8000000030000F
000001C01F80000000C0000F
00000E000F8000000180000F
00003000078000000300000E
0001C000078000000C00000E
00060000078000001800001C
0018000007000C003000001C
0020000007003E0060000018
00C000000600FE00C0000030
010000000E01FE0180000030
020000000E030E0200000060
0C0000000C0C0E04000000C0
180000001C180C0800000080
3000000018200C1000000180
3000000018400C3000000300
600000003080086000000600
60000000310008C000000C00
E00000006200198000000800
E00000004400130000001000
E0000000C800160000002000
E000000090002C0000004000
E0000001A000380000018000
000000034000700000038000
000000038000600000070000
000000070000E000000E0000
000000060000C000001C0000
0000000C0001800000380000
000000180001800000700000
000000300003000000E00000
000000700006000001C00000
000000E0000E000003800000
000001E0001C000007000000
000003C0001C00000F000000
00000780003800001E000000
00000F00007000001C000000
00001F0000F0000038000000
00003E0000E0000078000000
00007C0001E00000F0000000
00007C0003C00000F0000000
0000F80007800001E0000000
0001F00007800001E0000000
0001E00007000003C0000000
0000C00002000003C0000000
0000000000000007C0000000
0000000000000007C0000000
0000000000000007C0000000
0000000000000007C0000200
0000000000000007E0001C00
0000000000000003E0006000
0000000000000003F8078000
0000000000000001FFFC0000
00000000000000003FC00000
ENDCHAR
STARTCHAR 004E
ENCODING 78
SWIDTH 797 0
DWIDTH 67 0
BBX 76 56 3 -9
BITMAP
00000000000000001F80
0000000000000000FFC0
0000000000000003FFE0
000000000000000E07F0
000000000000003001F0
00000000000000C001F0
000000000000010000F0
000000000000060000F0
000000000F00080000F0
000000007F00300000E0
00000003FF00400000E0
0000000E1F00800001C0
000000381E03000001C0
000000E01E0400000380
000001801C0800000300
000006001C1000000600
00001800382000000C00
00003000304000000C00
00004000708000001800
00018000610000003000
00030000620000006000
00060000C4000000C000
000C0000880000018000
00380001900000030000
00700003200000060000
00E000034000000C0000
01C00006800000180000
01800005000000300000
0300000E000000600000
0700001C000000C00000
0E000018000001800000
0C000038000003000000
1C000070000007000000
3800006000000E000000
380000C000001C000000
380001C0000038000000
70000180000070000000
700003000000E0000000
700007000001C0000000
E0000E000003C0000000
E0000E00000780000000
E0001C00000700000000
E0003C00000F00000000
E0003800001E00000000
E0007800001E00000000
60007000003C00000000
60002000003C00000000
60000000007C00000000
30000000007C00000000
30000000007C00000000
18000000007C00006000
08000000007E00018000
04000000003E000E0000
02000000003F80700000
01800000001FFF800000
007000000007FC000000
ENDCHAR
STARTCHAR 004F
ENCODING 79
SWIDTH 595 0
DWIDTH 50 0
BBX 53 47 5 0
BITMAP
0000000001FE00
000000000E0780
000000007001E0
0000000FC000E0
00000073800070
00000187000070
0000060E000038
0000180E000038
0000301C000038
0000C01C000038
00018038000038
00030038000038
00060038000038
000C0038000030
00180018000030
00380000000070
00700000000060
00E00000000060
01E000000000C0
03C000000000C0
03800000000080
07800000000180
0F000000000100
0F000000000300
1E000000000200
1E000000000400
3E000000000C00
3C000000000800
7C000000001000
7C000000002000
78000000004000
78000000004000
F8000000008000
F8000000010000
F8000000020000
F8000000040000
F8000000080000
F8000000300000
FC000000400000
FC000000800000
7C000003000000
7E000004000000
3F000018000000
1F800060000000
0FE00380000000
07FFFC00000000
00FF8000000000
ENDCHAR
STARTCHAR 0050
ENCODING 80
SWIDTH 583 0
DWIDTH 49 0
BBX 64 66 -5 -20
BITMAP
0000000000003FE0
000000000001FFF8
00000000000703FC
00000000001800FE
000000000020007E
0000000000C0003E
000000000100003F
00000FC00200001F
00007FE00400001F
0000C3F00800001F
000301F01000001F
000400F02000001F
000800F04000001F
001000F08000001E
000000F10000001E
000000E20000003E
000000E40000003C
000000E40000003C
000000E80000003C
000000D000000078
000001E000000078
000001A0000000F0
000001C0000000F0
00000180000001E0
00000300000001C0
00000300000003C0
0000020000000380
0000020000000700
0000060000000600
00000C0000000E00
0000140000001C00
0000180000003800
0000280000003000
0000500000006000
000050000000C000
0000A00000018000
0001200000030000
0001200000040000
0002400000180000
0002400000300000
0004800000C00000
0008800003800000
000900003E000000
001107FFF0000000
00121FFF80000000
00221FE000000000
0044000000000000
0044000000000000
0088000000000000
0088000000000000
0110000000000000
0310000000000000
0220000000000000
0420000000000000
0440000000000000
0880000000000000
1880000000000000
1100000000000000
3100000000000000
3200000000000000
6400000000000000
6C00000000000000
F800000000000000
F000000000000000
F000000000000000
6000000000000000
ENDCHAR
STARTCHAR 0051
ENCODING 81
SWIDTH 702 0
DWIDTH 59 0
BBX 57 56 5 -9
BITMAP
000000001FF00000
00000001FFFE0000
0000000F00FF8000
00000030001FC000
00000080000FE000
000003000003E000
00000C000003F000
000010000001F000
000020000000F800
0000C0000000F800
000100000000F800
0002000000007800
0004000000007800
0008000000007800
0010000000007800
0020000000007800
0020000000007000
0040000000007000
0080000000007000
0180000000007000
0100000000006000
030000000000E000
020000000000C000
020000000000C000
0200000000018000
0000000000018000
00C0000000010000
03C0000000030000
0FE0000000020000
11E0000000040000
21E00000000C0000
20F0000000080000
40F0000000100000
4078000000200000
C078000000400000
C03C000000800000
C03C000001000000
C01E000002000000
E01E000004000000
600F000018000000
700F000020000000
30078000C0000000
3807C00100000000
0C03C00600000080
0701E03800000080
01C0F1C000000080
003FFE0000000100
00007C0000000300
00003E0000000200
00001F0000000C00
00000F8000001000
000003C000002000
000001F00000C000
0000007C00030000
0000001FC01C0000
00000001FFE00000
ENDCHAR
STARTCHAR 0052
ENCODING 82
SWIDTH 714 0
DWIDTH 60 0
BBX 94 66 -2 -13
BITMAP
000000000000800000000000
000000000001000000000000
000000000003000000000000
000000000002000000000000
000000000006000000000000
0000000001FFFE0000000000
000000001E0C1FE000000000
00000000E00803F800000000
00000003801800FC00000000
000000060010007E00000000
000000180030003E00000000
000000300020003F00000000
000000600060001F00000000
000000C00040001F00000000
0000018000C0001F00000000
000001000080001F00000000
000002000180001F00000000
000004000100001F00000000
000004000100001E00000000
000008000300003E00000000
000008000200003C00000000
000018000600007C00000000
000010000400007800000000
000010000C0000F000000000
00001000080001E000000000
000030001800078000000000
0000300010000E0000000000
000030003000780000000000
0000300061FFC00000000000
0000380040F0000000000000
00003800C0F0000000000000
00001C0080F8000000000000
00001C018078000000000000
00000E010078000000000000
00000F03003C000000000000
00000782003C000000000000
000003C4003E000000000000
000001CC001E000000000000
000001E8001F000000000000
000000F0000F000000000000
00000070000F800000000000
00000070000F800000000000
000000B00007C00000000000
000001100007C00000000000
000002100003E00000000000
00000C100003F00000000000
000010100001F00000000000
000060200000F80000000000
000380200000FC0000000000
003C004000007C0000000000
7FFFFF8000007E0000000000
FFFFFE0000003F0000000000
0000000000001F8000000000
0000000000000F8000000000
0000000000000FC000000000
00000000000007E000000000
00000000000003F000000000
00000000000001F800000000
00000000000000FC00000000
000000000000003F00000004
000000000000001F80000008
000000000000000FE0000010
0000000000000003F8000040
0000000000000000FE000380
00000000000000001FC01C00
000000000000000001FFE000
ENDCHAR
STARTCHAR 0053
ENCODING 83
SWIDTH 583 0
DWIDTH 49 0
BBX 51 54 1 -7
BITMAP
00000000006000
000000000FFF00
00000000703FC0
000000018007E0
000000020001E0
000000040000E0
000000080000E0
00000010000060
00000010000040
00000020000040
00000060000040
00000060000040
00000060000000
00000060000000
000000E0000000
000000E0000000
000000F0000000
00000070000000
00000078000000
0000007C000000
0000003E000000
0000003F800000
0000001FC00000
0000000FF00000
00000007FC0000
00000003FE0000
00000000FF0000
000000003F8000
000000000FC000
0018000007C000
0010000003E000
0020000001E000
0040000000E000
00400000007000
00800000007000
00800000007000
01000000006000
03000000006000
02000000006000
06000000006000
06000000004000
0A000000004000
0A000000008000
12000000008000
33000000010000
23000000020000
63800000040000
63800000080000
C3C00000300000
01F00000E00000
00FE0007800000
007FFFFE000000
001FFFF0000000
0003FF00000000
ENDCHAR
STARTCHAR 0054
ENCODING 84
SWIDTH 511 0
DWIDTH 43 0
BBX 83 58 2 -4
BITMAP
0000000000000010000000
00000000000000200000C0
00000000000000200000E0
00000000000000400000E0
00000000000000400000C0
0000000000000080000080
00000001FFE00080000100
0000000FFFFF8080000600
0000007FFFFFFD00001800
000000FFFFFFFFFFFFE000
000003FFFFFFFFFFFE0000
000007FF80000400000000
00000FF000000400000000
00001F8000000800000000
00003E0000000800000000
00007C0000001000000000
0000700000003000000000
0000E00000002000000000
0000C00000006000000000
0001800000004000000000
000180000000C000000000
0003000000008000000000
0003000000018000000000
0002000000010000000000
0002000000020000000000
0006000000020000000000
0004000000040000000000
0004000000040000000000
0004000000080000000000
0000000000080000000000
0000000000100000000000
0000000000300000000000
0000000000200000000000
0000000000400000000000
0000000000400000000000
0000000000800000000000
0000000000800000000000
1000000001000000000000
2000000002000000000000
2000000002000000000000
2000000004000000000000
4000000008000000000000
4000000008000000000000
4000000010000000000000
C000000020000000000000
C000000040000000000000
C0000000C0000000000000
E000000180000000000000
E000000300000000000000
F000000600000000000000
7800000C00000000000000
7C00003800000000000000
3F0000E000000000000000
3FF007C000000000000000
1FFFFF8000000000000000
0FFFFE0000000000000000
03FFF00000000000000000
00FF800000000000000000
ENDCHAR
STARTCHAR 0055
ENCODING 85
SWIDTH 857 0
DWIDTH 72 0
BBX 77 53 4 -6
BITMAP
000000007F0000000038
00000003FFC000000070
0000001C0FE000000070
0000006003E0000000E0
0000008003E0000001C0
0000030001E000000180
00000C0001E000000300
0000100001E000000600
0000200001C000000C00
0000C00001C000000800
00010000018000001000
00020000038000003000
00040000030000002000
00080000070000004000
00100000060000008000
002000000C0000008000
002000001C0000030000
00400000180000030000
00800000300000060000
008000003000001E0000
010000006000002C0000
02000000C00000480000
02000000C00000980000
04000001800001180000
0C000003000002300000
08000003000004300000
18000006000008600000
1800000C000010600000
3000001C000020C00000
30000018000040C00000
30000030000081C00000
70000070000101800000
60000060000203800000
600000E0000403800000
600001C0001803800000
E0000180002007000000
E0000380004007000080
E0000780008007000080
E0000700030007000100
E00007000C000F000100
E0000F0010000F000100
E0000F0060000F000200
E0000F8180000F000200
70000FFE00000F000400
70000FF800000F800400
300003C000000F800800
38000000000007C01000
18000000000007E02000
0C000000000007F0C000
06000000000003FF0000
03000000000000FC0000
00C00000000000000000
003C0000000000000000
ENDCHAR
STARTCHAR 0056
ENCODING 86
SWIDTH 666 0
DWIDTH 56 0
BBX 79 68 7 -9
BITMAP
0000000000000003FF00
000000000000000007C0
000000000000000000F0
00000000000000000078
0000000000000000003C
0000000000000000003C
0000000000000000001E
0000000000000000001E
0000000000000000001E
0000000000000000001E
0000000000000000001E
0000000000000000001E
00000000000FF000001E
0000000007FFF000001E
000000007FFFE000003C
00000003FFFFE000003C
0000001FFFFFC0000038
000000FFFFFF80000078
000003FE000200000070
00000F800004000000F0
000038000008000000E0
0000E0000018000001C0
00018000001000000380
00060000003000000780
00080000006000000F00
00100000006000001C00
0060000000C000003800
00C0000000C000007000
0180000001800000E000
0300000001800001C000
02000000030000030000
04000000030000060000
0C000000020000180000
18000000060000300000
18000000040000600000
380000000C0001800000
30000000080002000000
7000000018000C000000
70000000100010000000
60000000300060000000
E0000000200180000000
E0000000200200000000
E0000000400C00000000
E0000000403000000000
E0000000804000000000
60000000818000000000
00000001020000000000
000000010C0000000000
00000002100000000000
00000002600000000000
00000004800000000000
00000005000000000000
00000006000000000000
00000008000000000000
00000018000000000000
00000070000000000000
00000090000000000000
00000120000000000000
00000220000000000000
00000440000000000000
00000880000000000000
00001080000000000000
00003100000000000000
00006100000000000000
0000C200000000000000
0000C400000000000000
0000C800000000000000
00007000000000000000
ENDCHAR
STARTCHAR 0057
ENCODING 87
SWIDTH 809 0
DWIDTH 68 0
BBX 122 64 2 -9
BITMAP
000000000000000000000000001FF000
00000000000000000000000000FFFC00
00000000000000000000000003FFFE00
0000000000000000000000001FFFFF00
0000000000000000004000003F803F80
000000000000000001800000F8000780
000000000000000003000003C00003C0
000000000000000007000007000001C0
00000000000004000F00000C000000C0
00000000000038000E000038000000C0
000000000000E0001E000060000000C0
00000000000700003E000080000000C0
000000000038C0007E000300000000C0
0000000000C0C000DC00060000000080
000000000701E0011C00080000000080
000000001801C0023C00100000000100
00000000E003C0043C00200000000200
000000030003C0083800400000000200
0000000C000780103800800000000000
00000030000780207801000000000000
000000C0000700407002000000000000
00000300000F0080700C000000000000
00000600000E0100F010000000000000
00001800001E0200E020000000000000
00007000001C0400E020000000000000
0000C000003C0801C040000000000000
0003800000381001C080000000000000
0007000000782001C100000000000000
000E0000007040018200000000000000
001C000000E080038400000000000000
0078000000E100030800000000000000
00F0000001C200031000000000000000
01E0000001C400061000000000000000
01C00000038800062000000000000000
03800000031000064000000000000000
070000000720000C8000000000000000
0F0000000640000C8000000000000000
1E000000064000090000000000000000
1E0000000C80001A0000000000000000
3C000000090000140000000000000000
380000001A0000140000000000000000
78000000140000380000000000000000
78000000280000300000000000000000
70000000300000300000000000000000
70000000500000600000000000000000
F0000000600000C00000000000000000
E0000000C00000C00000000000000000
E0000001800001800000000000000000
E0000003800003800000000000000000
E0000007000003000000000000000000
E000000E000006000000000000000000
E000001E00000E000000000000000000
6000003C00001C000000000000000000
6000003800001C000000000000000000
60000010000008000000000000000000
30000000000000000000000000000000
30000000000000000000000000000000
18000000000000000000000000000000
0C000000000000000000000000000000
06000000000000000000000000000000
03000000000000000000000000000000
00800000000000000000000000000000
00700000000000000000000000000000
000E0000000000000000000000000000
ENDCHAR
STARTCHAR 0058
ENCODING 88
SWIDTH 642 0
DWIDTH 54 0
BBX 65 69 4 -22
BITMAP
00000001C000000380
0000000FF000000780
0000003FF800001F80
00000060F800003F80
000000807C0000F880
000001003C0001E000
000002003C00038000
000004001C000E0000
000008001C00180000
000010001C00300000
000020001C00C00000
000040001C01800000
000040001802000000
00008000180C000000
000000001818000000
000000003820000000
000000003840000000
000000003980000000
000000003200000000
000000003400000000
000000003800000000
000000007000000000
000000006000000000
00000000E000000000
00000003E000000000
00000004C000000000
00000008C000000000
00000010C000000000
00000021C000000000
000000C1C000000000
000001018000000000
000002018000000000
000004038000000000
000008038000000000
000010030000000000
000020070000000000
000040070000000000
000080070000000000
000100070000000000
000200070000000000
0004000F0000040000
0008000F0000180000
0010000F0000200000
0020000F8000C00000
00600007C003000000
00C00007E03C000000
01800003FFE0000000
03000001FE00000000
070000000000000000
060000000000000000
0C0000000000000000
1C0000000000000000
180000000000000000
380000000000000000
300000000000000000
700000000000000000
600000000000000000
E00000000000000000
E00000000000000000
E00000000000000000
E00000000000000000
E00000000000000000
E00000000000000000
E00000000000000000
600000000000000000
600000000000000000
300000000000000000
180000000000000000
070000000000000000
ENDCHAR
STARTCHAR 0059
ENCODING 89
SWIDTH 547 0
DWIDTH 46 0
BBX 77 76 -8 -24
BITMAP
00000000000000000038
000000000000000000C8
00000000000000000108
00000000000000000208
00000000000000000618
000000003E0000000C10
00000000C70000000830
00000003038000001020
00000004038000003040
000000080380000060C0
00000010038000006180
0000002003800000C100
00000040078000018200
00000080070000018400
00000100070000030800
000002000F0000071000
000004000E0000063000
000000001E00000E6000
000000001C00001CC000
000000003C0000188000
000000003C0000390000
00000000780000320000
00000000780000740000
00000000F00000680000
00000000F00000F00000
00000000E00001E00000
00000001E00001C00000
00000001C00003800000
00000003C00003800000
00000003C00007000000
0000000380000F000000
0000000780001E000000
0000000780003E000000
000000070000DC000000
0000000700013C000000
00000007000638000000
00000007001870000000
00000007006070000000
000000038380E0000000
00000001FC00E0000000
000000000001C0000000
000000000003C0000000
00000000000380000000
00000000000780000000
00000000000700000000
00000000000E00000000
00000000000E00000000
00000000001C00000000
00000000001C00000000
00000000003800000000
00000000003000000000
00000000007000000000
0000000000E000000000
0000000000C000000000
0000000001C000000000
00000000018000000000
00000000030000000000
00000000070000000000
00000000060000000000
000000000C0000000000
00000000180000000000
00000000100000000000
80000000300000000000
80000000600000000000
80000000C00000000000
C0000001800000000000
C0000003000000000000
C0000006000000000000
E0000008000000000000
70000010000000000000
70000020000000000000
7C0000C0000000000000
3E000300000000000000
1FC03C00000000000000
0FFFE000000000000000
01FE0000000000000000
ENDCHAR
STARTCHAR 005A
ENCODING 90
SWIDTH 535 0
DWIDTH 45 0
BBX 53 62 0 -15
BITMAP
00007FFFFC0000
00007FFFFF0000
00007FFFC08000
00003FFC004000
00003FE0002000
00001F00002000
00000000002000
00000000002000
00000000002000
00000000004000
00000000004000
00000000008000
00000000008000
00000000010000
00000000020000
00000000040000
00000000080000
00000000100000
00000000300000
00000000600000
0000003FC00000
000001C1380000
000007061C0000
00001C0C0E0000
00003818070000
00003060078000
000060C0038000
00006300038000
00003C0003C018
0000000003C0E0
0000000003C300
0000000003DC00
0000000003E000
0000000007C000
000000003BC000
00000000C7C000
00000007078000
000000180F8000
000000E00F8000
000003000F0000
00000C001E0000
000070001E0000
0001C0003C0000
00070000780000
001C0000780000
00300000F00000
00E00001E00000
03800001C00000
07000003800000
0C000007000000
1800000E000000
3000001C000000
60000038000000
C0000070000000
C00000C0000000
80000380000000
80000600000000
80001C00000000
80007000000000
4001C000000000
300E0000000000
1FF00000000000
ENDCHAR
STARTCHAR 005B
ENCODING 91
SWIDTH 333 0
DWIDTH 28 0
BBX 36 47 1 -5
BITMAP
000000FFF0
000000F000
000000F000
000001E000
000001E000
000003C000
0000038000
0000078000
0000070000
00000F0000
00000E0000
00001E0000
00001C0000
00003C0000
0000380000
0000700000
0000700000
0000E00000
0000E00000
0001C00000
0001C00000
0003800000
0007800000
0007000000
000F000000
000E000000
001E000000
001C000000
003C000000
0038000000
0070000000
0070000000
00E0000000
01E0000000
01C0000000
03C0000000
0380000000
0780000000
0700000000
0F00000000
1E00000000
1E00000000
3C00000000
3C00000000
7800000000
F800000000
FFFE000000
ENDCHAR
STARTCHAR 005C
ENCODING 92
SWIDTH 369 0
DWIDTH 31 0
BBX 19 60 15 -14
BITMAP
800000
C00000
C00000
400000
600000
600000
200000
300000
300000
100000
180000
180000
180000
0C0000
0C0000
0C0000
040000
060000
060000
020000
030000
030000
010000
018000
018000
018000
008000
00C000
00C000
004000
006000
006000
006000
003000
003000
003000
001800
001800
001800
000800
000C00
000C00
000400
000600
000600
000600
000300
000300
000300
000100
000180
000180
000080
0000C0
0000C0
0000C0
000040
000060
000060
000020
ENDCHAR
STARTCHAR 005D
ENCODING 93
SWIDTH 357 0
DWIDTH 30 0
BBX 37 47 6 -5
BITMAP
000000FFF8
00000000F0
00000000F0
00000001E0
00000001E0
00000003C0
0000000380
0000000780
0000000700
0000000F00
0000000E00
0000001E00
0000001C00
0000003C00
0000003800
0000007800
0000007000
000000F000
000000E000
000001C000
000001C000
0000038000
0000038000
0000070000
0000070000
00000E0000
00000E0000
00001C0000
00001C0000
0000380000
0000780000
0000700000
0000F00000
0000E00000
0001E00000
0001C00000
0003C00000
0003800000
0007800000
000F000000
000F000000
001E000000
001E000000
003C000000
003C000000
0078000000
FFF8000000
ENDCHAR
STARTCHAR 005E
ENCODING 94
SWIDTH 404 0
DWIDTH 34 0
BBX 16 16 17 17
BITMAP
0001
0003
0006
000A
0012
0022
0062
0082
0102
0606
0C06
1806
3006
6006
C006
0004
ENDCHAR
STARTCHAR 005F
ENCODING 95
SWIDTH 500 0
DWIDTH 42 0
BBX 41 1 0 -4
BITMAP
FFFFFFFFFF80
ENDCHAR
STARTCHAR 0060
ENCODING 96
SWIDTH 226 0
DWIDTH 19 0
BBX 4 10 8 23
BITMAP
80
80
C0
40
60
20
20
10
10
10
ENDCHAR
STARTCHAR 0061
ENCODING 97
SWIDTH 261 0
DWIDTH 22 0
BBX 25 25 2 -3
BITMAP
00001800
00003000
00007000
0001E000
00066000
0018C000
0020C000
00C18000
01838000
03030000
060B0000
0C0E0000
1C160000
182C0080
304C0100
70480100
60980200
E1100400
E6100800
F8301000
F0202000
00202000
0020C000
00310000
001E0000
ENDCHAR
STARTCHAR 0062
ENCODING 98
SWIDTH 226 0
DWIDTH 19 0
BBX 48 56 2 0
BITMAP
0000000001FC
00000000060E
000000001803
000000006001
000000008001
000000010001
000000020001
000000040000
000000080000
000000180000
000000300000
000000600000
000000C00000
000000C00000
000001800000
000003000000
000007000000
000006000000
00000C000000
00001C000000
000018000000
000038000000
000070000000
000060000000
0000E0000000
0001C0000000
0001C0000000
000380000000
000380000000
000700000000
000700000000
000E00000000
001C00000000
001C00000000
003800000000
003800000000
007000000000
0071C0000000
00E3C0000000
00EFC0000000
01D9C0000000
01E1C0000000
03C180000000
038180000000
078180000000
070300000000
0E0300000000
0C0200000000
1C0600000000
180400000000
380800000000
381000000000
782000000000
784000000000
FF8000000000
FF0000000000
ENDCHAR
STARTCHAR 0063
ENCODING 99
SWIDTH 202 0
DWIDTH 17 0
BBX 17 20 4 0
BITMAP
000700
001F80
006380
018100
030100
060000
0C0000
0C0000
180000
380000
300080
700100
600200
E00400
E00C00
E01000
E02000
E0C000
7F0000
3C0000
ENDCHAR
STARTCHAR 0064
ENCODING 100
SWIDTH 250 0
DWIDTH 21 0
BBX 29 56 2 0
BITMAP
007F0000
0387C000
0401E000
08007000
10007800
20003C00
20001E00
60001E00
40000E00
40000F00
C0000700
C0000700
C0000780
C0000780
C0000380
C0000380
C0000380
C0000380
60000380
60000380
60000380
60000380
30000380
30000380
30000300
18000300
18000300
0C000300
0C000600
06000600
06000600
03000400
03000C00
01800C00
00800800
00401800
00601000
00303000
00102000
00086000
000C4000
00728000
00C18000
01017FF8
06020000
0C020000
18040000
18080000
30100000
60300000
60600000
C0400000
C1800000
C3000000
EE000000
78000000
ENDCHAR
STARTCHAR 0065
ENCODING 101
SWIDTH 238 0
DWIDTH 20 0
BBX 26 19 4 0
BITMAP
00070000
007F0000
00C70000
01860000
03060000
060C01C0
0C187E00
1C2F8000
18D00000
38000000
30000000
70000000
70000000
E0000000
E0000000
E0000000
E0000000
70000000
3FE00000
ENDCHAR
STARTCHAR 0066
ENCODING 102
SWIDTH 178 0
DWIDTH 15 0
BBX 99 98 -46 -36
BITMAP
00000000000000000000001FC0
0000000000000000000000FFE0
0000000000000000000001FFE0
00000000000000000000070000
000000000000000000000C0000
00000000000000000000100000
00000000000000000000200000
00000000000000000000400000
00000000000000000000800000
00000000000000000001000000
00000000000000000002000000
00000000000000000004000000
00000000000000000004000000
00000000000000000008000000
00000000000000000010000000
00000000000000000030000000
00000000000000000020000000
00000000000000000040000000
000000000000000000C0000000
00000000000000000080000000
00000000000000000180000000
00000000000000000300000000
00000000000000000300000000
00000000000000000600000000
00000000000000000C00000000
00000000000000000C00000000
00000000000000001800000000
00000000000000003800000000
00000000000000003000000000
00000000000000007000000000
00000000000000006000000000
0000000000000000E000000000
0000000000000001C000000000
0000000000000001C000000000
00000000000000038000000000
00000000000000038000000000
00000000000000070000000000
00000000000000070000000000
000000000000000E0000000000
000000000000000E0000000000
000000000000001C0000000000
000000000000003C0000000000
00000000000000380000000000
00000000000000780000000000
000000000000FFFFFE00000000
00000000000000F00000000000
00000000000000E00000000000
00000000000001E00000000000
00000000000001C00000000000
00000000000003C00000000000
00000000000003800000000000
00000000000007800000000000
00000000000007000000000000
0000000000000F000000000000
0000000000000E000000000000
0000000000001C000000000000
0000000000001C000000000000
00000000000038000000000000
00000000000038000000000000
00000000000070000000000000
000000000000F0000000000000
000000000000E0000000000000
000000000001E0000000000000
000000000001C0000000000000
00000000000380000000000000
00000000000380000000000000
00000000000700000000000000
00000000000700000000000000
00000000000E00000000000000
00000000001C00000000000000
00000000001C00000000000000
00000000003800000000000000
00000000007000000000000000
00000000007000000000000000
0000000000E000000000000000
0000000000C000000000000000
00000000018000000000000000
00000000038000000000000000
00000000070000000000000000
00000000060000000000000000
000000000C0000000000000000
00000000180000000000000000
00000000300000000000000000
00000000700000000000000000
00000000600000000000000000
00000000C00000000000000000
00000001800000000000000000
00000002000000000000000000
0000000C000000000000000000
00000018000000000000000000
00000030000000000000000000
00000040000000000000000000
80000180000000000000000000
80000600000000000000000000
40001800000000000000000000
60006000000000000000000000
3C078000000000000000000000
0FF80000000000000000000000
ENDCHAR
STARTCHAR 0067
ENCODING 103
SWIDTH 238 0
DWIDTH 20 0
BBX 48 50 -19 -33
BITMAP
000000003FFF
00000000C700
000000030600
000000060600
0000000C0C00
000000180800
000000301000
000000603000
000000E02000
000000C0C000
000001C10000
000001C70000
000000FA0000
0000000C0000
000000100000
000000200000
000000200000
000000400000
000000C00000
000000C00000
000001C00000
000001C00000
000001E00000
000000F00000
000000F00000
000000780000
0000007C0000
0000003E0000
0004001E0000
0018000F0000
0060000F0000
00C000078000
010000038000
020000038000
0C0000038000
080000030000
100000030000
300000030000
600000060000
600000040000
6000000C0000
E00000080000
E00000100000
E00000200000
F00000C00000
F00001000000
780006000000
3F0038000000
1FFFC0000000
03FC00000000
ENDCHAR
STARTCHAR 0068
ENCODING 104
SWIDTH 226 0
DWIDTH 19 0
BBX 63 69 -7 -9
BITMAP
000000000000007E
00000000000003FE
0000000000000E0E
0000000000001006
0000000000006002
0000000000008002
0000000000010000
0000000000060000
0000000000080000
0000000000100000
0000000000200000
0000000000400000
0000000000800000
0000000001000000
0000000002000000
0000000004000000
0000000004000000
0000000008000000
0000000010000000
0000000020000000
0000000040000000
00000000C0000000
0000000180000000
0000000100000000
0000000200000000
0000000600000000
0000000C00000000
0000000800000000
0000001800000000
0000003000000000
0000006000000000
0000006000000000
000000C000000000
0000018000000000
0000018000000000
0000030000000000
0000070000000000
0000060000000000
00000C0000000000
00001C0000000000
0000180000000000
0000300000000000
000070C000000000
000063C000000000
0000E7C000000000
0000D9C000000000
0001E18000000000
0003C38000000000
0003838000000000
0007030000000000
0006070000000000
000E060000000000
000C060000000000
001C0E0000000000
00380C0000000000
0038180000000000
0070180000000000
0070300000000000
00E0700000000000
0080600000000000
0000C00000000000
0001800000000000
0003000000000000
0004000000000000
0008000000000000
0030000000000000
00C0000000000000
0300000000000000
FC00000000000000
ENDCHAR
STARTCHAR 0069
ENCODING 105
SWIDTH 166 0
DWIDTH 14 0
BBX 19 31 4 0
BITMAP
000E00
000E00
001E00
001800
000000
000000
000000
000000
000000
000000
000000
000000
000000
0F8000
138000
030000
070000
060000
0E0000
0C0000
180020
180040
300080
300100
700200
600400
E00800
E03000
E04000
F18000
7E0000
ENDCHAR
STARTCHAR 006A
ENCODING 106
SWIDTH 166 0
DWIDTH 14 0
BBX 52 69 -29 -39
BITMAP
00000000000700
00000000000F00
00000000000F00
00000000000600
00000000000000
00000000000000
00000000000000
00000000000000
00000000000000
00000000000000
00000000000000
0000000001C000
000000001FC000
00000000038000
00000000038000
00000000030000
00000000060000
00000000060000
000000000C0010
000000000C0020
00000000180040
00000000180100
00000000300200
00000000300400
00000000200800
00000000601000
00000000402000
00000000C04000
00000001818000
00000001820000
00000003040000
00000003080000
00000006100000
00000006600000
0000000E800000
0000000D000000
0000001E000000
00000018000000
00000038000000
00000030000000
000000F0000000
00000170000000
000006E0000000
000009E0000000
000011C0000000
000063C0000000
00008380000000
00030780000000
00060700000000
000C0F00000000
00100E00000000
00601E00000000
00C01C00000000
01803C00000000
03007800000000
06007800000000
0C00F000000000
1800E000000000
1001E000000000
3001C000000000
60038000000000
40078000000000
C0070000000000
800E0000000000
801C0000000000
80380000000000
C0700000000000
61C00000000000
1F000000000000
ENDCHAR
STARTCHAR 006B
ENCODING 107
SWIDTH 261 0
DWIDTH 22 0
BBX 43 56 2 -5
BITMAP
0000000007E0
000000001FE0
000000006000
000000008000
000000030000
000000040000
000000080000
000000100000
000000200000
000000400000
000000800000
000000800000
000001000000
000002000000
000004000000
000004000000
000008000000
000010000000
000010000000
000020000000
000040000000
000040000000
000080000000
000180000000
000100000000
000200000000
000600000000
000400000000
000C00000000
001800000000
001000000000
0030E0000000
0063F0000000
006C70000000
00D070000000
01E060000000
01C060000000
0380C0000000
030180000000
070600000000
0E3800000000
0FFC00000000
1C0E00000000
1C0E00000000
380C00000000
381800000000
701800000000
703001000000
E03002000000
607004000000
006008000000
00E010000000
00E010000000
00E060000000
007080000000
003F00000000
ENDCHAR
STARTCHAR 006C
ENCODING 108
SWIDTH 190 0
DWIDTH 16 0
BBX 45 55 4 1
BITMAP
000000000FF0
000000003078
00000000C018
000000010018
000000020000
000000040000
000000080000
000000100000
000000200000
000000600000
000000C00000
000000800000
000001800000
000003000000
000006000000
00000C000000
00000C000000
000018000000
000038000000
000030000000
000060000000
0000E0000000
0001C0000000
000180000000
000380000000
000700000000
000700000000
000E00000000
001C00000000
001C00000000
003800000000
003800000000
007000000000
00F000000000
00E000000000
01C000000000
01C000000000
038000000000
078000000000
070000000000
0F0000000000
0E0000000000
1E0000000000
1C0004000000
3C0008000000
380010000000
780020000000
780040000000
700080000000
F00100000000
F00200000000
F00C00000000
F01000000000
78E000000000
3F0000000000
ENDCHAR
STARTCHAR 006D
ENCODING 109
SWIDTH 369 0
DWIDTH 31 0
BBX 31 21 3 -4
BITMAP
01800000
01800000
03800000
03038700
070F8F00
0633B700
0E634600
0C878600
1B0F0E00
1E0E0C00
3C1C1C00
78383800
70303800
E0707802
E0E0F004
C0C0F008
0001F010
0001E060
0003E080
0003E300
0001FC00
ENDCHAR
STARTCHAR 006E
ENCODING 110
SWIDTH 261 0
DWIDTH 22 0
BBX 28 19 0 -2
BITMAP
00307000
03F1F000
00627000
00EC6000
00D0E000
01A0C000
01C1C000
03818000
03030010
07070020
060E0040
0E0E0080
0C1C0100
1C380200
38380C00
38781000
70786000
707F8000
E03C0000
ENDCHAR
STARTCHAR 006F
ENCODING 111
SWIDTH 238 0
DWIDTH 20 0
BBX 28 19 3 0
BITMAP
000F0010
00798020
01B080C0
02208100
04208600
04209800
08216000
183F8000
103D0000
30020000
70040000
60040000
E0080000
E0100000
E0200000
E0600000
E0800000
F3000000
7C000000
ENDCHAR
STARTCHAR 0070
ENCODING 112
SWIDTH 250 0
DWIDTH 21 0
BBX 58 58 -30 -38
BITMAP
0000000000080000
00000000001C0000
0000000000380000
0000000000380000
0000000000700000
0000000000F00000
0000000000E00000
0000000001C0E000
0000000003C1E000
000000000386E000
000000000708C000
000000000F31C000
000000000E41C040
000000001E838080
000000001D070300
000000003E070C00
00000000380E3000
00000000701CC000
00000000E07B0000
00000000E3F40000
00000001C0000000
0000000780000000
0000001B80000000
0000002700000000
0000004700000000
0000008E00000000
0000011C00000000
0000021C00000000
0000043800000000
0000083000000000
0000107000000000
0000206000000000
000040C000000000
000081C000000000
0003018000000000
0006038000000000
000C030000000000
0018060000000000
00300E0000000000
00600C0000000000
0040180000000000
0080180000000000
0180300000000000
0300600000000000
0600600000000000
0C00C00000000000
0C01800000000000
1801000000000000
3003000000000000
3006000000000000
6004000000000000
6008000000000000
4010000000000000
C020000000000000
C040000000000000
C080000000000000
6300000000000000
7C00000000000000
ENDCHAR
STARTCHAR 0071
ENCODING 113
SWIDTH 309 0
DWIDTH 26 0
BBX 40 65 -12 -41
BITMAP
0000000008
0000000008
0000000010
0000000020
0000000020
0000000040
00000007F0
00000078B9
0000008119
0000010201
0000020201
0000040401
0000080401
0000100801
0000303801
0000605003
000060D002
0000C0A002
0001C14004
0001824004
0001888008
0003908010
0003E10020
0003830040
0000020080
0000060100
0000040200
00000C0400
0000180800
0000100800
0000301000
0000202000
0000604000
0000C08000
0000C10000
0001820000
0001840000
0003080000
0006080000
0006100000
000C200000
000C400000
0018800000
0039000000
0032000000
0074000000
0064000000
00E8000000
01D0000000
01A0000000
03C0000000
0380000000
0700000000
0F00000000
0E00000000
1C00000000
3800000000
3800000000
7000000000
6000000000
E000000000
C000000000
C000000000
8000000000
8000000000
ENDCHAR
STARTCHAR 0072
ENCODING 114
SWIDTH 226 0
DWIDTH 19 0
BBX 21 19 3 0
BITMAP
000020
0FC0C0
11C180
01C780
01CB00
01B300
01C700
018700
030780
0203F8
040000
0C0000
180000
380000
300000
600000
E00000
C00000
C00000
ENDCHAR
STARTCHAR 0073
ENCODING 115
SWIDTH 214 0
DWIDTH 18 0
BBX 23 28 -3 -6
BITMAP
000002
00000C
00001C
000018
000038
000078
000078
0000B8
000170
000270
000470
000870
001070
002060
0040E0
0080E0
0100C0
0200C0
0401C0
080180
F00380
E00300
E00600
E00600
E00C00
701000
786000
1F8000
ENDCHAR
STARTCHAR 0074
ENCODING 116
SWIDTH 214 0
DWIDTH 18 0
BBX 27 27 4 1
BITMAP
00018000
00038000
00070000
00060000
000E0000
000C0000
001C0000
00380000
00300000
00700000
1FFFFFE0
01A00000
01A00000
03100000
06100000
06100000
0C100000
0C100000
18100000
38200000
30200000
70400000
60400000
E0800000
E1000000
E2000000
7C000000
ENDCHAR
STARTCHAR 0075
ENCODING 117
SWIDTH 285 0
DWIDTH 24 0
BBX 26 19 4 0
BITMAP
03E02000
0C107000
30107000
C010E000
0020E000
0061C000
00C38000
01838000
03870000
070E0000
0E1E0000
181C0000
30780040
60980080
41100100
C1100200
82100C00
8C103000
700FC000
ENDCHAR
STARTCHAR 0076
ENCODING 118
SWIDTH 250 0
DWIDTH 21 0
BBX 26 18 5 1
BITMAP
0F07FFC0
7F03F800
07038000
07030000
06030000
06060000
0E040000
0C080000
0C100000
0C200000
18C00000
19800000
1B000000
3E000000
38000000
70000000
60000000
C0000000
ENDCHAR
STARTCHAR 0077
ENCODING 119
SWIDTH 309 0
DWIDTH 26 0
BBX 26 19 2 0
BITMAP
00300300
00F00F80
00E003C0
01C001C0
01C001C0
038001C0
03860180
070E0180
071E0180
0E2E0300
0E4E0200
1C8E0200
3D0E0400
3A0E0C00
7C0E0800
700E1000
E00F6000
C00FC000
40070000
ENDCHAR
STARTCHAR 0078
ENCODING 120
SWIDTH 285 0
DWIDTH 24 0
BBX 34 26 -6 -5
BITMAP
00007801C0
0001F803C0
0002F80C00
0000F81000
0000F86000
0000F08000
0000F10000
0000760000
0000780000
0000700000
0000600000
0000E00000
0001600100
0002600200
0002600400
0004E00800
0008E01000
0010E02000
0020F0C000
00C07F0000
01807C0000
0300000000
0E00000000
FC00000000
F000000000
E000000000
ENDCHAR
STARTCHAR 0079
ENCODING 121
SWIDTH 238 0
DWIDTH 20 0
BBX 88 69 -55 -44
BITMAP
000000000000000000000E
000000000000000000003F
000000000000000000007F
0000000000000000000081
0000000000000000000301
0000000000000000000200
0000000000000000000400
0000000000000000000800
0000000000000000001000
0000000000000000F02000
0000000000000007F02000
0000000000000038E04000
0000000000000000E04000
0000000000000001C08000
0000000000000001C10000
0000000000000003810000
0000000000000003020000
0000000000000007020000
000000000000000E040000
000000000000000E080000
000000000000001C080000
000000000000003C100000
000000000000003C100000
0000000000000078200000
0000000000000078600000
0000000000000079C00000
0000000000000006800000
0000000000000000800000
0000000000000001000000
0000000000000001000000
0000000000000002000000
0000000000000004000000
0000000000000004000000
0000000000000008000000
0000000000000010000000
0000000000000010000000
0000000000000020000000
0000000000000040000000
0000000000000040000000
0000000000000080000000
0000000000000100000000
0000000000000100000000
0000000000000200000000
0000000000000400000000
0000000000000800000000
0000000000000800000000
0000000000001000000000
0000000000002000000000
0000000000004000000000
0000000000008000000000
8000000000010000000000
8000000000020000000000
8000000000040000000000
8000000000040000000000
8000000000080000000000
8000000000100000000000
8000000000200000000000
C000000000C00000000000
C000000001000000000000
6000000002000000000000
6000000004000000000000
7000000018000000000000
3800000020000000000000
1C000000C0000000000000
1F00000300000000000000
0FC0001C00000000000000
03FC00F000000000000000
01FFFF8000000000000000
003FFC0000000000000000
ENDCHAR
STARTCHAR 007A
ENCODING 122
SWIDTH 226 0
DWIDTH 19 0
BBX 48 46 -26 -26
BITMAP
000000004006
000000004006
00000000C00C
00000000E018
00000001F070
00000001FFC0
000000007C80
000000000100
000000000200
000000000400
000000000800
000000001000
000000002000
00000001FE03
000000000F1C
0000000007E0
000000000700
000000001F00
000000006E00
000000038E00
0000000C1C00
000000301C00
000000C03C00
000007003800
00001C007000
000070007000
0001C000E000
00070001C000
000C00038000
003000038000
00E000070000
0180000E0000
0300001C0000
0E0000380000
180000700000
300000E00000
200001C00000
600003000000
400006000000
80000C000000
800030000000
800060000000
800180000000
C00600000000
603800000000
1FC000000000
ENDCHAR
STARTCHAR 007B
ENCODING 123
SWIDTH 261 0
DWIDTH 22 0
BBX 33 51 4 -9
BITMAP
0000000380
0000003C00
000000F000
000001E000
000003C000
0000078000
0000070000
00000E0000
00001C0000
00001C0000
0000380000
0000300000
0000700000
0000E00000
0000C00000
0001800000
0001800000
0003000000
0006000000
000C000000
0018000000
0060000000
1FC0000000
0020000000
0020000000
0020000000
0020000000
0020000000
0060000000
0040000000
00C0000000
00C0000000
0180000000
0300000000
0700000000
0600000000
0E00000000
0C00000000
1C00000000
3800000000
3800000000
7800000000
7000000000
7000000000
F000000000
E000000000
E000000000
6000000000
3000000000
1800000000
0400000000
ENDCHAR
STARTCHAR 007C
ENCODING 124
SWIDTH 226 0
DWIDTH 19 0
BBX 2 84 12 -21
BITMAP
C0
C0
C0
C0
C0
C0
C0
C0
C0
C0
C0
C0
C0
C0
C0
C0
C0
C0
C0
C0
C0
C0
C0
C0
C0
C0
C0
C0
C0
C0
C0
C0
C0
C0
C0
C0
C0
C0
C0
C0
C0
C0
C0
C0
C0
C0
C0
C0
C0
C0
C0
C0
C0
C0
C0
C0
C0
C0
C0
C0
C0
C0
C0
C0
C0
C0
C0
C0
C0
C0
C0
C0
C0
C0
C0
C0
C0
C0
C0
C0
C0
C0
C0
C0
ENDCHAR
STARTCHAR 007D
ENCODING 125
SWIDTH 261 0
DWIDTH 22 0
BBX 32 50 2 -8
BITMAP
0000000C
00000002
00000002
00000002
00000003
00000007
00000007
0000000E
0000000E
0000001C
0000001C
00000038
00000078
00000070
000000E0
000000E0
000001C0
00000180
00000380
00000300
00000300
00000118
000000F8
00000080
00000300
00000600
00000C00
00001800
00003000
00003000
00006000
0000E000
0001C000
0001C000
00038000
00038000
00070000
00070000
000E0000
001E0000
001C0000
00380000
00700000
00700000
00C00000
01800000
03000000
0C000000
30000000
C0000000
ENDCHAR
STARTCHAR 007E
ENCODING 126
SWIDTH 404 0
DWIDTH 34 0
BBX 20 5 11 9
BITMAP
1F8030
7FE030
60FCE0
C03FC0
400780
ENDCHAR
STARTCHAR 00A0
ENCODING 160
SWIDTH 202 0
DWIDTH 17 0
BBX 0 0 0 0
BITMAP
ENDCHAR
STARTCHAR 00A1
ENCODING 161
SWIDTH 214 0
DWIDTH 18 0
BBX 20 34 1 -14
BITMAP
000060
0000F0
0001F0
0001E0
0000C0
000000
000000
000000
000000
000100
000100
000200
000200
000200
000400
000400
000800
000800
001800
001000
003000
003000
006000
006000
00C000
01C000
018000
038000
070000
070000
0F0000
1E0000
3C0000
F80000
ENDCHAR
STARTCHAR 00A2
ENCODING 162
SWIDTH 369 0
DWIDTH 31 0
BBX 30 55 7 -14
BITMAP
00000004
00000008
00000018
00000030
00000020
00000040
000000C0
00000080
00000100
00000F80
00007FC0
000187E0
000204E0
000C08E0
00181040
00301000
00602000
00C02000
00C04000
01808000
03808000
03010000
07010000
0E020000
0E020000
1E040080
1C080100
1C080200
3C100400
3C100800
3C203000
3C204000
3C418000
3E460000
3FF80000
0F800000
01000000
01000000
02000000
02000000
04000000
04000000
08000000
08000000
10000000
10000000
20000000
20000000
20000000
40000000
40000000
C0000000
C0000000
80000000
40000000
ENDCHAR
STARTCHAR 00A3
ENCODING 163
SWIDTH 476 0
DWIDTH 40 0
BBX 39 38 -1 -1
BITMAP
00000000FE
00000007FE
000000080E
0000003006
0000004000
0000008000
0000010000
0000010000
0000020000
0000040000
00000C0000
0000080000
0000180000
0000100000
0000300000
0000600000
000043FC00
003FFC0000
0000800000
0001800000
0001000000
0002000000
0004000000
0004000000
0008000000
0010000000
0020000000
0040000000
00FFC00000
0300F00000
04007C0000
08003E0002
18000F8004
700007C008
E00003F010
C00001FFE0
000000FFC0
0000003F00
ENDCHAR
STARTCHAR 00A4
ENCODING 164
SWIDTH 500 0
DWIDTH 42 0
BBX 38 30 6 5
BITMAP
0800000004
0C00000008
0200FFE030
0103001860
008C000E80
0058000700
0030000300
0060000180
00C0000180
0080000080
0180000080
01000000C0
03000000C0
03000000C0
02000000C0
0200000080
0200000080
0200000080
0200000100
0200000100
0300000300
0300000200
0100000400
0380000E00
0480001100
0840002080
302000C040
601C070030
C003F80018
8000000000
ENDCHAR
STARTCHAR 00A5
ENCODING 165
SWIDTH 440 0
DWIDTH 37 0
BBX 46 41 5 0
BITMAP
000000000008
00000000001C
000000000038
0000000000F0
00FF000001C0
03FFC0000380
0C07E0000600
1001F0001C00
2000F0003000
4000F0006000
800070008000
000078030000
000078060000
000070080000
000070100000
000070200000
000070C00000
000071000000
000062000000
000064000000
0000E8000000
0000D0000000
00FFFFE00000
0001C0000000
000380000000
000380000000
000707000000
0FFFF8000000
100E00000000
000E00000000
001C00000000
001800000000
003800000000
007000000000
007000000000
00E000000000
00E000000000
01C000000000
03C000000000
07C000000000
FFFE00000000
ENDCHAR
STARTCHAR 00A6
ENCODING 166
SWIDTH 226 0
DWIDTH 19 0
BBX 2 71 17 -14
BITMAP
C0
C0
C0
C0
C0
C0
C0
C0
C0
C0
C0
C0
C0
C0
C0
C0
C0
C0
C0
C0
C0
C0
C0
C0
C0
C0
C0
C0
C0
00
00
00
00
00
00
00
00
00
00
00
00
C0
C0
C0
C0
C0
C0
C0
C0
C0
C0
C0
C0
C0
C0
C0
C0
C0
C0
C0
C0
C0
C0
C0
C0
C0
C0
C0
C0
C0
C0
ENDCHAR
STARTCHAR 00A7
ENCODING 167
SWIDTH 297 0
DWIDTH 25 0
BBX 31 41 -1 -5
BITMAP
000001FC
000003FE
0000080E
00001004
00001004
00002000
00002000
00006000
00006000
00006000
0001E000
00027000
00043000
00043800
000C1C00
000C1C00
000C0E00
001E0600
000E0700
000F0300
000F8180
00078180
0003C180
0001E180
0000F100
0000F100
00007900
00003A00
00003C00
80001800
80001800
80001800
80001800
80001000
80001000
C0002000
E0004000
F0008000
7C030000
3FFC0000
0FE00000
ENDCHAR
STARTCHAR 00A8
ENCODING 168
SWIDTH 226 0
DWIDTH 19 0
BBX 10 4 5 26
BITMAP
71C0
71C0
F3C0
C300
ENDCHAR
STARTCHAR 00A9
ENCODING 169
SWIDTH 595 0
DWIDTH 50 0
BBX 43 40 6 -4
BITMAP
00001FF80000
0000E0070000
00070000C000
001800003000
002000001800
004000000C00
008000000600
010003E00300
02001C3C0100
0400200F0180
0800C0078180
0801000380C0
1003000380C0
1006000300C0
200600020040
200C00040040
200C00000060
401C00000060
401800000060
401800000040
403800000040
C03800000040
C038000000C0
C03C000000C0
C01C00000080
C01C00000080
C01E00040100
C00F00080100
400780300200
6003F1C00200
6000FE000400
300000000800
100000001000
180000001000
0C0000006000
060400008000
010200030000
00C1800C0000
003C7CF00000
000003000000
ENDCHAR
STARTCHAR 00AA
ENCODING 170
SWIDTH 273 0
DWIDTH 23 0
BBX 22 24 6 13
BITMAP
000020
000060
000070
0000E0
0000C0
000FC0
001180
006380
008700
018700
030E00
061600
0C1E00
1C2C00
385C00
389C00
711800
723800
FC3804
F83808
603830
003CC0
003F00
001C00
ENDCHAR
STARTCHAR 00AB
ENCODING 171
SWIDTH 333 0
DWIDTH 28 0
BBX 19 21 10 -2
BITMAP
000400
000820
0030C0
004100
008200
010400
040800
083000
104000
60C000
E1C000
E0C000
60E000
70E000
707000
307000
387000
383800
383800
1C3800
1C0000
ENDCHAR
STARTCHAR 00AC
ENCODING 172
SWIDTH 404 0
DWIDTH 34 0
BBX 18 8 11 7
BITMAP
7FFFC0
FFFF80
000180
000300
000300
000600
000600
000E00
ENDCHAR
STARTCHAR 00AD
ENCODING 173
SWIDTH 321 0
DWIDTH 27 0
BBX 14 1 12 10
BITMAP
FFFC
ENDCHAR
STARTCHAR 00AE
ENCODING 174
SWIDTH 404 0
DWIDTH 34 0
BBX 27 26 12 14
BITMAP
001FF800
00600600
01800100
02000080
040FF040
080C3840
10181860
10181860
20303060
20303020
4060E020
407F0060
404C0060
40CE0040
C0C60040
C1830040
C1838080
43018080
4300C100
6600E200
20000200
30000400
18001800
0C006000
03C78000
00380000
ENDCHAR
STARTCHAR 00AF
ENCODING 175
SWIDTH 226 0
DWIDTH 19 0
BBX 7 1 6 27
BITMAP
FE
ENDCHAR
STARTCHAR 00B0
ENCODING 176
SWIDTH 226 0
DWIDTH 19 0
BBX 8 9 17 30
BITMAP
1C
63
81
81
81
82
82
6C
10
ENDCHAR
STARTCHAR 00B1
ENCODING 177
SWIDTH 404 0
DWIDTH 34 0
BBX 23 19 7 1
BITMAP
000070
0000E0
0000C0
000180
000180
000300
03FFFE
001FFC
000400
000C00
000800
001800
003800
003000
007000
000000
000000
FFFFC0
FFFFC0
ENDCHAR
STARTCHAR 00B2
ENCODING 178
SWIDTH 250 0
DWIDTH 21 0
BBX 20 16 10 20
BITMAP
007E00
018700
000700
000700
000700
000600
000C00
001000
002000
004000
018000
020000
0E0000
1FC010
67FC20
80FFC0
ENDCHAR
STARTCHAR 00B3
ENCODING 179
SWIDTH 250 0
DWIDTH 21 0
BBX 16 19 12 19
BITMAP
000C
007F
0187
0003
0002
0004
0018
0060
0060
0070
0078
0038
0038
0018
0030
8020
C040
7B80
3C00
ENDCHAR
STARTCHAR 00B4
ENCODING 180
SWIDTH 226 0
DWIDTH 19 0
BBX 14 11 2 23
BITMAP
0004
0018
0030
0060
0080
0300
0600
0800
1000
6000
8000
ENDCHAR
STARTCHAR 00B5
ENCODING 181
SWIDTH 404 0
DWIDTH 34 0
BBX 31 38 0 -21
BITMAP
0000700C
00006018
0000C018
0000C030
00018070
00030060
000300C0
000600C0
00060180
000C0380
000C0300
00180702
00380F04
0058160C
00782608
00B84E10
00B98E60
011E0780
01000000
02000000
02000000
04000000
04000000
08000000
08000000
10000000
10000000
20000000
20000000
20000000
60000000
40000000
C0000000
C0000000
C0000000
C0000000
C0000000
40000000
ENDCHAR
STARTCHAR 00B6
ENCODING 182
SWIDTH 500 0
DWIDTH 42 0
BBX 31 48 19 -6
BITMAP
0000000C
0000000E
0000000E
0000001C
000001F0
00003E00
0003FE00
000FFC00
003FF800
00FFF800
01FFF000
03FFF000
07FFE000
0FFFE000
0FFFC000
1FFFC000
1FFF8000
3FFF8000
3FFF0000
3FFF0000
7FFE0000
7FFC0000
3FFC0000
3FF80000
3FF80000
1FF00000
00100000
00200000
00200000
00400000
00400000
00800000
00800000
01000000
01000000
02000000
04000000
04000000
08000000
08000000
10000000
10000000
20000000
20000000
40000000
40000000
80000000
80000000
ENDCHAR
STARTCHAR 00B7
ENCODING 183
SWIDTH 214 0
DWIDTH 18 0
BBX 6 5 11 14
BITMAP
3C
78
78
F0
60
ENDCHAR
STARTCHAR 00B8
ENCODING 184
SWIDTH 226 0
DWIDTH 19 0
BBX 8 12 5 -12
BITMAP
01
06
0C
1C
1F
0F
07
06
08
10
60
80
ENDCHAR
STARTCHAR 00B9
ENCODING 185
SWIDTH 250 0
DWIDTH 21 0
BBX 16 16 12 21
BITMAP
01FF
0007
000E
000E
001C
001C
0038
0030
0070
0060
00E0
00C0
01C0
0380
0380
FC7C
ENDCHAR
STARTCHAR 00BA
ENCODING 186
SWIDTH 238 0
DWIDTH 20 0
BBX 15 18 8 15
BITMAP
000E
003E
004E
008E
010E
020E
040E
0C0C
180C
3818
3018
7030
7020
7040
F0C0
F100
7200
7C00
ENDCHAR
STARTCHAR 00BB
ENCODING 187
SWIDTH 357 0
DWIDTH 30 0
BBX 21 21 7 -2
BITMAP
038380
03C380
01C3C0
01E1C0
00E1E0
0070E0
007070
003870
001C38
001C38
000C10
001060
0020C0
004100
008200
010400
040800
083000
106000
20C000
C00000
ENDCHAR
STARTCHAR 00BC
ENCODING 188
SWIDTH 595 0
DWIDTH 50 0
BBX 43 44 8 -5
BITMAP
0000000000E0
0000000001C0
000000000180
001FF0000300
000070000600
0000E0000C00
0000E0001800
0001C0003000
0001C0006000
00038000C000
000300018000
000700030000
000600060000
000E00040000
000C00080000
001C00100000
003800200000
003C40400000
0FE380800000
000001000000
000002000000
000004000000
00000C00C000
00001801C000
00003000C200
000060018400
000040011800
000080023000
0001000C6000
000200106000
00040060C000
000801818000
00100FFFC000
00300FFFFC00
006008030800
00C000060000
0180000E0000
0300000C0000
0600000C0000
0C0000040000
180000000000
180000000000
300000000000
E00000000000
ENDCHAR
STARTCHAR 00BD
ENCODING 189
SWIDTH 595 0
DWIDTH 50 0
BBX 43 44 8 -5
BITMAP
0000000000E0
0000000001C0
000000000180
001FF0000300
000070000600
0000E0000C00
0000E0001800
0001C0003000
0001C0006000
00038000C000
000300018000
000700030000
000600060000
000E00040000
000C00080000
001C00100000
003800200000
003C40400000
0FE380800000
000001000000
000002000000
000004000000
00000C000000
0000181FC000
00003061C000
00006001C000
00004001C000
00008001C000
000100018000
000200030000
000400060000
000800080000
001000100000
003000600000
006000800000
00C003800000
018007F00400
030019FF0800
0600203FF000
0C0000000000
180000000000
180000000000
300000000000
E00000000000
ENDCHAR
STARTCHAR 00BE
ENCODING 190
SWIDTH 595 0
DWIDTH 50 0
BBX 43 44 8 -5
BITMAP
0000000000E0
0000000001C0
0003F0000180
000C70000300
001030000600
000030000C00
000040001800
000180003000
000200006000
00060000C000
000700018000
000780030000
000380060000
000380040000
000180080000
000180100000
080300200000
040400400000
07F800800000
03C001000000
000002000000
000004000000
00000C00C000
00001801C000
00003000C200
000060018400
000040011800
000080023000
0001000C6000
000200106000
00040060C000
000801818000
00100FFFC000
00300FFFFC00
006008030800
00C000060000
0180000E0000
0300000C0000
0600000C0000
0C0000040000
180000000000
180000000000
300000000000
E00000000000
ENDCHAR
STARTCHAR 00BF
ENCODING 191
SWIDTH 261 0
DWIDTH 22 0
BBX 26 41 -2 -21
BITMAP
00000180
000003C0
000007C0
00000380
00000300
00000200
00000000
00000000
0000E000
00007000
00007000
00003000
00003000
00006000
00004000
00018000
00020000
00040000
00100000
00200000
00C00000
01000000
02000000
04000000
08000000
18000000
30000000
30000000
70000000
60000000
60000000
F0000000
70000000
78000000
7C000000
3F800000
0FF00000
01F00000
00700000
00200000
00400000
ENDCHAR
STARTCHAR 00C0
ENCODING 192
SWIDTH 726 0
DWIDTH 61 0
BBX 62 66 5 -5
BITMAP
0000000000001000
0000000000003000
0000000000001800
0000000000001800
0000000000000C00
0000000000000400
0000000000000600
0000000000000200
0000000000000200
0000000000000100
0000000000000000
0000000000000000
0000000000000004
0000000000000004
0000000000000004
0000000000007F04
000000000007FFE4
00000000003FFFFC
0000000001FFFFFC
0000000007FC00FC
000000001FC0001C
000000007E00003C
00000001F000003C
00000007C0000070
0000000F000000F0
0000003C000001E0
00000078000001C0
000001E000000380
0000038000000780
0000070000000F00
00001E0000001E00
0000380000001E00
0000700000003C00
0000E0000000F800
0003C00000017800
0007000000027000
000E00000004E000
001C00000009E000
003800000011C000
0078000000238000
00F0000000478000
01E0000000870000
01C00000010F0000
03800000021E0000
07800000041E0000
0F000000083C0000
0F000000103C0000
1E00000020780000
3E000000C0780000
3C00000100F00000
7C00000201F00000
7C00000C01E00000
7800001001E00000
F800006003C00000
F800008003C00000
F800030007C00000
F8000C0007800004
FC00700007800008
7E03C0000F800030
7FFE00000F800060
1FE000000F800080
000000000F800300
000000000FC00C00
0000000007F07000
0000000003FFC000
0000000000FC0000
ENDCHAR
STARTCHAR 00C1
ENCODING 193
SWIDTH 726 0
DWIDTH 61 0
BBX 62 66 5 -4
BITMAP
0000000000000004
0000000000000008
0000000000000010
0000000000000060
00000000000000C0
0000000000000100
0000000000000200
0000000000000C00
0000000000001000
0000000000002000
0000000000000000
0000000000000000
0000000000000004
0000000000000004
0000000000000004
0000000000007F04
000000000007FFE4
00000000003FFFFC
0000000001FFFFFC
0000000007FC00FC
000000001FC0001C
000000007E00003C
00000001F000003C
00000007C0000070
0000000F000000F0
0000003C000001E0
00000078000001C0
000001E000000380
0000038000000780
0000070000000F00
00001E0000001E00
0000380000001E00
0000700000003C00
0000E0000000F800
0003C00000017800
0007000000027000
000E00000004E000
001C00000009E000
003800000011C000
0078000000238000
00F0000000478000
01E0000000870000
01C00000010F0000
03800000021E0000
07800000041E0000
0F000000083C0000
0F000000103C0000
1E00000020780000
3E000000C0780000
3C00000100F00000
7C00000201F00000
7C00000C01E00000
7800001001E00000
F800006003C00000
F800008003C00000
F800030007C00000
F8000C0007800004
FC00700007800008
7E03C0000F800030
7FFE00000F800060
1FE000000F800080
000000000F800300
000000000FC00C00
0000000007F07000
0000000003FFC000
0000000000FC0000
ENDCHAR
STARTCHAR 00C2
ENCODING 194
SWIDTH 726 0
DWIDTH 61 0
BBX 62 66 5 -5
BITMAP
0000000000000040
00000000000001C0
00000000000002C0
00000000000004C0
00000000000008C0
00000000000010C0
00000000000020C0
00000000000040C0
00000000000080C0
00000000000100C0
0000000000000080
0000000000000000
0000000000000004
0000000000000004
000000000000000C
000000000001FC0C
00000000001FFF1C
0000000000FFFFBC
0000000003FFFFE0
000000001FF000E0
000000003F000198
00000000F8000304
00000003E0000300
0000000F80000600
0000001E00000E00
0000007800000C00
000000E000001C00
000003C000003800
0000070000003000
00000E0000007000
00003C000000E000
0000700000016000
0000E00000034000
0001C0000002C000
0003800000058000
0007000000098000
000E000000130000
001C000000230000
0038000000470000
0070000000860000
00E00000010E0000
01E00000021C0000
03C00000041C0000
0380000008380000
0780000010380000
0F00000020780000
0E00000040700000
1E00000080F00000
3C00000100F00000
3C00000601E00000
7C00000C01E00000
7800001003E00000
7800006003C00000
F80000C003C00000
F800030007C00000
F800060007C00000
F800180007800040
FC0060000F800080
FE0380000F800100
7FFE00000F800200
1FE000000F800400
000000000F801800
000000000FC02000
0000000007E0C000
0000000003FF0000
0000000001F80000
ENDCHAR
STARTCHAR 00C3
ENCODING 195
SWIDTH 726 0
DWIDTH 61 0
BBX 62 64 5 -5
BITMAP
0000000000007000
000000000000F804
0000000000031E04
0000000000040F08
00000000000807F0
00000000000001E0
0000000000000000
0000000000000000
0000000000000000
0000000000000000
0000000000000004
0000000000000004
0000000000000004
0000000000007F04
000000000007FFE4
00000000003FFFFC
0000000001FFFFFC
0000000007FC00FC
000000001FC0001C
000000007E00003C
00000001F000003C
00000007C0000070
0000000F000000F0
0000003C000001E0
00000078000001C0
000001E000000380
0000038000000780
0000070000000F00
00001E0000001E00
0000380000001E00
0000700000003C00
0000E0000000F800
0003C00000017800
0007000000027000
000E00000004E000
001C00000009E000
003800000011C000
0078000000238000
00F0000000478000
01E0000000870000
01C00000010F0000
03800000021E0000
07800000041E0000
0F000000083C0000
0F000000103C0000
1E00000020780000
3E000000C0780000
3C00000100F00000
7C00000201F00000
7C00000C01E00000
7800001001E00000
F800006003C00000
F800008003C00000
F800030007C00000
F8000C0007800004
FC00700007800008
7E03C0000F800030
7FFE00000F800060
1FE000000F800080
000000000F800300
000000000FC00C00
0000000007F07000
0000000003FFC000
0000000000FC0000
ENDCHAR
STARTCHAR 00C4
ENCODING 196
SWIDTH 726 0
DWIDTH 61 0
BBX 62 61 5 -5
BITMAP
0000000000001C70
0000000000001C70
0000000000003CF0
00000000000030C0
0000000000000000
0000000000000000
0000000000000000
0000000000000004
0000000000000004
000000000000000C
000000000001FC0C
00000000001FFF1C
0000000000FFFFBC
0000000003FFFFFC
000000001FF000FC
000000007F0001F4
00000000F80003F0
00000003E00003E0
0000000F800007C0
0000001E00000FC0
0000007800000F80
000000E000001F00
000003C000003F00
0000070000003E00
00000E0000007C00
00003C000000FC00
000070000001B800
0000E0000003B000
0001C00000037000
000380000006E000
00070000000CE000
000E00000019C000
001C000000338000
0038000000638000
0070000000C70000
00E0000001870000
01E00000030E0000
03C00000061E0000
038000000C1C0000
07800000183C0000
0F00000030380000
0E00000060780000
1E000000C0700000
3C00000180F00000
3C00000600F00000
7C00000C01E00000
7800001801E00000
7800007003E00000
F80000C003C00000
F800038007C00000
F800060007C00000
F800180007800004
FC0070000F800008
7E0380000F800030
7FFE00000F800060
1FE000000F800080
000000000F800300
000000000FC00C00
0000000007F07000
0000000003FFC000
0000000000FC0000
ENDCHAR
STARTCHAR 00C5
ENCODING 197
SWIDTH 726 0
DWIDTH 61 0
BBX 62 65 5 -5
BITMAP
00000000000003F0
0000000000000C08
0000000000001004
0000000000001004
0000000000002004
0000000000002004
0000000000002008
0000000000001010
0000000000000FE0
0000000000000000
0000000000000000
0000000000000004
0000000000000004
0000000000000004
000000000000FF04
00000000000FFFCC
00000000007FFFFC
0000000001FFFFFC
0000000007FC00FC
000000001FC0001C
000000007E00003C
00000001F000003C
00000007C0000070
0000000F000000F0
0000003C000001E0
00000078000001C0
000001E000000380
0000038000000780
00000F0000000F00
00001E0000001E00
0000380000001E00
0000700000003C00
0001E0000000F800
0003C00000017800
0007000000027000
000E00000004E000
001C00000005E000
003800000009C000
0078000000138000
00F0000000278000
01E0000000470000
01C00000018F0000
03800000020E0000
07800000041E0000
0F000000083C0000
0F000000103C0000
1E00000020780000
3E000000C0780000
3C00000100F00000
7C00000200F00000
7C00000C01E00000
7800001001E00000
F800006003C00000
F800008003C00000
F800030007C00000
F8000C0007800004
FC00700007800008
7E03C0000F800030
7FFE00000F800060
1FE000000F800080
000000000F800300
000000000FC00C00
0000000007F07000
0000000003FFC000
0000000000FC0000
ENDCHAR
STARTCHAR 00C6
ENCODING 198
SWIDTH 1011 0
DWIDTH 85 0
BBX 84 50 5 0
BITMAP
0000000000000001000000
0000000000000006000000
000000000000001C000000
000000000001FC1C03FE00
00000000001FFE380C3F00
0000000000FFFF30300F00
0000000003FFFFF0400600
000000000FFFFFE0800400
000000003FF800C1800400
00000000FF800181000000
00000003FC000183000000
00000007E0000303000000
0000001F80000607000000
0000003E00000607000000
000000F800000C07000000
000001F000001807800000
000003C000001807800000
00000F8000003007C00000
00001E000000603FFE0000
00003C000000E1FFF80000
000078000001C7E0000000
0001E0000002DF00000000
0003C0000005BC00000000
000780000009F000000000
000F00000013E000000000
001E00000027C000000000
003C000000278000000000
00780000004F0000000000
00F00000008E0000000020
00E00000011C0000000020
01E00000021C0000000030
03C0000004380000000030
0780000008380000000020
0780000010780000000020
0F00000020F00000000040
1E00000040F00000000040
1E00000081F00000000080
3C00000301F00000000100
3C00000403F00000000100
7C00000803F00000000200
7800001007700000000400
7800002007780000000800
F80000C00E780000001000
F80001000E3C0000002000
F80006001C3E000000C000
F80018001C1F0000010000
FC0060003C0FC0000E0000
7E0380003807F800700000
7FFC00006001FFFF800000
1FE0000000003FF8000000
ENDCHAR
STARTCHAR 00C7
ENCODING 199
SWIDTH 607 0
DWIDTH 51 0
BBX 53 63 5 -12
BITMAP
00000000000018
00000000000070
00000000000070
000000000000E0
000000000000C0
000000001FE1C0
00000001E03980
0000000F000F00
00000038000700
000000F0000600
000001C0000600
00000780000C00
00001E00000C00
00003C00001800
00007800001800
0000F000003800
0003E000007000
0007C000007000
000F800000F000
001F000000E000
003E000001E000
007C0000018000
00780000000000
00F80000000000
01F00000000000
03E00000000000
07E00000000000
07C00000000000
0F800000000000
0F800000000000
1F000000000000
3F000000000000
3E000000000000
3E000000000000
7E000000000000
7C000000000000
7C000000000000
FC000000000000
F8000000000000
F8000000000000
F8000000000000
F8000000000000
F8000000000000
F8000000007C00
F800000003FE00
780000000F8600
7C000000780200
3C000001C00200
1E00000E000200
0F000070000200
03C00780000400
007FF800000000
00080000000000
00100000000000
00700000000000
00780000000000
007C0000000000
001C0000000000
00180000000000
00100000000000
00200000000000
00C00000000000
03000000000000
ENDCHAR
STARTCHAR 00C8
ENCODING 200
SWIDTH 785 0
DWIDTH 66 0
BBX 69 64 0 -2
BITMAP
000000000000200000
000000000000200000
000000000000300000
000000000000100000
000000000000180000
000000000000080000
000000000000080000
000000000000040000
000000000000040000
000000000001820000
000000000002000000
00000000000C000000
000000000018000000
000000000030000000
000000000020000000
0000000007FFFFF800
00000000FFFFFFF000
00000007FFFFFFF000
0000003F8080000000
000000780180000000
000001C00100000000
000007000300000000
00000E000200000000
000018000600000000
000030000400000000
000060000800000000
0000C0001800000000
0000C0001000000000
000180003000000000
000180002000000000
000300004000000000
000300004000000000
000700008000000000
000700008000000000
000700010000000000
000700020000000000
000700020000000000
0003001FFFFFF80000
0003001FFFFF800000
0001001FFF80000000
000000100000000000
000000200000000008
000000400000000008
000000800000000008
000001000000000008
000002000000000008
000004000000000008
000008000000000010
000010000000000010
0FFFE0000000000010
300FF8000000000030
6000FE000000000020
60013F800000000060
E0020FE00000000040
E00403F80000000080
F00801FE0000000180
7830007F8000000700
1FC0001FF000000E00
00000007FE00003C00
00000001FFE003F800
000000007FFFFFE000
000000001FFFFF8000
0000000003FFFE0000
00000000003FF00000
ENDCHAR
STARTCHAR 00C9
ENCODING 201
SWIDTH 785 0
DWIDTH 66 0
BBX 69 64 0 -1
BITMAP
000000000000000180
000000000000000300
000000000000000600
000000000000000C00
000000000000001000
000000000000006000
00000000000000C000
000000000000010000
000000000000060000
000000000001880000
000000000002100000
00000000000C000000
000000000018000000
000000000030000000
000000000020000000
0000000007FFFFF800
00000000FFFFFFF000
00000007FFFFFFF000
0000003F8080000000
000000780180000000
000001C00100000000
000007000300000000
00000E000200000000
000018000600000000
000030000400000000
000060000800000000
0000C0001800000000
0000C0001000000000
000180003000000000
000180002000000000
000300004000000000
000300004000000000
000700008000000000
000700008000000000
000700010000000000
000700020000000000
000700020000000000
0003001FFFFFF80000
0003001FFFFF800000
0001001FFF80000000
000000100000000000
000000200000000008
000000400000000008
000000800000000008
000001000000000008
000002000000000008
000004000000000008
000008000000000010
000010000000000010
0FFFE0000000000010
300FF8000000000030
6000FE000000000020
60013F800000000060
E0020FE00000000040
E00403F80000000080
F00801FE0000000180
7830007F8000000700
1FC0001FF000000E00
00000007FE00003C00
00000001FFE003F800
000000007FFFFFE000
000000001FFFFF8000
0000000003FFFE0000
00000000003FF00000
ENDCHAR
STARTCHAR 00CA
ENCODING 202
SWIDTH 785 0
DWIDTH 66 0
BBX 69 64 0 -2
BITMAP
000000000000000400
000000000000000C00
000000000000003C00
000000000000004C00
000000000000008C00
000000000000010C00
000000000000020C00
000000000000040C00
000000000000080C00
000000000000900C00
000000000003000800
000000000004000000
00000000000C000000
000000000018000000
000000000030000000
0000000007FFFFF800
00000000FFFFFFF800
00000007FFFFFFF000
0000001FC0C0000000
000000780080000000
000001E00180000000
000003000100000000
00000E000300000000
000018000600000000
000030000400000000
000060000C00000000
0000C0000800000000
0000C0001800000000
000180001000000000
000180002000000000
000300002000000000
000300004000000000
00070000C000000000
000700008000000000
000700010000000000
000700010000000000
000700020000000000
0003001FFFFFFC0000
0003001FFFFF800000
0001001FFF80000000
000000100000000000
000000100000000008
000000200000000008
000000400000000008
000000800000000008
000003000000000008
000004000000000008
000008000000000010
000010000000000010
0FFFE0000000000010
300FF8000000000030
6000FE000000000020
60013F800000000060
E0020FE00000000040
E00403F80000000080
F00801FE0000000180
7830007F8000000700
1FC0001FF000000E00
00000007FE00003C00
00000001FFE003F800
000000007FFFFFE000
000000001FFFFF8000
0000000003FFFE0000
00000000003FF00000
ENDCHAR
STARTCHAR 00CB
ENCODING 203
SWIDTH 785 0
DWIDTH 66 0
BBX 69 59 0 -2
BITMAP
0000000000000E3800
0000000000000E3800
0000000000001E7800
000000000000186000
000000000000800000
000000000003000000
00000000000C000000
000000000018000000
000000000018000000
000000000030000000
0000000007FFFFF800
00000000FFFFFFF000
00000007FFFFFFF000
0000001FC0C0000000
000000780080000000
000001C00180000000
000003000300000000
00000E000200000000
000018000600000000
000030000400000000
000060000C00000000
0000C0000800000000
0000C0001000000000
000180001000000000
000180002000000000
000300006000000000
000300004000000000
000700008000000000
000700008000000000
000700010000000000
000700010000000000
000700020000000000
0003001FFFFFFC0000
0003001FFFFF800000
0001001FFF80000000
000000100000000000
000000100000000008
000000200000000008
000000400000000008
000000800000000008
000003000000000008
000004000000000008
000008000000000010
000010000000000010
0FFFE0000000000010
300FF8000000000030
6000FE000000000020
60013F800000000060
E0020FE00000000040
E00403F80000000080
F00801FE0000000180
7830007F8000000700
1FC0001FF000000E00
00000007FE00003C00
00000001FFE003F800
000000007FFFFFE000
000000001FFFFF8000
0000000003FFFE0000
00000000003FF00000
ENDCHAR
STARTCHAR 00CC
ENCODING 204
SWIDTH 369 0
DWIDTH 31 0
BBX 54 64 -1 0
BITMAP
00000000000040
000000000000C0
000000000000E0
00000000000060
00000000000030
00000000000030
00000000000018
00000000000008
00000000000008
00000000000004
00000000000000
00000000000000
00000000000000
0000000000003C
0000000000007C
0000000000019C
0000000000021C
00000000000218
00000000000430
000000000008C0
00000000001F00
00000000007000
0000000003B000
000000001C6000
00000000E06000
0000000300C000
0000000C01C000
00000038018000
000000E0038000
000001C0070000
00000380070000
000007000E0000
00000F001E0000
00000E001C0000
00000E003C0000
00000E00380000
00000E00780000
00000600700000
00000200F00000
00000000E00000
00000001E00000
00000003C00000
00000003C00000
00000007800000
00000007800000
0000000F000000
0000000E000000
0000001E000000
0000003C000000
00000038000000
00000078000000
00000070000000
000000E0000000
000001C0000000
00000380000000
00000300000000
00000600000000
00000C00000000
00001800000000
40002000000000
F0008000000000
FF070000000000
FFF80000000000
3FE00000000000
ENDCHAR
STARTCHAR 00CD
ENCODING 205
SWIDTH 369 0
DWIDTH 31 0
BBX 58 60 -1 1
BITMAP
00000000000000C0
0000000000000180
0000000000000600
0000000000000C00
0000000000001800
0000000000002000
000000000000C000
0000000000018000
0000000000020000
0000000000043C00
0000000000007C00
0000000000019C00
0000000000021C00
0000000000021800
0000000000043000
000000000008C000
00000000001F0000
0000000000700000
0000000003B00000
000000001C600000
00000000E0600000
0000000300C00000
0000000C01C00000
0000003801800000
000000E003800000
000001C007000000
0000038007000000
000007000E000000
00000F001E000000
00000E001C000000
00000E003C000000
00000E0038000000
00000E0078000000
0000060070000000
00000200F0000000
00000000E0000000
00000001E0000000
00000003C0000000
00000003C0000000
0000000780000000
0000000780000000
0000000F00000000
0000000E00000000
0000001E00000000
0000003C00000000
0000003800000000
0000007800000000
0000007000000000
000000E000000000
000001C000000000
0000038000000000
0000030000000000
0000060000000000
00000C0000000000
0000180000000000
4000200000000000
F000800000000000
FF07000000000000
FFF8000000000000
3FE0000000000000
ENDCHAR
STARTCHAR 00CE
ENCODING 206
SWIDTH 369 0
DWIDTH 31 0
BBX 57 64 -1 0
BITMAP
0000000000000080
0000000000000380
0000000000000580
0000000000000980
0000000000001180
0000000000002180
0000000000004180
0000000000008180
0000000000010180
0000000000020180
0000000000000100
0000000000000000
0000000000000000
0000000000003C00
0000000000007C00
0000000000019C00
0000000000021C00
0000000000021800
0000000000043000
000000000008C000
00000000001F0000
0000000000700000
0000000003B00000
000000001C600000
00000000E0600000
0000000300C00000
0000000C01C00000
0000003801800000
000000E003800000
000001C007000000
0000038007000000
000007000E000000
00000F001E000000
00000E001C000000
00000E003C000000
00000E0038000000
00000E0078000000
0000060070000000
00000200F0000000
00000000E0000000
00000001E0000000
00000003C0000000
00000003C0000000
0000000780000000
0000000780000000
0000000F00000000
0000000E00000000
0000001E00000000
0000003C00000000
0000003800000000
0000007800000000
0000007000000000
000000E000000000
000001C000000000
0000038000000000
0000030000000000
0000060000000000
00000C0000000000
0000180000000000
4000200000000000
F000800000000000
FF07000000000000
FFF8000000000000
3FE0000000000000
ENDCHAR
STARTCHAR 00CF
ENCODING 207
SWIDTH 369 0
DWIDTH 31 0
BBX 57 58 -1 0
BITMAP
000000000000E380
000000000000E380
000000000001E780
0000000000018600
0000000000000000
0000000000000000
0000000000000000
000000000000E000
000000000001E000
0000000000032000
0000000000062000
0000000000044000
0000000000088000
0000000000190000
00000000001E0000
0000000000700000
0000000007E00000
0000000018600000
00000000E0C00000
0000000301C00000
0000000C01800000
0000003803800000
000000E007000000
000001C007000000
000003800E000000
000007000E000000
00000F001C000000
00000E003C000000
00000E0038000000
00000E0078000000
00000E0070000000
00000600F0000000
00000200E0000000
00000001E0000000
00000001C0000000
00000003C0000000
0000000380000000
0000000780000000
0000000F00000000
0000000F00000000
0000001E00000000
0000001C00000000
0000003C00000000
0000003800000000
0000007000000000
000000E000000000
000000E000000000
000001C000000000
0000038000000000
0000070000000000
0000060000000000
00000C0000000000
0000100000000000
4000600000000000
F000800000000000
FF07000000000000
FFF8000000000000
3FC0000000000000
ENDCHAR
STARTCHAR 00D0
ENCODING 208
SWIDTH 892 0
DWIDTH 75 0
BBX 74 59 4 1
BITMAP
00000000000000C00000
00000000000001000000
00000000000006000000
0000000000000C000000
0000000000001C000000
00000000000038000000
00000000000070000000
000000000000F0000000
000000000000E0000000
000000000001E0000000
000000000001C0000000
000000000003C0000000
00000000000380000000
0000000007FFFF000000
00000000F80701F80000
0000000F000F001E0000
00000078000E00078000
000001E0001E0001E000
00000780001C0000F000
00000E00003C00007800
00001C00003800003C00
00007800007800003E00
0000F000007000001F00
0000E00000F000000F00
0001C00000E000000F80
0003C00001E000000F80
0003800001C000000780
0007800003C0000007C0
000700000380000007C0
000300000780000007C0
000100000700000007C0
000000000F00000007C0
000000000E00000007C0
000000001E00000007C0
000000001C00000007C0
000000003C00000007C0
000000003800000007C0
0000003FFFFFC0000F80
00000000E00000000F80
00000000E00000000F80
0C000001C00000000F00
1E000003800000001F00
1F000003800000001E00
3F000007000000003E00
3F80000E000000003C00
6FC0000C000000007C00
47E0001C000000007800
43F0003800000000F000
41F8007000000001E000
C0FC00E000000003C000
C03E0080000000078000
C01F81000000000F0000
C00FC2000000001E0000
E003FC00000000380000
E001FC00000000F00000
70007F80000003800000
78008FF000001E000000
3E0701FFC001F0000000
0FF80007FFFE00000000
ENDCHAR
STARTCHAR 00D1
ENCODING 209
SWIDTH 797 0
DWIDTH 67 0
BBX 76 66 3 -9
BITMAP
00000000000001C00000
00000000000003E01000
00000000000004701000
00000000000008382000
000000000000101C6000
000000000000200FC000
00000000000000070000
00000000000000000000
00000000000000000000
00000000000000000000
00000000000000001F80
0000000000000000FFC0
0000000000000003FFE0
000000000000000E07F0
000000000000003001F0
00000000000000C001F0
000000000000010000F0
000000000000060000F0
000000000F00080000F0
000000007F00300000E0
00000003FF00400000E0
0000000E1F00800001C0
000000381E03000001C0
000000E01E0400000380
000001801C0800000300
000006001C1000000600
00001800382000000C00
00003000304000000C00
00004000708000001800
00018000610000003000
00030000620000006000
00060000C4000000C000
000C0000880000018000
00380001900000030000
00700003200000060000
00E000034000000C0000
01C00006800000180000
01800005000000300000
0300000E000000600000
0700001C000000C00000
0E000018000001800000
0C000038000003000000
1C000070000007000000
3800006000000E000000
380000C000001C000000
380001C0000038000000
70000180000070000000
700003000000E0000000
700007000001C0000000
E0000E000003C0000000
E0000E00000780000000
E0001C00000700000000
E0003C00000F00000000
E0003800001E00000000
E0007800001E00000000
60007000003C00000000
60002000003C00000000
60000000007C00000000
30000000007C00000000
30000000007C00000000
18000000007C00003000
08000000007E0000C000
04000000003E00070000
02000000003F80780000
01800000001FFFC00000
007000000007FC000000
ENDCHAR
STARTCHAR 00D2
ENCODING 210
SWIDTH 595 0
DWIDTH 50 0
BBX 53 59 5 1
BITMAP
000000000C0000
000000000C0000
00000000060000
00000000060000
00000000020000
00000000030000
00000000010000
00000000008000
00000000008000
00000000000000
00000000000000
00000000000000
0000000001FE00
000000000E0780
000000007001E0
0000000FC000E0
00000073800070
00000187000070
0000060E000038
0000180E000038
0000301C000038
0000C01C000038
00018038000038
00030038000038
00060038000038
000C0038000030
00180018000030
00380000000070
00700000000060
00E00000000060
01E000000000C0
03C000000000C0
03800000000080
07800000000180
0F000000000100
0F000000000300
1E000000000200
1E000000000400
3E000000000C00
3C000000000800
7C000000001000
7C000000002000
78000000004000
78000000004000
F8000000008000
F8000000010000
F8000000020000
F8000000040000
F8000000080000
F8000000300000
FC000000400000
FC000000800000
7C000003000000
7E000004000000
3F000018000000
1F800060000000
0FE00380000000
07FFFC00000000
00FF8000000000
ENDCHAR
STARTCHAR 00D3
ENCODING 211
SWIDTH 595 0
DWIDTH 50 0
BBX 53 61 5 1
BITMAP
00000000000018
00000000000070
000000000000C0
00000000000180
00000000000200
00000000000C00
00000000001800
00000000002000
00000000004000
00000000018000
00000000000000
00000000000000
00000000000000
00000000000000
0000000001FE00
000000000E0780
000000007001E0
0000000FC000E0
00000073800070
00000187000070
0000060E000038
0000180E000038
0000301C000038
0000C01C000038
00018038000038
00030038000038
00060038000038
000C0038000030
00180018000030
00380000000070
00700000000060
00E00000000060
01E000000000C0
03C000000000C0
03800000000080
07800000000180
0F000000000100
0F000000000300
1E000000000200
1E000000000400
3E000000000C00
3C000000000800
7C000000001000
7C000000002000
78000000004000
78000000004000
F8000000008000
F8000000010000
F8000000020000
F8000000040000
F8000000080000
F8000000300000
FC000000400000
FC000000800000
7C000003000000
7E000004000000
3F000018000000
1F800060000000
0FE00380000000
07FFFC00000000
00FF8000000000
ENDCHAR
STARTCHAR 00D4
ENCODING 212
SWIDTH 595 0
DWIDTH 50 0
BBX 53 60 5 1
BITMAP
00000000000180
00000000000380
00000000000580
00000000000980
00000000001180
00000000002180
0000000000C180
00000000010180
00000000030180
00000000000180
00000000000000
00000000000000
00000000000000
0000000001FE00
000000000E0780
000000007001E0
0000000FC000E0
00000073800070
00000187000070
0000060E000038
0000180E000038
0000301C000038
0000C01C000038
00018038000038
00030038000038
00060038000038
000C0038000030
00180018000030
00380000000070
00700000000060
00E00000000060
01E000000000C0
03C000000000C0
03800000000080
07800000000180
0F000000000100
0F000000000300
1E000000000200
1E000000000400
3E000000000C00
3C000000000800
7C000000001000
7C000000002000
78000000004000
78000000004000
F8000000008000
F8000000010000
F8000000020000
F8000000040000
F8000000080000
F8000000300000
FC000000400000
FC000000800000
7C000003000000
7E000004000000
3F000018000000
1F800060000000
0FE00380000000
07FFFC00000000
00FF8000000000
ENDCHAR
STARTCHAR 00D5
ENCODING 213
SWIDTH 595 0
DWIDTH 50 0
BBX 53 56 5 0
BITMAP
00000000038000
0000000007C020
0000000018F020
00000000207840
00000000403F80
00000000000F00
00000000000000
00000000000000
00000000000000
0000000001FE00
000000000E0780
000000007001E0
0000000FC000E0
00000073800070
00000187000070
0000060E000038
0000180E000038
0000301C000038
0000C01C000038
00018038000038
00030038000038
00060038000038
000C0038000030
00180018000030
00380000000070
00700000000060
00E00000000060
01E000000000C0
03C000000000C0
03800000000080
07800000000180
0F000000000100
0F000000000300
1E000000000200
1E000000000400
3E000000000C00
3C000000000800
7C000000001000
7C000000002000
78000000004000
78000000004000
F8000000008000
F8000000010000
F8000000020000
F8000000040000
F8000000080000
F8000000300000
FC000000400000
FC000000800000
7C000003000000
7E000004000000
3F000018000000
1F800060000000
0FE00380000000
07FFFC00000000
00FF8000000000
ENDCHAR
STARTCHAR 00D6
ENCODING 214
SWIDTH 595 0
DWIDTH 50 0
BBX 52 54 5 0
BITMAP
00000000001C70
00000000001C70
00000000003CF0
000000000030C0
00000000000000
00000000000000
00000000000000
0000000001FC00
000000000E0300
000000007000C0
0000000FC00060
00000033800020
000001C7000030
0000060E000010
0000080E000010
0000301C000010
0000401C000010
00018038000010
00030038000010
00060038000010
000C0038000020
00180018000020
00380000000020
00700000000040
00E00000000040
01E00000000080
01C00000000080
03800000000080
07800000000100
0F000000000100
0F000000000200
1E000000000200
1E000000000400
3E000000000800
3C000000000800
7C000000001000
7C000000002000
78000000004000
78000000004000
F8000000008000
F8000000010000
F8000000020000
F8000000040000
F8000000080000
F8000000100000
FC000000600000
FC000000800000
7C000001000000
7E000006000000
3F000018000000
1F800060000000
0FE00380000000
07FFFC00000000
00FF8000000000
ENDCHAR
STARTCHAR 00D7
ENCODING 215
SWIDTH 404 0
DWIDTH 34 0
BBX 21 15 9 3
BITMAP
00C000
00C078
00C0E0
00C380
00C700
00DC00
00F800
00E000
01C000
036000
0E6000
1C6000
702000
E03000
C03000
ENDCHAR
STARTCHAR 00D8
ENCODING 216
SWIDTH 595 0
DWIDTH 50 0
BBX 55 56 4 -5
BITMAP
00000000000002
00000000000004
00000000000018
00000000000030
000000000FFFE0
00000003FE00B0
0000001DF00138
000000E3E00238
00000107C0041C
0000060780081C
0000080F00101C
0000300E00201C
0000600E00401C
0000C01C00801C
0001801C01001C
0003001C02001C
0006000C040018
000C0004080038
001C0000100038
00380000200030
00700000400030
00700000800060
00E00001000060
01E000020000C0
01C000040000C0
03C00004000080
07800008000180
07800010000100
0F000020000300
0F000040000600
1F000080000400
1E000100000800
1E000200001800
3E000400001000
3E000800002000
3C001000004000
7C002000008000
7C004000010000
7C008000010000
7C010000020000
7C020000080000
7C040000100000
7C0C0000200000
7C180000400000
7E100001800000
3E200002000000
3E40000C000000
1F800030000000
1FC001C0000000
0FFFFE00000000
0FFFE000000000
18000000000000
30000000000000
60000000000000
C0000000000000
80000000000000
ENDCHAR
STARTCHAR 00D9
ENCODING 217
SWIDTH 857 0
DWIDTH 72 0
BBX 77 64 4 -6
BITMAP
00000000000000800000
00000000000001800000
00000000000000800000
00000000000000C00000
00000000000000400000
00000000000000600000
00000000000000200000
00000000000000200000
00000000000000100000
00000000000000100000
00000000000000000000
000000007F0000000038
00000003FFC000000070
0000001C0FE000000070
0000006003E0000000E0
0000008003E0000001C0
0000030001E000000180
00000C0001E000000300
0000100001E000000600
0000200001C000000C00
0000C00001C000000800
00010000018000001000
00020000038000003000
00040000030000002000
00080000070000004000
00100000060000008000
002000000C0000008000
002000001C0000030000
00400000180000030000
00800000300000060000
008000003000001E0000
010000006000002C0000
02000000C00000480000
02000000C00000980000
04000001800001180000
0C000003000002300000
08000003000004300000
18000006000008600000
1800000C000010600000
3000001C000020C00000
30000018000040C00000
30000030000081C00000
70000070000101800000
60000060000203800000
600000E0000403800000
600001C0001803800000
E0000180002007000000
E0000380004007000080
E0000780008007000080
E0000700030007000100
E00007000C000F000100
E0000F0010000F000100
E0000F0060000F000200
E0000F8180000F000200
70000FFE00000F000400
70000FF800000F800400
300003C000000F800800
38000000000007C01000
18000000000007E02000
0C000000000007F0C000
06000000000003FF0000
03000000000000FC0000
00C00000000000000000
003C0000000000000000
ENDCHAR
STARTCHAR 00DA
ENCODING 218
SWIDTH 857 0
DWIDTH 72 0
BBX 77 64 4 -6
BITMAP
00000000000000000C00
00000000000000003800
00000000000000006000
0000000000000000C000
00000000000000018000
00000000000000020000
000000000000000C0000
00000000000000100000
00000000000000200000
00000000000000400000
00000000000000000000
000000007F0000000038
00000003FFC000000070
0000001C0FE000000070
0000006003E0000000E0
0000008003E0000001C0
0000030001E000000180
00000C0001E000000300
0000100001E000000600
0000200001C000000C00
0000C00001C000000800
00010000018000001000
00020000038000003000
00040000030000002000
00080000070000004000
00100000060000008000
002000000C0000008000
002000001C0000030000
00400000180000030000
00800000300000060000
008000003000001E0000
010000006000002C0000
02000000C00000480000
02000000C00000980000
04000001800001180000
0C000003000002300000
08000003000004300000
18000006000008600000
1800000C000010600000
3000001C000020C00000
30000018000040C00000
30000030000081C00000
70000070000101800000
60000060000203800000
600000E0000403800000
600001C0001803800000
E0000180002007000000
E0000380004007000080
E0000780008007000080
E0000700030007000100
E00007000C000F000100
E0000F0010000F000100
E0000F0060000F000200
E0000F8180000F000200
70000FFE00000F000400
70000FF800000F800400
300003C000000F800800
38000000000007C01000
18000000000007E02000
0C000000000007F0C000
06000000000003FF0000
03000000000000FC0000
00C00000000000000000
003C0000000000000000
ENDCHAR
STARTCHAR 00DB
ENCODING 219
SWIDTH 857 0
DWIDTH 72 0
BBX 76 64 4 -6
BITMAP
00000000000000010000
00000000000000070000
000000000000000B0000
00000000000000130000
00000000000000230000
00000000000000C30000
00000000000001030000
00000000000002030000
00000000000004030000
00000000000008030000
00000000000000020000
000000007F0000000030
00000003FFC000000070
0000001C0FE0000000E0
0000006003E0000000E0
0000008003E0000001C0
0000030001E000000380
00000C0001E000000300
0000100001E000000600
0000200001C000000C00
0000C00001C000000800
00010000018000001000
00020000038000002000
00040000030000002000
00080000070000004000
00100000060000008000
002000000C0000018000
002000001C0000030000
00400000180000070000
008000003000000E0000
00800000300000140000
010000006000002C0000
02000000C00000480000
02000000C00000980000
04000001800001380000
0C000003000002300000
08000003000004700000
18000006000008600000
1800000C000010600000
3000001C000020C00000
30000018000040C00000
30000030000081C00000
70000070000101800000
60000060000203800000
600000E0000C03800000
600001C0001003800000
E0000180002007000000
E0000380004007000000
E0000780018007000100
E0000700020007000100
E00007000C000F000100
E0000F0010000F000200
E0000F0060000F000200
E0000F8180000F000200
70000FFE00000F000400
70000FF800000F800800
300007C000000F800800
38000000000007C01000
18000000000007C02000
0C000000000007F0C000
06000000000003FF0000
03000000000000FC0000
00C00000000000000000
003C0000000000000000
ENDCHAR
STARTCHAR 00DC
ENCODING 220
SWIDTH 857 0
DWIDTH 72 0
BBX 76 62 4 -7
BITMAP
000000000000070E0000
000000000000070E0000
0000000000000F1E0000
0000000000000C180000
00000000000000000000
00000000000000000000
00000000000000000000
00000000000000000000
00000000000000000000
000000007F0000000030
00000003FFC000000070
0000001C0FE0000000E0
0000006003E0000000C0
0000008003E0000001C0
0000030001E000000380
00000C0001E000000700
0000100001E000000600
0000200001C000000C00
0000C00001C000001800
00010000018000001000
00020000038000002000
00040000030000006000
00080000070000004000
00100000060000008000
002000000C0000018000
002000001C0000030000
00400000180000060000
008000003000000E0000
008000003000001C0000
010000006000002C0000
02000000C00000580000
02000000C00000980000
04000001800001300000
0C000003000002300000
08000003000004700000
18000006000008600000
1800000C000010E00000
3000001C000020C00000
30000018000040C00000
30000030000081C00000
70000070000101800000
60000060000603800000
600000E0000803800000
600001C0001003800000
E0000180002007000000
E0000380004007000000
E0000780018007000100
E0000700020007000100
E00007000C000F000100
E0000F0010000F000200
E0000F0060000F000200
E0000F8180000F000400
70000FFE00000F000400
70000FF800000F800800
300007C000000F801000
38000000000007C01000
18000000000007C02000
0C000000000007F0C000
06000000000003FF0000
03000000000000FC0000
00C00000000000000000
003C0000000000000000
ENDCHAR
STARTCHAR 00DD
ENCODING 221
SWIDTH 571 0
DWIDTH 48 0
BBX 77 85 -8 -24
BITMAP
00000000000000004000
0000000000000000C000
00000000000000018000
00000000000000030000
00000000000000040000
00000000000000180000
00000000000000300000
00000000000000400000
00000000000000800000
00000000000003000038
000000000000040000C8
00000000000000000108
00000000000000000208
00000000000000000618
000000003E0000000C10
00000000C70000000830
00000003038000001020
00000004038000003040
000000080380000060C0
00000010038000006180
0000002003800000C100
00000040078000018200
00000080070000018400
00000100070000030800
000002000F0000071000
000004000E0000063000
000000001E00000E6000
000000001C00001CC000
000000003C0000188000
000000003C0000390000
00000000780000320000
00000000780000740000
00000000F00000680000
00000000F00000F00000
00000000E00001E00000
00000001E00001C00000
00000001C00003800000
00000003C00003800000
00000003C00007000000
0000000380000F000000
0000000780001E000000
0000000780003E000000
000000070000DC000000
0000000700013C000000
00000007000638000000
00000007001870000000
00000007006070000000
000000038380E0000000
00000001FC00E0000000
000000000001C0000000
000000000003C0000000
00000000000380000000
00000000000780000000
00000000000700000000
00000000000E00000000
00000000000E00000000
00000000001C00000000
00000000001C00000000
00000000003800000000
00000000003000000000
00000000007000000000
0000000000E000000000
0000000000C000000000
0000000001C000000000
00000000018000000000
00000000030000000000
00000000070000000000
00000000060000000000
000000000C0000000000
00000000180000000000
00000000100000000000
80000000300000000000
80000000600000000000
80000000C00000000000
C0000001800000000000
C0000003000000000000
C0000006000000000000
E0000008000000000000
70000010000000000000
70000020000000000000
7C0000C0000000000000
3E000300000000000000
1FC03C00000000000000
0FFFE000000000000000
01FE0000000000000000
ENDCHAR
STARTCHAR 00DE
ENCODING 222
SWIDTH 535 0
DWIDTH 45 0
BBX 53 62 2 0
BITMAP
00000000000600
00000000000800
00000000003000
00000000004000
0000000000C000
00000000018000
00000000030000
00000000070000
000000000E0000
000000000E0000
000000001C0000
000000001C0000
00000000380000
00000000380000
00000000700000
00000000E00000
0000000FFF8000
000003F1E1FC00
00003C01C01F00
0001C0038007C0
000600038003E0
003800070001F0
00E000070000F8
01C00006000078
0380000E000078
0F00000C000078
1E00001C000078
1C000018000038
3C000038000038
38000030000078
78000070000078
78000060000070
780000E0000070
780000C0000060
380001C00000E0
000001800000C0
00000380000180
00000300000100
00000600000200
00000610000400
00000478001800
00000C7C006000
0000083F838000
0000181FFE0000
00001003E00000
00003000000000
00002000000000
00006000000000
0000C000000000
00008000000000
00018000000000
00010000000000
00020000000000
00020000000000
00040000000000
00080000000000
00100000000000
00600000000000
01800003000000
7FFF007C000000
7FFFFFF0000000
FFFFFF80000000
ENDCHAR
STARTCHAR 00DF
ENCODING 223
SWIDTH 250 0
DWIDTH 21 0
BBX 81 85 -38 -38
BITMAP
0000000000000000007E00
0000000000000000038700
00000000000000000C0380
0000000000000000100380
0000000000000000200380
0000000000000000C00380
0000000000000001800300
0000000000000001000300
0000000000000003000700
0000000000000006000600
000000000000000C000C00
0000000000000018000800
0000000000000018001800
0000000000000030003000
0000000000000070006000
00000000000000E000C000
00000000000000C0018000
00000000000001C0030000
0000000000000180040000
0000000000000380080000
0000000000000700100000
0000000000000700200000
0000000000000E00C00000
0000000000000C01000000
0000000000001C02000000
000000000000180C000000
0000000000003810000000
0000000000003060000000
0000000000007080000000
000000000000E300000000
000000000000E600000000
000000000001CE00000000
000000000001CE00000000
0000000000038E00000000
0000000000038E00000000
0000000000070E00000000
0000000000070E00000000
00000000000E0E00000000
00000000000C0E00000000
00000000001C0E00000000
0000000000180E00000000
0000000000380E00000000
0000000001F00E00000000
0000000003F00C00000000
0000000004781800000000
00000000187FF000000000
0000000000FFC000000000
0000000000C00000000000
0000000001C00000000000
0000000001800000000000
0000000003800000000000
0000000003000000000000
0000000006000000000000
0000000006000000000000
000000000C000000000000
000000000C000000000000
0000000018000000000000
0000000010000000000000
0000000030000000000000
0000000060000000000000
0000000060000000000000
00000000C0000000000000
0000000080000000000000
0000000180000000000000
0000000300000000000000
0000000200000000000000
0000000400000000000000
0000000C00000000000000
0000001800000000000000
0000001000000000000000
0000002000000000000000
0000006000000000000000
000000C000000000000000
0000018000000000000000
0000010000000000000000
0000020000000000000000
0000040000000000000000
0000180000000000000000
0000300000000000000000
0000600000000000000000
6001800000000000000000
6003000000000000000000
F81C000000000000000000
7FF0000000000000000000
3F80000000000000000000
ENDCHAR
STARTCHAR 00E0
ENCODING 224
SWIDTH 261 0
DWIDTH 22 0
BBX 25 37 2 -4
BITMAP
00200000
00300000
00300000
00100000
00180000
00080000
000C0000
00040000
00040000
00020000
00000000
00000000
00006000
0000E000
0000C000
0007C000
00198000
00238000
00430000
00870000
01070000
020E0000
061E0000
0C2C0000
184C0000
385C0080
30980100
71180100
62100200
E2100400
E4300800
F8301000
E0202000
00202000
0020C000
00310000
001E0000
ENDCHAR
STARTCHAR 00E1
ENCODING 225
SWIDTH 261 0
DWIDTH 22 0
BBX 26 37 2 -3
BITMAP
000000C0
00000180
00000300
00000600
00000800
00003000
00006000
00008000
00030000
00040000
00080000
00000000
00001800
00003000
00007000
0001E000
00066000
0018C000
0020C000
00C18000
01838000
03030000
060B0000
0C0E0000
1C160000
182C0080
304C0100
70480100
60980200
E1100400
E6100800
F8301000
F0202000
00202000
0020C000
00310000
001E0000
ENDCHAR
STARTCHAR 00E2
ENCODING 226
SWIDTH 261 0
DWIDTH 22 0
BBX 25 38 2 -4
BITMAP
00000200
00000E00
00001600
00002600
0000C600
00010600
00020600
00040600
00180600
00200600
00000400
00000000
00000000
00001E00
00001C00
00003800
0001F800
00067000
0018E000
0020E000
0041C000
0183C000
03038000
06070000
0C1F0000
0C1E0000
182E0080
304C0100
709C0100
61180200
E2180400
E4100800
F8301000
E0202000
00202000
0020C000
00310000
001E0000
ENDCHAR
STARTCHAR 00E3
ENCODING 227
SWIDTH 261 0
DWIDTH 22 0
BBX 26 35 2 -4
BITMAP
00070000
000F8040
0011C040
0020E080
00407100
00803E00
00000000
00000000
00000000
00000000
00001800
00003800
00003000
0001F000
00066000
0018C000
0020C000
00418000
01838000
03030000
06070000
0E0E0000
0C160000
182C0040
302C0080
70480100
60980200
E1100200
E6100400
F8300800
F0201000
00202000
00204000
00318000
001E0000
ENDCHAR
STARTCHAR 00E4
ENCODING 228
SWIDTH 261 0
DWIDTH 22 0
BBX 25 34 2 -4
BITMAP
00038E00
00038E00
00079E00
00061800
00000000
00000000
00000000
00000000
00000000
00000E00
00000C00
00001800
0000F800
00031000
000C2000
00186000
00604000
00C0C000
01818000
03030000
06070000
0C0E0000
18160080
382C0100
304C0100
60980200
E1180400
E2100800
FC301000
F0202000
00202000
0020C000
00310000
001E0000
ENDCHAR
STARTCHAR 00E5
ENCODING 229
SWIDTH 261 0
DWIDTH 22 0
BBX 25 38 2 -4
BITMAP
0000FC00
00010600
00020200
00040200
00040200
00040200
00040400
00020800
0001F000
00000000
00000000
00000000
00000000
00000E00
00001C00
00001800
0000F800
00073000
00086000
0030E000
0060C000
00C1C000
01838000
03070000
060B0000
0C160000
18160080
302C0100
304C0100
60980200
E1180400
E6100800
F8301000
F0202000
00202000
0020C000
00310000
001E0000
ENDCHAR
STARTCHAR 00E6
ENCODING 230
SWIDTH 297 0
DWIDTH 25 0
BBX 30 19 2 0
BITMAP
0003F180
000FE380
00386380
0060C380
00C18300
01818200
03030400
06070800
0C0E1000
0C0E6004
181D8008
303E0010
30780020
70B80040
61380180
62380600
E43C1C00
F83FF000
E01F8000
ENDCHAR
STARTCHAR 00E7
ENCODING 231
SWIDTH 214 0
DWIDTH 18 0
BBX 23 29 2 -11
BITMAP
0003C0
000FE0
0031E0
00C0E0
0100C0
010000
020002
040004
0C0008
0C0010
180010
180060
380080
380100
380200
3C0C00
1E3000
0FC000
040000
180000
380000
3E0000
1F0000
070000
060000
040000
100000
200000
800000
ENDCHAR
STARTCHAR 00E8
ENCODING 232
SWIDTH 238 0
DWIDTH 20 0
BBX 26 33 4 1
BITMAP
00800000
00C00000
00C00000
00600000
00200000
00200000
00100000
00100000
00100000
00080000
00000000
00000000
00000000
00000000
00070000
007F0000
00C70000
01860000
03060000
060C01C0
0C187E00
1C2F8000
18D00000
38000000
30000000
70000000
70000000
E0000000
E0000000
E0000000
E0000000
70000000
3FE00000
ENDCHAR
STARTCHAR 00E9
ENCODING 233
SWIDTH 238 0
DWIDTH 20 0
BBX 26 34 4 0
BITMAP
00000400
00000C00
00001800
00003000
00004000
00018000
00030000
00040000
00080000
00300000
00400000
00000000
00000000
00000000
00000000
00070000
007F0000
00C70000
01860000
03060000
060C01C0
0C187E00
1C2F8000
18D00000
38000000
30000000
70000000
70000000
E0000000
E0000000
E0000000
E0000000
70000000
3FE00000
ENDCHAR
STARTCHAR 00EA
ENCODING 234
SWIDTH 238 0
DWIDTH 20 0
BBX 26 33 4 1
BITMAP
00003000
00007000
0000B000
00013000
00023000
00043000
00083000
00103000
00603000
00403000
00000000
00000000
00000000
00000000
00070000
007F0000
00C70000
01860000
03060000
060C01C0
0C187E00
1C2F8000
18D00000
38000000
30000000
70000000
70000000
E0000000
E0000000
E0000000
E0000000
70000000
3FE00000
ENDCHAR
STARTCHAR 00EB
ENCODING 235
SWIDTH 238 0
DWIDTH 20 0
BBX 26 30 4 0
BITMAP
0038E000
0038E000
0079E000
00618000
00000000
00000000
00000000
00000000
00000000
00000000
00000000
00070000
00390000
00E10000
01C20000
03820000
070401C0
0E087E00
0C1F8000
1C200000
38000000
38000000
70000000
70000000
E0000000
E0000000
E0000000
E0000000
70000000
1FF00000
ENDCHAR
STARTCHAR 00EC
ENCODING 236
SWIDTH 166 0
DWIDTH 14 0
BBX 19 32 4 1
BITMAP
030000
030000
010000
018000
008000
00C000
004000
004000
002000
000000
000000
000000
000000
000000
0FC000
138000
038000
070000
060000
0E0000
0C0000
1C0020
180040
300080
300100
700200
600400
E00800
E03000
E04000
F18000
7E0000
ENDCHAR
STARTCHAR 00ED
ENCODING 237
SWIDTH 166 0
DWIDTH 14 0
BBX 20 33 4 1
BITMAP
000030
000060
000180
000300
000600
000800
001000
006000
008000
010000
000000
000000
000000
000000
000000
0FC000
138000
038000
070000
060000
0E0000
0C0000
1C0020
180040
300080
300100
700200
600400
E00800
E03000
E04000
F18000
7E0000
ENDCHAR
STARTCHAR 00EE
ENCODING 238
SWIDTH 166 0
DWIDTH 14 0
BBX 19 33 4 0
BITMAP
000200
000600
000E00
003600
004600
008600
010600
020600
040600
080600
000400
000000
000000
000000
000000
0FC000
138000
038000
070000
060000
0E0000
0C0000
1C0020
180040
380080
300100
700200
600400
E00800
E03000
E04000
F18000
7E0000
ENDCHAR
STARTCHAR 00EF
ENCODING 239
SWIDTH 166 0
DWIDTH 14 0
BBX 19 30 4 0
BITMAP
01C700
01C700
03CF00
030C00
000000
000000
000000
000000
000000
000000
000000
000000
0FC000
138000
038000
070000
070000
0E0000
0C0000
1C0020
180040
380080
300100
700200
600400
E00800
E03000
E04000
F18000
7E0000
ENDCHAR
STARTCHAR 00F0
ENCODING 240
SWIDTH 238 0
DWIDTH 20 0
BBX 21 58 1 -2
BITMAP
C00000
C00000
600000
700000
700000
380000
1C0000
1C0000
0E0000
0E0000
070000
070000
038000
038000
01C000
00C000
00E000
006000
007000
003038
0039F0
001F00
00F800
078C00
0C0C00
000E00
000600
000600
000300
000300
000100
000180
000080
000080
000080
000040
000040
000040
0001C0
000240
000440
001840
003040
007040
006040
00C040
01C040
0180C0
038080
038080
070180
070100
070300
060200
0E0400
060800
073000
07C000
ENDCHAR
STARTCHAR 00F1
ENCODING 241
SWIDTH 261 0
DWIDTH 22 0
BBX 26 34 2 -3
BITMAP
00070000
000F8040
0010C040
00206080
00403880
00401F00
00000000
00000000
00000000
00000000
00000000
00000000
00000000
00C0C000
03C3C000
00C5C000
00D9C000
01A18000
01C38000
03830000
03060000
03060000
060C0000
040C0040
0C180080
0C180100
18300200
18300400
30601800
30602000
70E04000
60E18000
E0FE0000
C0700000
ENDCHAR
STARTCHAR 00F2
ENCODING 242
SWIDTH 238 0
DWIDTH 20 0
BBX 28 34 3 0
BITMAP
00100000
00300000
00380000
001C0000
000C0000
00060000
00060000
00030000
00010000
00008000
00000000
00000000
00000000
00000000
00000000
000F0010
00798020
01B080C0
02208100
04208600
04209800
08217000
183FC000
103F8000
30010000
70030000
60020000
E0040000
E0080000
E0100000
E0200000
E0400000
F1800000
7E000000
ENDCHAR
STARTCHAR 00F3
ENCODING 243
SWIDTH 238 0
DWIDTH 20 0
BBX 28 34 3 1
BITMAP
00000180
00000300
00000600
00001800
00003000
00004000
00018000
00020000
00040000
00180000
00200000
00000000
00000000
00000000
00000000
000F0010
00798020
01B080C0
02208100
04208600
04209800
08216000
183F8000
103D0000
30020000
70040000
60040000
E0080000
E0100000
E0200000
E0600000
E0800000
F3000000
7C000000
ENDCHAR
STARTCHAR 00F4
ENCODING 244
SWIDTH 238 0
DWIDTH 20 0
BBX 28 34 3 0
BITMAP
00000800
00001800
00007800
00009800
00011800
00021800
00041800
00081800
00101800
00201800
00001000
00000000
00000000
00000000
00000000
000F0010
00798020
01B080C0
02208100
04208600
04209800
08216000
183F8000
103D0000
30020000
70040000
60040000
E0080000
E0100000
E0200000
E0600000
E0800000
F3000000
7C000000
ENDCHAR
STARTCHAR 00F5
ENCODING 245
SWIDTH 238 0
DWIDTH 20 0
BBX 28 31 3 0
BITMAP
000E0000
001F0080
00238080
0041C100
0080E200
01007C00
00000000
00000000
00000000
00000000
00000000
00000000
000F0010
00798020
01B080C0
02208100
04208600
04209800
08216000
183F8000
103D0000
30020000
70040000
60040000
E0080000
E0100000
E0200000
E0600000
E0800000
F3000000
7C000000
ENDCHAR
STARTCHAR 00F6
ENCODING 246
SWIDTH 238 0
DWIDTH 20 0
BBX 29 30 3 0
BITMAP
00038E00
00038E00
00079E00
00061800
00000000
00000000
00000000
00000000
00000000
00000000
00000000
000F0008
00798030
01B080C0
02208100
04208600
04209800
08216000
183F8000
103F0000
30020000
70020000
60040000
E0080000
E0100000
E0100000
E0200000
E0C00000
F3000000
7C000000
ENDCHAR
STARTCHAR 00F7
ENCODING 247
SWIDTH 404 0
DWIDTH 34 0
BBX 19 15 12 3
BITMAP
001800
003800
003000
000000
000000
000000
FFFFE0
FFFFC0
000000
000000
000000
000000
060000
0E0000
0C0000
ENDCHAR
STARTCHAR 00F8
ENCODING 248
SWIDTH 238 0
DWIDTH 20 0
BBX 28 23 2 -2
BITMAP
00001000
00012000
0007C000
000BC000
0031FFF0
00438000
00858000
01098000
02098000
04110000
0C230000
08420000
18820000
19040000
110C0000
32080000
34100000
38200000
38400000
3F800000
40000000
40000000
80000000
ENDCHAR
STARTCHAR 00F9
ENCODING 249
SWIDTH 285 0
DWIDTH 24 0
BBX 26 34 4 0
BITMAP
00100000
00100000
00100000
00180000
00080000
00080000
00040000
00040000
00040000
00020000
00000000
00000000
00000000
00000000
00000000
03E02000
0C107000
30107000
C010E000
0020E000
0061C000
00C38000
01838000
03870000
070E0000
0E1E0000
181C0000
30780040
60980080
41100100
C1100200
82100C00
8C103000
700FC000
ENDCHAR
STARTCHAR 00FA
ENCODING 250
SWIDTH 285 0
DWIDTH 24 0
BBX 26 34 4 1
BITMAP
00000180
00000300
00000C00
00001800
00003000
00006000
00008000
00010000
00040000
00080000
00100000
00000000
00000000
00000000
00000000
03E02000
0C107000
30107000
C010E000
0020E000
0061C000
00C38000
01838000
03870000
070E0000
0E1E0000
181C0000
30780040
60980080
41100100
C1100200
82100C00
8C103000
700FC000
ENDCHAR
STARTCHAR 00FB
ENCODING 251
SWIDTH 285 0
DWIDTH 24 0
BBX 26 34 4 0
BITMAP
00000400
00000C00
00003C00
00004C00
00008C00
00010C00
00020C00
00040C00
00080C00
00100C00
00000800
00000000
00000000
00000000
00000000
03E00800
0C101C00
30103C00
C0103800
00207000
0060E000
00C0C000
0181C000
03038000
06070000
0C060000
180C0000
303C0040
60580080
40900100
C1100200
82100C00
8C183000
700FC000
ENDCHAR
STARTCHAR 00FC
ENCODING 252
SWIDTH 285 0
DWIDTH 24 0
BBX 26 30 4 0
BITMAP
00038E00
00038E00
00079E00
00061800
00000000
00000000
00000000
00000000
00000000
00000000
00000000
03E02000
0C106000
30107000
C010E000
0021C000
0061C000
00C38000
01878000
03870000
070E0000
0E1E0000
183C0000
30580040
60980080
41100100
C1100200
82100C00
8C103000
700FC000
ENDCHAR
STARTCHAR 00FD
ENCODING 253
SWIDTH 238 0
DWIDTH 20 0
BBX 88 77 -55 -43
BITMAP
000000000000000000000C
0000000000000000000018
0000000000000000000030
0000000000000000000060
0000000000000000000180
0000000000000000000300
0000000000000000000400
0000000000000000000800
000000000000000000300E
000000000000000000403F
000000000000000000007F
0000000000000000000081
0000000000000000000301
0000000000000000000200
0000000000000000000400
0000000000000000000800
0000000000000000001000
0000000000000000F02000
000000000000000FF02000
0000000000000030E04000
0000000000000000E04000
0000000000000001C08000
0000000000000001810000
0000000000000003810000
0000000000000007020000
0000000000000007020000
000000000000000E040000
000000000000000E080000
000000000000001C080000
000000000000003C100000
000000000000003C100000
0000000000000078200000
0000000000000078600000
0000000000000079C00000
0000000000000006800000
0000000000000000800000
0000000000000001000000
0000000000000001000000
0000000000000002000000
0000000000000004000000
0000000000000004000000
0000000000000008000000
0000000000000010000000
0000000000000010000000
0000000000000020000000
0000000000000040000000
0000000000000040000000
0000000000000080000000
0000000000000100000000
0000000000000100000000
0000000000000200000000
0000000000000400000000
0000000000000800000000
0000000000000800000000
0000000000001000000000
0000000000002000000000
0000000000004000000000
0000000000008000000000
8000000000010000000000
8000000000020000000000
8000000000040000000000
8000000000040000000000
8000000000080000000000
8000000000100000000000
8000000000200000000000
C000000000C00000000000
C000000001000000000000
6000000002000000000000
6000000004000000000000
7000000018000000000000
3800000020000000000000
1C000000C0000000000000
1F00000300000000000000
0FC0001C00000000000000
03FC00F000000000000000
01FFFF8000000000000000
003FFC0000000000000000
ENDCHAR
STARTCHAR 00FE
ENCODING 254
SWIDTH 250 0
DWIDTH 21 0
BBX 50 62 -23 -28
BITMAP
00000000003000
00000000007000
0000000000F000
0000000000E000
0000000001C000
0000000001C000
00000000038000
00000000038000
00000000070000
00000000060000
000000000E0000
000000001C0000
000000001C0000
00000000380000
00000000300000
00000000700000
00000000600000
00000000E00000
00000001C00000
00000001C00000
0000000381C000
0000000307C000
0000000709C000
00000006338000
0000000E438040
0000001C870180
0000001B070600
0000003C0E0800
000000381C7000
00000070398000
000000E0760000
000000CFF80000
000001C0000000
00000180000000
00000300000000
00000700000000
00000E00000000
00003E00000000
00005C00000000
00009800000000
00013800000000
00027000000000
00047000000000
0008E000000000
0010C000000000
0021C000000000
00438000000000
00830000000000
01070000000000
030E0000000000
060C0000000000
0C180000000000
18300000000000
10300000000000
30600000000000
60C00000000000
41800000000000
C1000000000000
82000000000000
84000000000000
88000000000000
70000000000000
ENDCHAR
STARTCHAR 00FF
ENCODING 255
SWIDTH 238 0
DWIDTH 20 0
BBX 88 73 -55 -44
BITMAP
000000000000000001C700
000000000000000001C700
000000000000000003CF00
0000000000000000030C00
000000000000000000000E
000000000000000000003F
000000000000000000007F
0000000000000000000081
0000000000000000000301
0000000000000000000400
0000000000000000000400
0000000000000000000800
0000000000000000001000
0000000000000000F02000
0000000000000007F02000
0000000000000038E04000
0000000000000000E08000
0000000000000001C08000
0000000000000001810000
0000000000000003810000
0000000000000007020000
0000000000000007040000
000000000000000E040000
000000000000000E080000
000000000000001C080000
000000000000003C100000
000000000000003C100000
0000000000000078200000
0000000000000078400000
0000000000000079C00000
0000000000000006800000
0000000000000000800000
0000000000000001000000
0000000000000001000000
0000000000000002000000
0000000000000004000000
0000000000000004000000
0000000000000008000000
0000000000000010000000
0000000000000010000000
0000000000000020000000
0000000000000040000000
0000000000000040000000
0000000000000080000000
0000000000000100000000
0000000000000100000000
0000000000000200000000
0000000000000400000000
0000000000000800000000
0000000000001000000000
0000000000001000000000
0000000000002000000000
0000000000004000000000
0000000000008000000000
8000000000010000000000
8000000000020000000000
8000000000040000000000
8000000000040000000000
8000000000080000000000
8000000000300000000000
8000000000400000000000
C000000000800000000000
C000000001000000000000
6000000002000000000000
6000000004000000000000
7000000018000000000000
3800000020000000000000
1C000000C0000000000000
1F00000300000000000000
0FC0001C00000000000000
03FC00F000000000000000
01FFFF8000000000000000
003FFC0000000000000000
ENDCHAR
STARTCHAR 0100
ENCODING 256
SWIDTH 726 0
DWIDTH 61 0
BBX 62 58 5 -5
BITMAP
0000000000007FC0
0000000000000000
0000000000000000
0000000000000000
0000000000000004
0000000000000004
0000000000000004
0000000000007F04
000000000007FFEC
00000000003FFFFC
0000000001FFFFFC
0000000007FC00FC
000000001FC0001C
000000007E00003C
00000001F000003C
00000007C0000070
0000000F000000F0
0000003C000001E0
00000078000001C0
000001E000000380
0000038000000780
0000070000000F00
00001E0000001E00
0000380000001E00
0000700000003C00
0000E0000000F800
0003C00000017800
0007000000027000
000E00000004E000
001C00000009E000
003800000011C000
0078000000238000
00F0000000478000
01E0000000870000
01C00000010F0000
03800000021E0000
07800000041E0000
0F000000083C0000
0F000000103C0000
1E00000020780000
3E000000C0780000
3C00000100F00000
7C00000201F00000
7C00000C01E00000
7800001001E00000
F800006003C00000
F800008003C00000
F800030007C00000
F8000C0007800004
FC00700007800008
7E03C0000F800030
7FFE00000F800060
1FE000000F800080
000000000F800300
000000000FC00C00
0000000007F07000
0000000003FFC000
0000000000FC0000
ENDCHAR
STARTCHAR 0101
ENCODING 257
SWIDTH 261 0
DWIDTH 22 0
BBX 25 32 2 -4
BITMAP
0003F800
00000000
00000000
00000000
00000000
00000000
00000000
00003800
00003000
00007000
0001E000
00066000
0018C000
00208000
00C18000
01830000
03030000
060A0000
0C0E0000
1C160000
182C0080
304C0100
70480100
60980200
E1100400
E6100800
F8301000
F0202000
00202000
0020C000
00310000
001E0000
ENDCHAR
STARTCHAR 0102
ENCODING 258
SWIDTH 726 0
DWIDTH 61 0
BBX 62 61 5 -4
BITMAP
0000000000006004
0000000000006008
0000000000006010
0000000000003060
0000000000001F80
0000000000000004
0000000000000004
0000000000000004
0000000000000004
0000000000000004
000000000000FF0C
00000000000FFFCC
00000000003FFFFC
0000000001FFFFFC
0000000007FC00FC
000000001FC0001C
000000007E00003C
00000001F000007C
00000007C0000070
0000000F000000F0
0000003C000001E0
00000078000003C0
000001E000000380
0000038000000780
00000F0000000F00
00001E0000001E00
0000380000003E00
0000700000003C00
0000E0000000F800
0003C0000001F800
000700000002F000
000E00000005E000
001C00000009E000
003800000013C000
0078000000278000
00F0000000478000
01E00000008F0000
01C00000010F0000
03800000021E0000
07800000043E0000
0F000000183C0000
0F000000207C0000
1E00000040780000
3E00000080F80000
3C00000100F00000
7C00000601F00000
7C00000801E00000
7800001003E00000
F800006003C00000
F800018003C00000
F800020007C00000
F8000C0007800004
FC00700007800008
FE0380000F800030
7FFE00000F800060
1FE000000F800080
000000000F800300
000000000FC00C00
0000000007F07000
0000000003FFC000
0000000000FC0000
ENDCHAR
STARTCHAR 0103
ENCODING 259
SWIDTH 261 0
DWIDTH 22 0
BBX 25 33 2 -3
BITMAP
00060100
00060200
00060400
00030800
0001F000
00000000
00000000
00000000
00001C00
00001800
00003000
0001F000
00066000
00086000
0030C000
00608000
00818000
03030000
06070000
060A0000
0C0E0000
18140080
302C0100
70480100
60980200
E1100400
E2100800
F8301000
F0202000
00202000
0020C000
00310000
001E0000
ENDCHAR
STARTCHAR 0104
ENCODING 260
SWIDTH 726 0
DWIDTH 61 0
BBX 62 63 5 -13
BITMAP
0000000000000004
0000000000000004
0000000000000004
0000000000007F04
000000000007FFE4
00000000003FFFFC
0000000001FFFFFC
0000000007FC00FC
000000001FC0001C
000000007E00003C
00000001F000003C
00000007C0000070
0000000F000000F0
0000003C000001E0
00000078000001C0
000001E000000380
0000038000000780
0000070000000F00
00001E0000001E00
0000380000001E00
0000700000003C00
0000E0000000F800
0003C00000017800
0007000000027000
000E00000004E000
001C00000009E000
003800000011C000
0078000000238000
00F0000000478000
01E0000000870000
01C00000010F0000
03800000021E0000
07800000041E0000
0F000000083C0000
0F000000103C0000
1E00000020780000
3E000000C0780000
3C00000100F00000
7C00000201F00000
7C00000C01E00000
7800001001E00000
F800006003C00000
F800008003C00000
F800030007C00000
F8000C0007800004
FC00700007800008
7E03C0000F800030
7FFE00000F800060
1FE000000F800080
000000000F800300
000000000FC00C00
0000000007F07000
0000000003FFC000
0000000000FC0000
0000000000700000
0000000000E00000
0000000003C00000
0000000007800000
0000000007800000
000000000F800000
000000000F800000
0000000007C00000
0000000003F80000
ENDCHAR
STARTCHAR 0105
ENCODING 261
SWIDTH 261 0
DWIDTH 22 0
BBX 25 33 2 -11
BITMAP
00001800
00003000
00007000
0001E000
00066000
0018C000
0020C000
00C18000
01838000
03030000
060B0000
0C0E0000
1C160000
182C0080
304C0100
70480100
60980200
E1100400
E6100800
F8301000
F0202000
00202000
0020C000
00310000
005E0000
03800000
0C000000
10000000
60000000
E0000000
E0000000
F0000000
7E000000
ENDCHAR
STARTCHAR 0106
ENCODING 262
SWIDTH 607 0
DWIDTH 51 0
BBX 55 61 5 0
BITMAP
00000000000002
00000000000006
0000000000000C
00000000000018
00000000000060
000000000000C0
00000000000180
00000000000200
00000000000C00
00000000001018
00000000002070
00000000000070
000000000000E0
000000000000C0
000000001FE1C0
00000001E03980
0000000F000F00
0000003C000700
000000F0000600
000001C0000600
00000780000C00
00001E00000C00
00003C00001C00
00007800001800
0000F000003800
0003E000003800
0007C000007000
000F8000007000
001F000000E000
003E000001E000
007C000001C000
00780000000000
00F80000000000
01F00000000000
03E00000000000
07E00000000000
07C00000000000
0FC00000000000
0F800000000000
1F000000000000
3F000000000000
3E000000000000
3E000000000000
7E000000000000
7C000000000000
7C000000000000
FC000000000000
F8000000000000
F8000000000000
F8000000000000
F8000000000000
F8000000000000
F8000000007C00
F800000003FE00
780000000F8600
7C000000780200
3C000001C00200
1E00000E000200
0F000070000200
03C00780000400
007FF800000000
ENDCHAR
STARTCHAR 0107
ENCODING 263
SWIDTH 214 0
DWIDTH 18 0
BBX 23 34 4 1
BITMAP
000006
00000C
000018
000020
0000C0
000180
000200
000400
001800
002000
004000
000000
000000
000000
000700
001F80
006380
018100
030100
060000
0C0000
0C0000
180000
380000
300080
700100
600200
E00400
E00C00
E01000
E02000
E0C000
7F0000
3C0000
ENDCHAR
STARTCHAR 0108
ENCODING 264
SWIDTH 607 0
DWIDTH 51 0
BBX 51 61 5 1
BITMAP
00000000000800
00000000003800
00000000005800
00000000009800
00000000011800
00000000021800
00000000041800
00000000081800
00000000101800
000000000018E0
000000000000C0
000000000001C0
00000000000180
00000000000300
000000003FC300
00000003C07200
0000000E003E00
00000038001C00
000000E0001C00
00000380001800
00000700001800
00001E00001000
00003800003000
00007000007000
0001E000006000
0003C00000E000
0007800000E000
000F000001C000
001E000001C000
003E0000038000
007C0000030000
00F80000000000
00F00000000000
01F00000000000
03E00000000000
07C00000000000
07C00000000000
0F800000000000
1F800000000000
1F000000000000
3F000000000000
3E000000000000
3E000000000000
7E000000000000
7C000000000000
7C000000000000
FC000000000000
F8000000000000
F8000000000000
F8000000000000
F8000000000000
F8000000000000
F800000001F000
F800000007F800
780000003F8800
7C000000F80400
3C000007C00400
1E00001E000400
0F0000F0000800
03800F00000800
007FF000001800
ENDCHAR
STARTCHAR 0109
ENCODING 265
SWIDTH 214 0
DWIDTH 18 0
BBX 20 34 4 0
BITMAP
000010
000030
000070
0000B0
000330
000430
000830
001030
002030
002030
000020
000000
000000
000000
000700
001F80
006380
018100
030100
060000
0C0000
0C0000
180000
380000
300080
700100
600200
E00400
E00C00
E01000
E02000
E0C000
7F0000
3C0000
ENDCHAR
STARTCHAR 010A
ENCODING 266
SWIDTH 607 0
DWIDTH 51 0
BBX 53 54 5 0
BITMAP
0000000001C000
0000000003C000
0000000003C000
00000000038038
00000000000070
00000000000060
000000000000E0
000000001FE1C0
00000001E03980
0000000F000F00
00000038000F00
000000F0000E00
000001C0000E00
00000700000C00
00001E00000800
00003C00001800
00007800003800
0000F000003000
0003E000007000
0007C00000F000
000F800000E000
001F000001E000
003E000001C000
007C0000038000
00780000000000
00F80000000000
01F00000000000
03E00000000000
07E00000000000
07C00000000000
0F800000000000
0F800000000000
1F000000000000
3F000000000000
3E000000000000
3E000000000000
7E000000000000
7C000000000000
7C000000000000
FC000000000000
F8000000000000
F8000000000000
F8000000000000
F8000000000000
F8000000000000
F8000000007C00
F800000003FE00
780000000F8600
7C000000780200
3C000001C00200
1E00000E000200
0F000070000200
03C00780000400
007FF800000000
ENDCHAR
STARTCHAR 010B
ENCODING 267
SWIDTH 214 0
DWIDTH 18 0
BBX 21 29 4 0
BITMAP
000700
000F00
000F00
000E00
000000
000000
000000
000000
000000
000000
000000
001E00
007F00
019F00
020F00
040C00
080000
080008
100010
300020
300040
600040
600180
E00200
E00400
E00800
F03000
78C000
3F0000
ENDCHAR
STARTCHAR 010C
ENCODING 268
SWIDTH 607 0
DWIDTH 51 0
BBX 52 62 5 1
BITMAP
00000000018000
00000000038200
00000000038400
00000000038800
00000000039000
0000000003A000
0000000003A000
0000000003C000
00000000030000
00000000020000
00000000000070
000000000000E0
000000000000C0
000000000000C0
00000000000180
000000001FE180
00000001E03900
0000000F000E00
00000038000E00
000000F0000400
000001C0000C00
00000780000800
00001E00000800
00003C00001800
00007800003000
0000F000003000
0003E000007000
0007C00000E000
000F800000E000
001F000001E000
003E000001C000
007C0000038000
00780000000000
00F80000000000
01F00000000000
03E00000000000
07E00000000000
07C00000000000
0F800000000000
0F800000000000
1F000000000000
3F000000000000
3E000000000000
3E000000000000
7E000000000000
7C000000000000
7C000000000000
FC000000000000
F8000000000000
F8000000000000
F8000000000000
F8000000000000
F8000000000000
F8000000007C00
F800000003FE00
780000000F8600
7C000000780200
3C000001C00200
1E00000E000200
0F000070000200
03C00780000400
007FF800000000
ENDCHAR
STARTCHAR 010D
ENCODING 269
SWIDTH 214 0
DWIDTH 18 0
BBX 22 33 4 1
BITMAP
000600
000E04
000E08
000E10
000E20
000E40
000E80
000F00
000E00
000C00
000000
000000
000000
000000
000000
003C00
007E00
019E00
020E00
040C00
080000
180008
100010
300020
300040
600040
600180
E00200
E00400
E00800
F03000
78C000
3F0000
ENDCHAR
STARTCHAR 010E
ENCODING 270
SWIDTH 892 0
DWIDTH 75 0
BBX 74 70 4 1
BITMAP
0000000000000C000000
0000000000001C040000
0000000000001C080000
0000000000001C100000
0000000000001C200000
0000000000001C400000
0000000000001C800000
0000000000001F000000
0000000000001C000000
00000000000018000000
00000000000000000000
00000000000000C00000
00000000000001000000
00000000000006000000
0000000000000C000000
0000000000001C000000
00000000000038000000
00000000000070000000
000000000000F0000000
000000000001E0000000
000000000001E0000000
000000000003C0000000
000000000003C0000000
00000000000780000000
0000000007FFFF000000
00000001F80703F00000
0000000F000F003E0000
00000078000E00078000
000001C0001E0003E000
00000700001C0000F000
00000E00003C00007800
00003C00003800003C00
00007000007800003E00
0000E000007000001F00
0001E00000F000000F00
0001C00000E000000F80
0003800001E000000F80
0007800001C000000780
0007000003C0000007C0
000700000380000007C0
000300000780000007C0
000100000700000007C0
000000000F00000007C0
000000000E00000007C0
000000001C00000007C0
000000001C00000007C0
000000003800000007C0
000000007800000007C0
00000000700000000F80
00000000F00000000F80
00000000E00000000F80
0C000001C00000000F00
1E000003C00000001F00
1F000003800000001E00
3F000007000000003E00
3F80000E000000003C00
6FC0000C000000007C00
47E0001C000000007800
43F0003800000000F000
41F8007000000001E000
C0FC006000000003C000
C03E0080000000078000
C01F81000000000F0000
C00FC2000000001E0000
E003FC00000000380000
E001FC00000000F00000
70007F80000003800000
78009FF000001E000000
3E0701FF8001F0000000
0FF80007FFFE00000000
ENDCHAR
STARTCHAR 010F
ENCODING 271
SWIDTH 226 0
DWIDTH 19 0
BBX 18 56 3 0
BITMAP
200000
600000
700000
300000
380000
180000
1C0180
0C03C0
0E01C0
0601C0
0700C0
030080
038180
018100
01C200
00C200
00C400
00F800
006000
007000
003000
003000
003000
001800
001800
000800
000C00
000C00
000C00
000400
000400
000600
000200
000200
000200
000200
000200
000200
000E00
003200
006200
00C200
038200
070200
0E0200
0E0600
1C0400
380400
380C00
700800
701000
703000
E02000
E04000
E18000
7E0000
ENDCHAR
STARTCHAR 0110
ENCODING 272
SWIDTH 892 0
DWIDTH 75 0
BBX 74 59 4 1
BITMAP
00000000000000C00000
00000000000001000000
00000000000006000000
0000000000000C000000
0000000000001C000000
00000000000038000000
00000000000070000000
000000000000F0000000
000000000000E0000000
000000000001E0000000
000000000001C0000000
000000000003C0000000
00000000000380000000
0000000007FFFF000000
00000001F80701F80000
0000000F000F001E0000
00000078000E00078000
000001E0001E0001E000
00000780001C0000F000
00000E00003C00007800
00003C00003800003C00
00007800007800003E00
0000F000007000001F00
0001E00000F000000F00
0001C00000E000000F80
0003800001E000000F80
0003800001C000000780
0007800003C0000007C0
000700000380000007C0
000300000780000007C0
000100000700000007C0
000000000F00000007C0
000000000E00000007C0
000000001E00000007C0
000000001C00000007C0
000000003800000007C0
000000007800000007C0
00000000700000000F80
0C0001FFFFFC00000F80
0C000001E00000000F80
1E000001C00000000F00
1F000003800000001F00
3F800003800000001E00
3F800007000000003E00
6FC0000E000000003C00
67E0001C000000007C00
47F00018000000007800
43F8003000000000F000
C0FC006000000001E000
C07E00C000000003C000
C03F0180000000078000
C01F83000000000F0000
C00FE6000000001E0000
E003F800000000380000
F001FE00000000F00000
70007F80000003800000
78008FF800001E000000
3E0701FFC001F0000000
0FF80007FFFE00000000
ENDCHAR
STARTCHAR 0111
ENCODING 273
SWIDTH 226 0
DWIDTH 19 0
BBX 21 56 3 0
BITMAP
200000
600000
700000
380000
380000
1C0000
1C0000
0E0000
0E0000
070000
070000
030000
038000
018000
01C000
00C000
00C000
00E000
006000
007000
003000
003000
003800
001800
001800
001800
000C00
000C00
07FFF8
0C0400
000400
000600
000200
000200
000200
000200
000200
000200
000E00
001200
006200
00C200
018200
030200
060200
0C0600
1C0400
380400
380800
700800
701000
603000
E02000
E04000
E18000
7E0000
ENDCHAR
STARTCHAR 0112
ENCODING 274
SWIDTH 785 0
DWIDTH 66 0
BBX 69 57 0 -2
BITMAP
0000000000000FE000
000000000000000000
000000000001800000
000000000002000000
00000000000C000000
000000000018000000
000000000030000000
000000000020000000
0000000007FFFFF800
00000000FFFFFFF000
00000007FFFFFFF000
0000003F8080000000
000000780180000000
000001C00100000000
000007000300000000
00000E000200000000
000018000600000000
000030000400000000
000060000800000000
0000C0001800000000
0000C0001000000000
000180003000000000
000180002000000000
000300004000000000
000300004000000000
000700008000000000
000700008000000000
000700010000000000
000700020000000000
000700020000000000
0003001FFFFFF80000
0003001FFFFF800000
0001001FFF80000000
000000100000000000
000000200000000008
000000400000000008
000000800000000008
000001000000000008
000002000000000008
000004000000000008
000008000000000010
000010000000000010
0FFFE0000000000010
300FF8000000000030
6000FE000000000020
60013F800000000060
E0020FE00000000040
E00403F80000000080
F00801FE0000000180
7830007F8000000700
1FC0001FF000000E00
00000007FE00003C00
00000001FFE003F800
000000007FFFFFE000
000000001FFFFF8000
0000000003FFFE0000
00000000003FF00000
ENDCHAR
STARTCHAR 0113
ENCODING 275
SWIDTH 238 0
DWIDTH 20 0
BBX 26 28 4 0
BITMAP
003F8000
00000000
00000000
00000000
00000000
00000000
00000000
00000000
00000000
00070000
007F0000
00C70000
01860000
03060000
060C01C0
0C187E00
1C2F8000
18D00000
38000000
30000000
70000000
70000000
E0000000
E0000000
E0000000
E0000000
70000000
3FE00000
ENDCHAR
STARTCHAR 0114
ENCODING 276
SWIDTH 785 0
DWIDTH 66 0
BBX 69 59 0 -1
BITMAP
000000000000180400
000000000000180800
0000000000001C1000
0000000000000C2000
00000000000087C000
000000000003000000
00000000000C000000
000000000018000000
000000000010000000
000000000030000000
0000000007FFFFF000
00000000FFFFFFE000
00000007FFFFFFE000
0000001FC0C0000000
000000780180000000
000001C00180000000
000003000300000000
00000E000200000000
000018000600000000
000030000400000000
000060000C00000000
0000C0000800000000
0000C0001000000000
000180003000000000
000180002000000000
000300006000000000
000300004000000000
000700008000000000
000700008000000000
000700010000000000
000700020000000000
000700020000380000
0003001FFFFFE00000
0003001FFFFC000000
0001001FFE00000000
000000100000000000
000000100000000008
000000200000000008
000000400000000008
000000800000000008
000002000000000008
000004000000000008
000008000000000010
000010000000000010
0FFFE0000000000010
300FF8000000000030
6000FE000000000020
60013F800000000060
E0020FE00000000040
E00403F80000000080
F00801FE0000000180
7830007F8000000700
1FC0001FF000000E00
00000007FE00003C00
00000001FFE003F800
000000007FFFFFE000
000000001FFFFF8000
0000000003FFFE0000
00000000003FF00000
ENDCHAR
STARTCHAR 0115
ENCODING 277
SWIDTH 238 0
DWIDTH 20 0
BBX 26 29 4 1
BITMAP
00C02000
00C04000
00C08000
00610000
003E0000
00000000
00000000
00000000
00000000
00000000
00070000
007F0000
00C70000
01860000
030C01C0
06087E00
0C3F8000
1C500000
18000000
38000000
30000000
70000000
70000000
E0000000
E0000000
E0000000
E0400000
70800000
3F000000
ENDCHAR
STARTCHAR 0116
ENCODING 278
SWIDTH 785 0
DWIDTH 66 0
BBX 69 59 0 -2
BITMAP
000000000000038000
000000000000078000
000000000000078000
000000000000070000
000000000000800000
000000000003000000
000000000006000000
00000000000C000000
000000000018000000
000000000030000000
0000000007FFFFF800
00000000FFFFFFF800
00000007FFFFFFF000
0000001FC0C0000000
0000007800C0000000
000001E00180000000
000003000100000000
00000E000300000000
000018000200000000
000030000600000000
000060000C00000000
000040000800000000
0000C0001800000000
000180001000000000
000180003000000000
000300002000000000
000300004000000000
00070000C000000000
000700008000000000
000700010000000000
000700010000000000
000700020000000000
0003001FFFFFFF0000
0003001FFFFFE00000
0001001FFFC0000000
000000080000000000
000000100000000008
000000200000000008
000000400000000008
000000800000000008
000003000000000008
000004000000000008
000008000000000010
000010000000000010
0FFFE0000000000010
300FF8000000000030
6000FE000000000020
60013F800000000060
E0020FE00000000040
E00403F80000000080
F00801FE0000000180
7830007F8000000700
1FC0001FF000000E00
00000007FE00003C00
00000001FFE003F800
000000007FFFFFE000
000000001FFFFF8000
0000000003FFFE0000
00000000003FF00000
ENDCHAR
STARTCHAR 0117
ENCODING 279
SWIDTH 238 0
DWIDTH 20 0
BBX 26 29 4 0
BITMAP
00070000
000F0000
000F0000
000E0000
00000000
00000000
00000000
00000000
00000000
00000000
00070000
007F0000
008F0000
010E0000
020E0000
061C00C0
0C383F00
1C2FC000
18D00000
38000000
30000000
70000000
70000000
E0000000
E0000000
E0000000
E0000000
70000000
3FE00000
ENDCHAR
STARTCHAR 0118
ENCODING 280
SWIDTH 785 0
DWIDTH 66 0
BBX 69 64 0 -10
BITMAP
000000000000C00000
000000000001000000
000000000006000000
00000000000C000000
000000000018000000
000000000018000000
0000000003FFFFF800
00000000FFFFFFF800
00000007FFFFFFF000
0000001FC060000000
0000007C00C0000000
000001E00080000000
000003800180000000
000006000100000000
000018000300000000
000030000600000000
000060000400000000
000060000C00000000
0000C0000800000000
000180001000000000
000180001000000000
000300002000000000
000300006000000000
000700004000000000
000700008000000000
000700008000000000
000700010000000000
000700020000000000
0003000FFFFFFC0000
0003001FFFFF800000
0001001FFF80000000
000000080000000000
000000100000000008
000000200000000008
000000400000000008
000000800000000008
000001000000000008
000006000000000008
000008000000000010
000010000000000010
0FFFE0000000000010
300FF8000000000030
6000FE000000000020
60013F800000000060
E0020FE00000000040
E00403F80000000080
F00800FE0000000180
7830007F8000000300
1FC0001FF000000E00
00000007FE00003C00
00000001FFE003F800
000000007FFFFFE000
000000001FFFFF8000
0000000003FFFE0000
00000000003FF00000
000000000000800000
000000000003000000
000000000004000000
00000000000C000000
000000000018000000
000000000038000000
000000000038000000
00000000003C000000
00000000001F800000
ENDCHAR
STARTCHAR 0119
ENCODING 281
SWIDTH 238 0
DWIDTH 20 0
BBX 27 28 3 -9
BITMAP
00038000
003F8000
00C38000
01830000
03070000
070600E0
0E0C3F00
0C17C000
18680000
38000000
30000000
70000000
70000000
E0000000
E0000000
E0000000
E0000000
70000000
1FE00000
02000000
0C000000
10000000
30000000
60000000
E0000000
E0000000
F0000000
3E000000
ENDCHAR
STARTCHAR 011A
ENCODING 282
SWIDTH 785 0
DWIDTH 66 0
BBX 69 64 0 -2
BITMAP
000000000000040000
0000000000000C0400
0000000000001C0C00
0000000000001C1000
0000000000001C2000
0000000000001C4000
0000000000001C8000
0000000000001D0000
0000000000001E0000
0000000000009C0000
000000000003100000
00000000000C000000
000000000018000000
000000000030000000
000000000030000000
0000000007FFFFF800
00000000FFFFFFF000
00000007FFFFFFF000
0000001FC0C0000000
000000780180000000
000001C00100000000
000003000300000000
00000E000200000000
000018000600000000
000030000400000000
000060000800000000
0000C0000800000000
0000C0001000000000
000180003000000000
000180002000000000
000300006000000000
000300004000000000
000700008000000000
000700008000000000
000700010000000000
000700020000000000
0007000200001C0000
0003001FFFFFE00000
0003001FFFFE000000
0001001FFF00000000
000000100000000000
000000200000000008
000000200000000008
000000400000000008
000000800000000008
000002000000000008
000004000000000008
000008000000000010
000010000000000010
0FFFE0000000000010
300FF8000000000030
6000FE000000000020
60013F800000000060
E0020FE00000000040
E00403F80000000080
F00801FE0000000180
7830007F8000000700
1FC0001FF000000E00
00000007FE00003C00
00000001FFE003F800
000000007FFFFFE000
000000001FFFFF8000
0000000003FFFE0000
00000000003FF00000
ENDCHAR
STARTCHAR 011B
ENCODING 283
SWIDTH 238 0
DWIDTH 20 0
BBX 26 34 4 0
BITMAP
00020000
000E0400
000E0400
000E0800
000E3000
000E4000
000E8000
000E8000
000F0000
000C0000
00080000
00000000
00000000
00000000
00000000
00060000
007E0000
008E0000
010C0000
020C0000
061801C0
0C307E00
1C6F8000
18D00000
38000000
30000000
70000000
70000000
E0000000
E0000000
E0000000
E0000000
70000000
3FE00000
ENDCHAR
STARTCHAR 011C
ENCODING 284
SWIDTH 535 0
DWIDTH 45 0
BBX 74 76 -16 -23
BITMAP
00000000000000020000
00000000000000060000
000000000000001E0000
00000000000000260000
00000000000000660000
000000000000005FF000
00000000000001FFFE00
0000000000000F061F00
00000000000072060380
000000000001840600C0
00000000000608060040
00000000001800000040
00000000006000000000
00000000008000000000
00000000030000000000
00000000040000000000
00000000180000000000
00000000300000000000
00000000600000000000
00000000E00000000000
00000001C00000000000
00000003800000000000
00000007000000007800
0000000700000000C800
0000000E000000038800
0000001E000000070800
0000001C0000000F1000
0000003C0000000E2000
0000003C0000001C2000
0000003C0000003C4000
00000078000000788000
00000078000000790000
00000078000000F20000
00000078000001E40000
00000078000001E80000
00000078000003D00000
00000078000003E00000
0000003C000007C00000
0000003C00000F000000
0000001E00000F000000
0000000F00001E000000
000000078000FE000000
00000001F0073C000000
000000003FF838000000
00000000000078000000
00000000000070000000
000000000000E0000000
000000000001E0000000
000000000001C0000000
00000000000380000000
00000000000380000000
00000000000700000000
00000000000600000000
00000000000E00000000
00000000001C00000000
00000000001800000000
00000000003000000000
00000000006000000000
20000000006000000000
4000000000C000000000
40000000018000000000
40000000010000000000
40000000020000000000
C0000000040000000000
C0000000080000000000
C0000000100000000000
E0000000200000000000
E0000000400000000000
F0000000800000000000
78000002000000000000
7C000004000000000000
3E000018000000000000
1F800060000000000000
0FF00780000000000000
03FFFC00000000000000
007FC000000000000000
ENDCHAR
STARTCHAR 011D
ENCODING 285
SWIDTH 238 0
DWIDTH 20 0
BBX 48 66 -19 -33
BITMAP
000000000020
0000000000E0
000000000160
000000000660
000000000860
000000001060
000000002060
00000000C060
000000010060
000000020060
000000000040
000000000000
000000000000
000000000000
000000000000
000000001FFF
00000000E780
000000010700
000000060600
0000000C0C00
000000180C00
000000300800
000000701000
000000602000
000000C04000
000000C08000
000001C10000
000001C70000
000000FE0000
000000080000
000000100000
000000200000
000000400000
000000400000
000000C00000
000000C00000
000001C00000
000001E00000
000001E00000
000000F00000
000000F80000
000000780000
0000007C0000
0000003E0000
0004001F0000
0018000F0000
0060000F8000
00C000078000
010000038000
020000038000
0C0000038000
080000030000
100000030000
300000020000
600000060000
600000040000
6000000C0000
E00000080000
E00000100000
E00000200000
F00000C00000
F00001000000
780006000000
3F0038000000
1FFFC0000000
03FC00000000
ENDCHAR
STARTCHAR 011E
ENCODING 286
SWIDTH 535 0
DWIDTH 45 0
BBX 74 79 -16 -22
BITMAP
00000000000000300800
00000000000000300800
00000000000000301000
00000000000000186000
000000000000000F8000
00000000000000000000
00000000000000000000
00000000000000000000
000000000000001FE000
00000000000001FFFE00
0000000000001F003F00
000000000000E0000380
000000000003000000C0
00000000000C00000040
00000000001000000040
00000000004000000000
00000000018000000000
00000000030000000000
00000000040000000000
00000000180000000000
00000000300000000000
00000000600000000000
00000000E00000000000
00000001C00000000000
00000003800000000000
00000007000000007800
0000000700000000C800
0000000E000000038800
0000001E000000070800
0000001C0000000F1000
0000003C0000001E2000
0000003C0000001C2000
0000003C0000003C4000
00000078000000788000
00000078000000F10000
00000078000000F20000
00000078000001E40000
00000078000001E80000
00000078000003D00000
00000078000007A00000
0000003C000007C00000
0000003C00000F000000
0000001E00000E000000
0000000F00001E000000
000000078000FC000000
00000001F00F3C000000
000000003FF078000000
00000000000070000000
000000000000F0000000
000000000000E0000000
000000000001C0000000
000000000001C0000000
00000000000380000000
00000000000700000000
00000000000700000000
00000000000E00000000
00000000000C00000000
00000000001C00000000
00000000001800000000
00000000003000000000
00000000006000000000
20000000004000000000
4000000000C000000000
40000000018000000000
40000000030000000000
40000000020000000000
C0000000040000000000
C0000000080000000000
C0000000100000000000
E0000000200000000000
E0000000400000000000
F0000001800000000000
78000002000000000000
7C00000C000000000000
3E000010000000000000
1F800060000000000000
0FF00700000000000000
03FFFC00000000000000
007F8000000000000000
ENDCHAR
STARTCHAR 011F
ENCODING 287
SWIDTH 238 0
DWIDTH 20 0
BBX 48 62 -19 -32
BITMAP
000000003008
000000003010
000000003020
000000001840
000000000F80
000000000000
000000000000
000000000000
000000000000
000000000000
000000000000
000000000000
000000003FFF
00000000C700
000000030600
000000060600
0000000C0C00
000000180800
000000301000
000000603000
000000E02000
000000C0C000
000001C10000
000001C70000
000000FA0000
0000000C0000
000000100000
000000200000
000000200000
000000400000
000000C00000
000000C00000
000001C00000
000001C00000
000001E00000
000000F00000
000000F00000
000000780000
0000007C0000
0000003E0000
0004001E0000
0018000F0000
0060000F0000
00C000078000
010000038000
020000038000
0C0000038000
080000030000
100000030000
300000030000
600000060000
600000040000
6000000C0000
E00000080000
E00000100000
E00000200000
F00000C00000
F00001000000
780006000000
3F0038000000
1FFFC0000000
03FC00000000
ENDCHAR
STARTCHAR 0120
ENCODING 288
SWIDTH 535 0
DWIDTH 45 0
BBX 74 79 -16 -23
BITMAP
0000000000000001C000
0000000000000003C000
0000000000000003C000
00000000000000038000
00000000000000000000
00000000000000000000
00000000000000000000
00000000000000000000
000000000000001FE000
00000000000001FFFE00
0000000000001F003F00
000000000000E0000380
000000000003000000C0
00000000000C00000040
00000000001000000040
00000000004000000000
00000000018000000000
00000000030000000000
00000000040000000000
00000000180000000000
00000000300000000000
00000000600000000000
00000000E00000000000
00000001C00000000000
00000003800000000000
00000007000000007800
0000000700000000C800
0000000E000000038800
0000001E000000070800
0000001C0000000F1000
0000003C0000001E2000
0000003C0000001C2000
0000003C0000003C4000
00000078000000788000
00000078000000F10000
00000078000000F20000
00000078000001E40000
00000078000001C80000
00000078000003D00000
00000078000007E00000
0000003C000007800000
0000003C00000F000000
0000001E00000E000000
0000000F00001E000000
000000078000FC000000
00000001F00F3C000000
000000003FF078000000
00000000000070000000
000000000000F0000000
000000000000E0000000
000000000001C0000000
000000000001C0000000
00000000000380000000
00000000000700000000
00000000000700000000
00000000000E00000000
00000000000C00000000
00000000001C00000000
00000000003800000000
00000000003000000000
00000000006000000000
20000000004000000000
4000000000C000000000
40000000018000000000
40000000030000000000
40000000060000000000
C0000000040000000000
C0000000080000000000
C0000000100000000000
E0000000200000000000
E0000000400000000000
F0000001800000000000
78000002000000000000
7C00000C000000000000
3E000010000000000000
1F800060000000000000
0FF00700000000000000
03FFFC00000000000000
007F8000000000000000
ENDCHAR
STARTCHAR 0121
ENCODING 289
SWIDTH 238 0
DWIDTH 20 0
BBX 47 62 -19 -33
BITMAP
000000000300
000000000700
000000000700
000000000600
000000000000
000000000000
000000000000
000000000000
000000000000
000000000000
000000000000
000000000000
000000003FFE
00000001C600
000000030400
000000060400
0000001C0800
000000381000
000000301000
000000602000
000000E04000
000000C08000
000001C10000
000001C70000
000000FA0000
0000000C0000
000000100000
000000200000
000000200000
000000400000
000000C00000
000000C00000
000001C00000
000001C00000
000001E00000
000000F00000
000000F00000
000000780000
0000007C0000
0000003E0000
0004001E0000
0018000F0000
0060000F0000
00C000078000
010000038000
020000038000
0C0000038000
080000030000
100000030000
300000030000
600000060000
600000040000
6000000C0000
E00000080000
E00000100000
E00000200000
F00000C00000
F00001000000
780006000000
3F0038000000
1FFFC0000000
03FC00000000
ENDCHAR
STARTCHAR 0122
ENCODING 290
SWIDTH 535 0
DWIDTH 45 0
BBX 76 78 -17 -23
BITMAP
00000000000000000800
00000000000000003000
00000000000000004000
00000000000000008000
00000000000000018000
00000000000000030000
000000000000001FFC00
00000000000001FFFF80
0000000000000E0703C0
000000000000300700E0
000000000001C0078030
00000000000600030010
00000000000800000010
00000000003000000000
0000000000C000000000
00000000018000000000
00000000030000000000
000000000E0000000000
000000001C0000000000
00000000380000000000
00000000700000000000
00000000E00000000000
00000001E00000000000
00000001C00000001C00
00000003C00000006200
0000000780000000C600
0000000780000001C400
0000000F000000038400
0000000F000000070800
0000001F0000000F1000
0000001E0000001E2000
0000001E0000003C4000
0000001E0000003C8000
0000001E000000790000
0000001E000000F20000
0000001E000000F40000
0000001E000001E80000
0000001F000001F00000
0000000F000003C00000
00000007800007800000
00000007800007800000
00000001E0001F000000
00000000F801EE000000
000000001FFE1E000000
0000000000001C000000
0000000000003C000000
00000000000038000000
00000000000070000000
000000000000F0000000
000000000000E0000000
000000000001C0000000
000000000001C0000000
00000000000380000000
00000000000300000000
00000000000700000000
00000000000E00000000
00000000000C00000000
00000000001800000000
10000000001800000000
20000000003000000000
20000000006000000000
4000000000C000000000
40000000008000000000
40000000010000000000
40000000030000000000
40000000060000000000
C00000000C0000000000
E0000000180000000000
E0000000300000000000
70000000400000000000
70000000800000000000
78000001000000000000
3C000006000000000000
3E000018000000000000
1F800060000000000000
07F00380000000000000
01FFFC00000000000000
003F8000000000000000
ENDCHAR
STARTCHAR 0123
ENCODING 291
SWIDTH 238 0
DWIDTH 20 0
BBX 46 67 -19 -31
BITMAP
000000000180
000000000200
000000000400
000000000400
000000000400
000000000800
000000000800
000000000800
000000000400
000000000400
000000000400
000000000000
000000000000
000000000000
000000000000
000000000000
000000000000
000000007FFC
00000001C800
000000070800
0000000E0800
0000001C1000
000000381000
000000702000
000000604000
000000E04000
000000C08000
000001C30000
000001C50000
000000FE0000
000000080000
000000100000
000000200000
000000200000
000000400000
000000C00000
000000C00000
000001C00000
000001C00000
000001E00000
000000F00000
000000F00000
000000780000
0000007C0000
0000003E0000
0004001E0000
0018000F0000
0060000F0000
00C000078000
010000038000
020000038000
0C0000038000
080000030000
100000030000
300000030000
600000060000
600000040000
6000000C0000
E00000080000
E00000100000
E00000200000
F00000C00000
F00001000000
780006000000
3F0038000000
1FFFC0000000
03FC00000000
ENDCHAR
STARTCHAR 0124
ENCODING 292
SWIDTH 773 0
DWIDTH 65 0
BBX 74 63 2 -2
BITMAP
00000000000000004000
0000000000000000C000
0000000000000001C000
0000000000000006C000
0000000000000008C000
0000000000000010C000
0000000000000020C000
0000000000000040C000
00000000000000C0C000
0000000000000080C000
00000000000000008000
00000000000000000000
000000000000200007C0
00000000000040000FC0
000000001FFFC0001EC0
00000007FFFF800038C0
0000001FFFFF800030C0
0000007C0003800070C0
000000C000030000E0C0
0000010000030001C080
00000200000200018080
00000400000600030180
00000800000400070100
00000800000C00060300
000010000008000C0200
000010000018001C0400
00001000001000180800
00001000003000301000
00001000002000606000
00001000006000608000
00001800004000C30000
0000180000C000CC0000
00001800008001F00000
00000C00010001800000
0000000001000F000000
00000000020076000000
00000000020386000000
00000000043C0C000000
0000000007C00C000000
000000007C001C000000
0000001F980018000000
000003F0100018000000
00007E00200038000000
0007E000600030000000
003E0000400070000000
00F00000800070000000
01C00001000070000000
020000030000E0000000
040000060000E0000000
0800000C0000E0000000
100000180001E0000000
200000300001E0000000
200000600001E0000000
200000C00001E0000000
600001800001E0000000
600007000001E0000000
F0001E000001E0000000
F8007C000001F0000000
FFCFF0000001F0000000
FFFFE0000000F8018000
7FFF80000000FC060000
7FFE000000007FF80000
1FE0000000001FC00000
ENDCHAR
STARTCHAR 0125
ENCODING 293
SWIDTH 226 0
DWIDTH 19 0
BBX 63 69 -7 -9
BITMAP
00000000000100FE
00000000000307FE
00000000000F1C06
0000000000136002
0000000000238002
0000000000430000
0000000000870000
00000000010B0000
0000000002130000
0000000000230000
0000000000420000
0000000000800000
0000000001000000
0000000002000000
0000000004000000
0000000008000000
0000000008000000
0000000010000000
0000000020000000
0000000040000000
00000000C0000000
0000000180000000
0000000100000000
0000000200000000
0000000600000000
0000000C00000000
0000000800000000
0000001800000000
0000003000000000
0000002000000000
0000006000000000
000000C000000000
000001C000000000
0000018000000000
0000030000000000
0000070000000000
0000060000000000
00000E0000000000
00000C0000000000
0000180000000000
0000380000000000
0000300000000000
000071C000000000
000063C000000000
0000EFC000000000
0001D1C000000000
0001A18000000000
0003C38000000000
0003838000000000
0007030000000000
0006070000000000
000E060000000000
001C060000000000
001C0C0000000000
00380C0000000000
0038180000000000
0070180000000000
0060300000000000
00C0600000000000
0080600000000000
0000C00000000000
0001800000000000
0003000000000000
0004000000000000
0008000000000000
0030000000000000
00C0000000000000
0300000000000000
FC00000000000000
ENDCHAR
STARTCHAR 0126
ENCODING 294
SWIDTH 773 0
DWIDTH 65 0
BBX 74 51 2 -2
BITMAP
000000000000200003C0
000000000000400007C0
000000001FFFC0000EC0
00000007FFFFC00018C0
0000001FFFFF800030C0
0000007C0001800070C0
000000C000010000E0C0
0000010000030001C080
00000200000200018080
00000400000600030180
00000800000400070100
00000800000C00060300
000010000008000C0200
00001000001800180400
00001000001000380C00
00001000001000301800
00001000002000E03000
00001000002007606000
00001800004078C08000
00001800008380830000
0000180000BC01840000
00000C0007C003180000
00000000F90003600000
0000001F020007800000
0000003002000E000000
000000000400FC000000
0000000004070C000000
0000000008781C000000
00000000178018000000
00000000F80038000000
0000003F200038000000
00000FF0200030000000
0003FF00400070000000
003FF000800070000000
00FF00008000F0000000
01F000010000F0000000
038000020000E0000000
060000040000E0000000
0C0000040001E0000000
100000080001E0000000
300000100001E0000000
200000200001E0000000
600000400001E0000000
600000800001E0000000
E00003000001F0000000
E00004000001F0000000
F00018000000F8000000
F80060000000FC003000
7E01800000007E01C000
7FFE000000003FFF0000
1FF0000000001FF00000
ENDCHAR
STARTCHAR 0127
ENCODING 295
SWIDTH 226 0
DWIDTH 19 0
BBX 63 69 -7 -9
BITMAP
000000000000007E
00000000000003FE
0000000000000E0E
0000000000001006
0000000000006002
0000000000008002
0000000000010000
0000000000060000
0000000000080000
0000000000100000
0000000000200000
0000000000400000
0000000000800000
0000000001000000
0000000002000000
0000000002000000
0000000004000000
0000000008000000
0000000010000000
0000000020000000
0000000060000000
0000000040000000
0000000080000000
0000000100000000
0000000300000000
0000000200000000
0000000400000000
0000000C00000000
0000001800000000
0000001000000000
0000003000000000
0000006000000000
000000C000000000
00003FFFE0000000
0000018000000000
0000030000000000
0000070000000000
0000060000000000
00000E0000000000
00000C0000000000
0000180000000000
0000380000000000
000030C000000000
000061C000000000
0000E7C000000000
0000C9C000000000
0001D18000000000
0001E38000000000
0003838000000000
0007030000000000
0006030000000000
000E070000000000
000C060000000000
001C0E0000000000
00180C0000000000
00381C0000000000
0070180000000000
0070300000000000
00E0700000000000
0080600000000000
0000C00000000000
0001800000000000
0003000000000000
0004000000000000
0008000000000000
0030000000000000
00C0000000000000
0300000000000000
FC00000000000000
ENDCHAR
STARTCHAR 0128
ENCODING 296
SWIDTH 369 0
DWIDTH 31 0
BBX 59 59 -1 0
BITMAP
0000000000038000
000000000007C020
000000000018F020
0000000000207840
0000000000403F80
0000000000000F00
0000000000000000
0000000000000000
0000000000003C00
0000000000007C00
0000000000019C00
0000000000021C00
0000000000021800
0000000000043000
000000000008C000
00000000001F0000
0000000000700000
0000000003B00000
000000001C600000
00000000E0600000
0000000300C00000
0000000C01C00000
0000003801800000
000000E003800000
000001C007000000
0000038007000000
000007000E000000
00000F001E000000
00000E001C000000
00000E003C000000
00000E0038000000
00000E0078000000
0000060070000000
00000200F0000000
00000000E0000000
00000001E0000000
00000003C0000000
00000003C0000000
0000000780000000
0000000780000000
0000000F00000000
0000000E00000000
0000001E00000000
0000003C00000000
0000003800000000
0000007800000000
0000007000000000
000000E000000000
000001C000000000
0000038000000000
0000030000000000
0000060000000000
00000C0000000000
0000180000000000
4000200000000000
F000800000000000
FF07000000000000
FFF8000000000000
3FE0000000000000
ENDCHAR
STARTCHAR 0129
ENCODING 297
SWIDTH 166 0
DWIDTH 14 0
BBX 19 31 4 0
BITMAP
038000
0FC020
10E020
207040
4038C0
001F80
000000
000000
000000
000000
000000
000000
000000
0FC000
138000
038000
070000
060000
0E0000
0C0000
1C0040
180040
300080
700100
700200
600400
E00800
E03000
E04000
F18000
7E0000
ENDCHAR
STARTCHAR 012A
ENCODING 298
SWIDTH 369 0
DWIDTH 31 0
BBX 56 56 -1 0
BITMAP
000000000000FF
00000000000000
00000000000000
00000000000000
00000000000000
0000000000003C
0000000000007C
0000000000019C
0000000000021C
00000000000218
00000000000430
000000000008C0
00000000001F00
00000000007000
0000000003B000
000000001C6000
00000000E06000
0000000300C000
0000000C01C000
00000038018000
000000E0038000
000001C0070000
00000380070000
000007000E0000
00000F001E0000
00000E001C0000
00000E003C0000
00000E00380000
00000E00780000
00000600700000
00000200F00000
00000000E00000
00000001E00000
00000003C00000
00000003C00000
00000007800000
00000007800000
0000000F000000
0000000E000000
0000001E000000
0000003C000000
00000038000000
00000078000000
00000070000000
000000E0000000
000001C0000000
00000380000000
00000300000000
00000600000000
00000C00000000
00001800000000
40002000000000
F0008000000000
FF070000000000
FFF80000000000
3FE00000000000
ENDCHAR
STARTCHAR 012B
ENCODING 299
SWIDTH 166 0
DWIDTH 14 0
BBX 19 28 4 0
BITMAP
00FE00
000000
000000
000000
000000
000000
000000
000000
000000
000000
0FC000
138000
038000
070000
060000
0E0000
0C0000
1C0020
180040
300080
300100
700200
600400
E00800
E03000
E04000
F18000
7E0000
ENDCHAR
STARTCHAR 012E
ENCODING 302
SWIDTH 369 0
DWIDTH 31 0
BBX 55 59 -2 -8
BITMAP
0000000000001E
0000000000003E
000000000000CE
0000000000010E
0000000000010C
00000000000218
00000000000460
00000000000F80
00000000003800
0000000001D800
000000000E3000
00000000707000
00000001806000
0000000600E000
0000001C01C000
0000007001C000
000000E0038000
000001C0038000
00000380070000
000007800F0000
000007000E0000
000007001E0000
000007001C0000
000007003C0000
00000300380000
00000100780000
00000000F00000
00000000F00000
00000001E00000
00000001E00000
00000003C00000
00000003800000
00000007800000
0000000F000000
0000000E000000
0000001E000000
0000001C000000
00000038000000
00000078000000
00000070000000
000000E0000000
000001C0000000
00000380000000
00000700000000
00000600000000
00001800000000
60003000000000
7800C000000000
FF070000000000
7FFC0000000000
1FE00000000000
00800000000000
01000000000000
03000000000000
06000000000000
0E000000000000
0E000000000000
0F000000000000
03E00000000000
ENDCHAR
STARTCHAR 012F
ENCODING 303
SWIDTH 166 0
DWIDTH 14 0
BBX 23 40 0 -9
BITMAP
0000E0
0000E0
0001E0
000180
000000
000000
000000
000000
000000
000000
000000
000000
000000
00F800
013000
003000
006000
006000
00C000
00C000
018002
018004
030008
030010
060020
060040
0E0080
0E0300
0E0400
0F1800
07E000
080000
100000
300000
600000
600000
E00000
E00000
F00000
3E0000
ENDCHAR
STARTCHAR 0130
ENCODING 304
SWIDTH 369 0
DWIDTH 31 0
BBX 53 59 -1 0
BITMAP
00000000000038
00000000000078
00000000000078
00000000000070
00000000000000
00000000000000
00000000000000
00000000000000
00000000000038
000000000000F8
00000000000378
00000000000478
00000000000470
000000000008E0
00000000000980
00000000001600
00000000007800
0000000003A000
000000001C6000
00000000E0C000
0000000300C000
0000000C01C000
00000038038000
000000E0038000
000001C0070000
000003800F0000
000007000E0000
00000F001E0000
00000E001C0000
00000E003C0000
00000E00380000
00000E00780000
00000600F00000
00000200F00000
00000001E00000
00000001E00000
00000003C00000
00000003800000
00000007800000
00000007000000
0000000F000000
0000000E000000
0000001C000000
0000003C000000
00000038000000
00000070000000
000000F0000000
000000E0000000
000001C0000000
00000380000000
00000300000000
00000600000000
00000C00000000
00001000000000
40002000000000
F0008000000000
FF070000000000
FFF80000000000
3FE00000000000
ENDCHAR
STARTCHAR 0131
ENCODING 305
SWIDTH 166 0
DWIDTH 14 0
BBX 19 18 4 0
BITMAP
0FC000
138000
038000
070000
060000
0E0000
0C0000
1C0020
180040
300080
300100
700200
600400
E00800
E03000
E04000
F18000
7E0000
ENDCHAR
STARTCHAR 0132
ENCODING 306
SWIDTH 630 0
DWIDTH 53 0
BBX 72 64 -2 -17
BITMAP
000000000000380003
000000000000F8000F
00000000000138003C
000000000006380078
0000000000043000F0
0000000000086000F0
0000000000118001E0
00000000003E8003E0
0000000000E08009C0
000000000761C073C0
0000000038C1FFC780
00000001C1C0FF0780
0000000603807C0F00
000000180380000E00
000000600700001E00
000001C00F00001C00
000003800E00003C00
000007001E00003800
00000E001C00007000
00001E003C00007000
00001C00380000E000
00001C00780000E000
00001C00F00001C000
00001C00F000038000
00000C01E000038000
00000401C000070000
00000003C000070000
0000000380000E0000
0000000780000C0000
0000000700001C0000
0000000E0000380000
0000001E0000380000
0000001C0000700000
000000380000600000
000000700000E00000
000000700000C00000
000000E000018001C0
000001C00001803E00
00000380000303C000
000003000006780000
00000400001FC00000
00000800003C000000
200030000018000000
780040000018000000
7F8380000030000000
FFFC00000020000000
3FE000000060000000
000000000040000000
000000000080000000
000000000100000000
000000000100000000
000000000200000000
000000000400000000
000000000800000000
000000001000000000
000200002000000000
000200004000000000
000600008000000000
000700010000000000
000780060000000000
0007E03C0000000000
0003FFF00000000000
0001FFC00000000000
00007E000000000000
ENDCHAR
STARTCHAR 0133
ENCODING 307
SWIDTH 297 0
DWIDTH 25 0
BBX 51 69 -18 -39
BITMAP
00000000380E00
00000000381E00
00000000781E00
00000000600C00
00000000000000
00000000000000
00000000000000
00000000000000
00000000000000
00000000000000
00000000000000
0000000E038000
000000FE7F8000
0000001C038000
0000001C030000
00000038070000
00000038070000
000000700E0000
000000600E0020
000000E00C0040
000000C01C0080
000001C0180100
00000180300200
00000380700400
00000300E00800
00000701601000
00000702C04000
00000704C08000
00000789810000
000001E1820000
00000003040000
00000003180000
00000006200000
00000006400000
0000000C800000
0000000F000000
0000001C000000
00000018000000
00000030000000
00000070000000
000000E0000000
00000360000000
000004E0000000
000008C0000000
000021C0000000
00004180000000
00008380000000
00030300000000
00060700000000
00080600000000
00300E00000000
00601C00000000
00C01C00000000
01803800000000
03003800000000
06007000000000
0C007000000000
1800E000000000
1001C000000000
2001C000000000
60038000000000
40030000000000
C0060000000000
800C0000000000
80180000000000
80300000000000
C0600000000000
61C00000000000
3E000000000000
ENDCHAR
STARTCHAR 0134
ENCODING 308
SWIDTH 285 0
DWIDTH 24 0
BBX 55 77 -13 -13
BITMAP
00000000000040
000000000001C0
000000000002C0
000000000004C0
000000000008C0
000000000010C0
000000000020C0
000000000040C0
000000000080C0
000000000100C0
00000000000080
00000000000002
0000000000000C
00000000000038
00000000000070
000000000000F0
000000040000E0
000000040001E0
000000040007C0
0000000E000BC0
0000000F807380
0000000FFFC780
00000007FE0700
00000003F00700
00000000000E00
00000000000E00
00000000001C00
00000000001C00
00000000003800
00000000003800
00000000007000
00000000006000
0000000000E000
0000000000C000
0000000001C000
00000000018000
00000000038000
00000000030000
00000000070000
00000000060000
000000000E0000
000000000C0000
00000000180000
00000000180000
00000000300000
00000000300000
00000000600000
00000000E00060
00000000C00780
00000001807800
00000001878000
00000003780000
00000007C00000
0000000E000000
0000000E000000
0000000C000000
00000008000000
00000018000000
00000010000000
00000020000000
00000020000000
00000040000000
00000080000000
00000080000000
00000100000000
00000200000000
00000200000000
00000400000000
00000800000000
40001000000000
40002000000000
E000C000000000
F0018000000000
FC0F0000000000
7FFE0000000000
3FF80000000000
0FC00000000000
ENDCHAR
STARTCHAR 0135
ENCODING 309
SWIDTH 166 0
DWIDTH 14 0
BBX 53 72 -29 -38
BITMAP
00000000000200
00000000000E00
00000000001600
00000000002600
00000000004600
00000000008600
00000000008600
00000000010600
00000000020600
00000000000400
00000000000000
00000000000000
00000000000000
00000000000000
0000000001C000
000000000FC000
00000000038000
00000000038000
00000000030000
00000000070000
00000000060000
000000000E0008
000000000C0010
000000000C0020
00000000180040
00000000180080
00000000300100
00000000300200
00000000200400
00000000601000
00000000602000
00000000C04000
00000000C08000
00000001830000
00000001840000
00000003880000
00000003100000
00000007200000
00000007C00000
0000000F000000
0000000E000000
0000001C000000
0000001C000000
00000078000000
000000B8000000
00000370000000
00000470000000
000018F0000000
000020E0000000
000041E0000000
000183C0000000
000203C0000000
000C0780000000
00180700000000
00300F00000000
00601E00000000
00801E00000000
01003C00000000
06003C00000000
04007800000000
0800F000000000
1800F000000000
3001E000000000
6001C000000000
40038000000000
C0070000000000
800F0000000000
800E0000000000
80180000000000
C0700000000000
60E00000000000
1F000000000000
ENDCHAR
STARTCHAR 0136
ENCODING 310
SWIDTH 619 0
DWIDTH 52 0
BBX 90 64 -13 -16
BITMAP
00000000000008000000FE00
00000000004008000007FF80
0000000000401000003E07C0
0000000000C0100000C000C0
0000000000E0300003000040
0000000001F860000C000040
0000000000FFE00030000040
00000000007C4000C0000000
000000000000400100000000
000000000000800600000000
000000000000800800000000
000000000001003000000000
000000000001004000000000
000000000002018000000000
000000000002020000000000
000000000004040000000000
000000000004080000000000
000000000008300000000000
000000000008400000000000
000000000010800000000000
000000000013000000000000
000000000024000000000000
000000000028000000000000
000000000050000000000000
000000000060000000000000
0000000000C0000000000000
0000000000C0000000000000
000000000160000000000000
000000000360000000000000
000000000260000000000000
000000000460000000000000
000000000470000000000000
000000000830000000000000
000000001030000000000000
000000001030000000000000
000000002038000000000000
000000004018000000000000
000000004018000000000000
00000000801C000000000000
00000001000C000000000000
00000002000C000000000000
00000006000E000000000000
000000040006000000000000
000000080007000000000000
000000100003000000000000
800000200003800000000000
800000400001C00000000000
C00001800000E00000000000
E00003000000700000000000
70000E000000380000000000
7800380000001C0006000000
3F00F0000000078078000000
3FFFC000000000FF80000000
0FFF00000E00000000000000
03F800000E00000000000000
000000000E00000000000000
000000000E00000000000000
000000000E00000000000000
000000000C00000000000000
000000001C00000000000000
000000001800000000000000
000000002000000000000000
000000004000000000000000
000000018000000000000000
ENDCHAR
STARTCHAR 0137
ENCODING 311
SWIDTH 261 0
DWIDTH 22 0
BBX 42 66 3 -16
BITMAP
0000000007C0
000000003FC0
000000004000
000000018000
000000060000
000000080000
000000100000
000000200000
000000200000
000000400000
000000800000
000001000000
000002000000
000002000000
000004000000
000008000000
000010000000
000010000000
000020000000
000040000000
000040000000
000080000000
000100000000
000100000000
000200000000
000400000000
000400000000
000800000000
000800000000
001000000000
002000000000
0021C0000000
0047E0000000
0058E0000000
00B0E0000000
00E0C0000000
00C0C0000000
018180000000
010300000000
030C00000000
063000000000
07F800000000
0E1C00000000
0C1C00000000
1C1800000000
183000000000
383000000000
386002000000
306004000000
30E008000000
00C010000000
01C020000000
01C020000000
05C0C0000000
0EE100000000
0E7E00000000
0E0000000000
060000000000
060000000000
0C0000000000
0C0000000000
080000000000
100000000000
200000000000
400000000000
800000000000
ENDCHAR
STARTCHAR 0139
ENCODING 313
SWIDTH 952 0
DWIDTH 80 0
BBX 77 58 4 -7
BITMAP
00000000000000001000
00000000000000006000
0000000000000000C000
00000000000000018000
00000000000001FF0000
0000000000000E0BC000
0000000000003031E000
0000000000004041E000
0000000000008081F000
0000000000030000F000
0000000000060000F000
00000000000C0000F000
0000000000180000F000
0000000000300000F000
0000000000600000F000
0000000000C00000E000
0000000000C00000E000
0000000001800001E000
0000000003000001C000
0000000002000001C000
00000000060000038000
000000000C0000030000
00000000080000070000
00000000100000060000
000000003000000C0000
00000000200000180000
00000000400000100000
00000000C00000200000
00000000800000400000
00000001000001800000
00000001000002000000
0000000200000C000000
00FF8004000030000000
0307FFFE0003C0000000
0C01E017000000000000
10018013C00000000000
20000020E00000000000
40000020700000000000
400000403C0000000000
400000801E0000000000
C00000800F0000000000
C000010007C000000000
C000020003E000000000
E000040001F000000000
F000080000FC00000000
78001000007E00000000
7C006000003F80000000
3FC3C000000FC0000000
0FFF00000007F0000000
03F800000003F8000018
000000000001FE000010
000000000000FF800020
0000000000003FE000C0
0000000000001FFC0380
00000000000007FFFE00
00000000000003FFFC00
00000000000000FFF000
000000000000001FC000
ENDCHAR
STARTCHAR 013A
ENCODING 314
SWIDTH 190 0
DWIDTH 16 0
BBX 45 61 4 1
BITMAP
000000000800
000000001800
000000006000
00000000C000
000000018000
000000020000
0000000C0FF0
000000103078
00000020C018
000000410018
000001820000
000000040000
000000080000
000000100000
000000200000
000000600000
000000C00000
000000800000
000001800000
000003000000
000006000000
00000C000000
00000C000000
000018000000
000038000000
000030000000
000060000000
0000E0000000
0001C0000000
000180000000
000380000000
000700000000
000700000000
000E00000000
001C00000000
001C00000000
003800000000
003800000000
007000000000
00F000000000
00E000000000
01C000000000
01C000000000
038000000000
078000000000
070000000000
0F0000000000
0E0000000000
1E0000000000
1C0004000000
3C0008000000
380010000000
780020000000
780040000000
700080000000
F00100000000
F00200000000
F00C00000000
F01000000000
78E000000000
3F0000000000
ENDCHAR
STARTCHAR 013B
ENCODING 315
SWIDTH 952 0
DWIDTH 80 0
BBX 79 61 4 -15
BITMAP
00000000000001FF0000
000000000000060FC000
0000000000001807E000
0000000000006003E000
0000000000008001F000
0000000000030001F000
0000000000060000F000
00000000000C0000F000
0000000000180000F000
0000000000300000F000
0000000000600000F000
0000000000400000E000
0000000000C00000E000
0000000001800000C000
0000000003000001C000
00000000020000018000
00000000060000018000
000000000C0000030000
00000000080000020000
00000000100000040000
00000000300000080000
00000000200000100000
00000000400000200000
00000000400000400000
00000000800000800000
00000001000003000000
00000001000004000000
00000002000018000000
00FF9FF40000E0000000
0307E03E000100000000
0C018017000000000000
10010013C00000000000
20000020E00000000000
40000020780000000000
400000403C0000000000
400000801E0000000000
C00000800F8000000000
C000010007C000000000
C000020003E000000000
E000040000F800000000
F0000800007C00000000
78001000003F00000000
7C006000001F80000000
3FC3C000000FE0000000
0FFF00000007F0000002
03F800000001FC000004
000000000000FF000008
0000000000007FC00010
0000000000003FF00020
00000000C0000FFE01C0
00000001C00003FFFF80
00000001C00001FFFE00
00000000C000007FFC00
00000000C000000FE000
00000000C00000000000
00000000800000000000
00000001800000000000
00000001000000000000
00000002000000000000
00000004000000000000
00000018000000000000
ENDCHAR
STARTCHAR 013C
ENCODING 316
SWIDTH 190 0
DWIDTH 16 0
BBX 48 70 1 -15
BITMAP
0000000001FE
00000000060F
000000001803
000000002003
000000004000
000000008000
000000010000
000000020000
000000040000
0000000C0000
000000180000
000000100000
000000300000
000000600000
000000C00000
000001800000
000001800000
000003000000
000007000000
000006000000
00000C000000
00001C000000
000038000000
000030000000
000070000000
0000E0000000
0000E0000000
0001C0000000
000380000000
000380000000
000700000000
000700000000
000E00000000
001E00000000
001C00000000
003800000000
003800000000
007000000000
00F000000000
00E000000000
01E000000000
01C000000000
03C000000000
038000800000
078001000000
070002000000
0F0004000000
0F0008000000
0E0010000000
1E0020000000
1E0040000000
1E0180000000
1E0200000000
0F1C00000000
07E000000000
000000000000
000000000000
000000000000
060000000000
060000000000
060000000000
020000000000
020000000000
020000000000
020000000000
040000000000
080000000000
100000000000
200000000000
C00000000000
ENDCHAR
STARTCHAR 013D
ENCODING 317
SWIDTH 952 0
DWIDTH 80 0
BBX 79 54 4 -7
BITMAP
00000000000001FF0000
000000000000060FC060
0000000000001807E0F0
0000000000006003E070
0000000000008001F070
0000000000030001F060
0000000000060000F060
00000000000C0000F060
0000000000180000F0C0
0000000000300000F080
0000000000600000F100
0000000000400000E200
0000000000C00000E400
0000000001800000C800
0000000003000001C000
00000000020000018000
00000000060000018000
000000000C0000030000
00000000080000020000
00000000100000040000
00000000300000080000
00000000200000100000
00000000400000200000
00000000400000400000
00000000800000800000
00000001000003000000
00000001000004000000
00000002000018000000
00FF9FF40000E0000000
0307E03E000100000000
0C018017000000000000
10010013C00000000000
20000020E00000000000
40000020780000000000
400000403C0000000000
400000801E0000000000
C00000800F8000000000
C000010007C000000000
C000020003E000000000
E000040000F800000000
F0000800007C00000000
78001000003F00000000
7C006000001F80000000
3FC3C000000FE0000000
0FFF00000007F0000002
03F800000001FC000004
000000000000FF000008
0000000000007FC00010
0000000000003FF00020
0000000000000FFE01C0
00000000000003FFFF80
00000000000001FFFE00
000000000000007FFC00
000000000000000FE000
ENDCHAR
STARTCHAR 013E
ENCODING 318
SWIDTH 214 0
DWIDTH 18 0
BBX 42 51 4 1
BITMAP
000000007F80
0000000187C0
0000000601C0
000000080080
000000130000
000000238000
000000438000
000000818000
000001018000
000001010000
000002010000
000004020000
00000C040000
000018040000
000018080000
000030300000
000060000000
0000E0000000
0000C0000000
000180000000
000380000000
000300000000
000700000000
000E00000000
000C00000000
001C00000000
003800000000
003800000000
007000000000
00E000000000
00E000000000
01C000000000
01C000000000
038000000000
078000000000
070000000000
0F0000000000
0E0000000000
1E0000000000
1C0004000000
3C0008000000
380010000000
780020000000
780040000000
700080000000
F00100000000
F00200000000
F00C00000000
F01000000000
78E000000000
3F0000000000
ENDCHAR
STARTCHAR 013F
ENCODING 319
SWIDTH 952 0
DWIDTH 80 0
BBX 79 54 4 -8
BITMAP
00000000000003FF0000
0000000000000C0FC000
0000000000003003C000
0000000000004003E000
0000000000018001E000
0000000000030000F000
0000000000060000F000
00000000000C0000F000
0000000000180000F000
0000000000300000E000
0000000000200000E000
0000000000600000E000
0000000000C00000C000
0000000001800001C000
00000000018000018000
00000000030000018000
00000000060000030000
00000000040000020000
000000000C0000040000
00000000180000040000
00000000180000080000
00000000300000100000
00000000200000200000
00000000600000C00000
00000000C00001003000
00000000800006007800
01FE0001800018007000
061F00010000E0006000
08078002000100000000
100387C2000000000000
20039FFC000000000000
4001E07E000000000000
4001801F000000000000
C0010017C00000000000
C0000021E00000000000
80000040F80000000000
C00000407C0000000000
C00000801F0000000000
C00001000F8000000000
E000020007E000000000
E000040003F000000000
F000080001FC00000000
7C003000007E00000000
3F81E000003F80000002
1FFF8000001FC0000004
07FC00000007F0000004
000000000003FC000008
000000000001FF000010
0000000000007FC00020
0000000000003FF000C0
0000000000000FFF0780
00000000000003FFFE00
00000000000000FFFC00
000000000000003FF000
ENDCHAR
STARTCHAR 0140
ENCODING 320
SWIDTH 214 0
DWIDTH 18 0
BBX 41 51 4 0
BITMAP
00000000FF00
000000030780
000000040380
000000180180
000000200000
000000400000
000000800000
000000800000
000001000000
000002000000
000006000000
00000C000000
000008000000
000018000000
000030000000
000060000000
000060000000
0000C0000000
000180000000
000180000000
000300000000
000700000000
000601C00000
000C03C00000
001C03800000
001801000000
003800000000
007000000000
007000000000
00E000000000
01C000000000
01C000000000
038000000000
038000000000
070000000000
070000000000
0E0000000000
0E0000000000
1C0000000000
1C0000000000
380008000000
380010000000
700020000000
700040000000
F00080000000
E00100000000
E00200000000
E00C00000000
E01000000000
F06000000000
7F8000000000
ENDCHAR
STARTCHAR 0141
ENCODING 321
SWIDTH 952 0
DWIDTH 80 0
BBX 79 54 4 -7
BITMAP
00000000000000FF0000
000000000000070F8000
0000000000001807C000
0000000000006003E000
0000000000008001E000
0000000000010001F000
0000000000020000F000
0000000000040000F000
0000000000080000F000
0000000000100000F000
0000000000300000F000
0000000000600000E000
0000000000C00000E000
0000000000800001E000
0000000001800001C000
0000000003000001C000
00000000060000038000
00000000060000030000
000000000C0000070000
00000000081C00060000
0000000019F0000C0000
000000003F8000180000
00000000380000300000
00000001E00000600000
00000007400000C00000
007C001C800003800000
01FF001100000F000000
0607800200007C000000
080380040003F0000000
1001FFFE0003C0000000
2001E017000000000000
20018013C00000000000
40000020E00000000000
40000020780000000000
C00000403C0000000000
C00000801E0000000000
C00000800F8000000000
C000010007C000000000
E000020003E000000000
E000040000F800000000
70000800007C00000000
78001000003F00000000
3E006000001F80000000
1FC3C000000FE0000000
0FFF00000007F0000002
03F800000001FC000004
000000000000FF000008
0000000000007FC00010
0000000000003FF00020
0000000000000FFE01C0
00000000000003FFFF80
00000000000001FFFE00
000000000000007FFC00
000000000000000FE000
ENDCHAR
STARTCHAR 0142
ENCODING 322
SWIDTH 202 0
DWIDTH 17 0
BBX 39 56 4 0
BITMAP
000000000E
000000003E
00000000DE
000000011E
000000061C
0000000C1C
0000001818
0000003038
0000007038
000000E030
000001C060
000001C060
00000380C0
00000700C0
0000070180
00000E0100
00001C0300
00001C0600
0000380400
0000380800
0000701000
0000E03000
0000E02000
0001C04000
0001C08000
0003810000
0003020000
0007040000
000E080000
000E300000
001C400000
0018800000
0039000000
0076000000
0078000000
00E0000000
00C0000000
01C1C00000
03BC000000
03E0000000
0F00000000
FE00000000
CE00000000
1C00000000
1C00080000
3800100000
3800200000
3000400000
7000800000
7001000000
E002000000
E004000000
E018000000
E020000000
F1C0000000
3E00000000
ENDCHAR
STARTCHAR 0143
ENCODING 323
SWIDTH 797 0
DWIDTH 67 0
BBX 76 70 3 -9
BITMAP
00000000000000002000
00000000000000006000
00000000000000018000
00000000000000030000
00000000000000060000
00000000000000080000
00000000000000100000
00000000000000600000
00000000000000800000
00000000000001000000
00000000000002000000
00000000000000000000
00000000000000000000
00000000000000000000
00000000000000001F80
0000000000000000FFC0
0000000000000003FFE0
000000000000000E07F0
000000000000003001F0
00000000000000C001F0
000000000000010000F0
000000000000060000F0
000000000F00080000F0
000000007F00300000E0
00000003FF00400000E0
0000000E1F00800001C0
000000381E03000001C0
000000E01E0400000380
000001801C0800000300
000006001C1000000600
00001800382000000C00
00003000304000000C00
00004000708000001800
00018000610000003000
00030000620000006000
00060000C4000000C000
000C0000880000018000
00380001900000030000
00700003200000060000
00E000034000000C0000
01C00006800000180000
01800005000000300000
0300000E000000600000
0700001C000000C00000
0E000018000001800000
0C000038000003000000
1C000070000007000000
3800006000000E000000
380000C000001C000000
380001C0000038000000
70000180000070000000
700003000000E0000000
700007000001C0000000
E0000E000003C0000000
E0000E00000780000000
E0001C00000700000000
E0003C00000F00000000
E0003800001E00000000
E0007800001E00000000
60007000003C00000000
60002000003C00000000
60000000007C00000000
30000000007C00000000
30000000007C00000000
18000000007C00006000
08000000007E00018000
04000000003E000E0000
02000000003F80700000
01800000001FFF800000
007000000007FC000000
ENDCHAR
STARTCHAR 0144
ENCODING 324
SWIDTH 261 0
DWIDTH 22 0
BBX 31 34 0 -2
BITMAP
00000006
0000000C
00000018
00000060
000000C0
00000180
00000200
00000400
00001800
00002000
00004000
00000000
00000000
00000000
00000000
00307000
03F1F000
00627000
00EC6000
00D0E000
01A0C000
01C1C000
03818000
03030010
07070020
060E0040
0E0E0080
0C1C0100
1C380200
38380C00
38781000
70786000
707F8000
E03C0000
ENDCHAR
STARTCHAR 0145
ENCODING 325
SWIDTH 797 0
DWIDTH 67 0
BBX 76 62 3 -16
BITMAP
00000000000000001F80
0000000000000000FFC0
0000000000000003FFE0
000000000000000E07F0
000000000000003001F0
00000000000000C001F0
000000000000010000F0
000000000000060000F0
000000000F00080000F0
000000007F00300000E0
00000003FF00400000E0
0000000E1F00800001C0
000000381E03000001C0
000000E01E0400000380
000001801C0800000300
000006001C1000000600
00001800382000000C00
00003000304000000C00
00004000708000001800
00018000610000003000
00030000620000006000
00060000C4000000C000
000C0000880000018000
00380001900000030000
00700003200000060000
00E000034000000C0000
01C00006800000180000
01800005000000300000
0300000E000000600000
0700001C000000C00000
0E000018000001800000
0C000038000003000000
1C000070000007000000
3800006000000E000000
380000C000001C000000
380001C0000038000000
70000180000070000000
700003000000E0000000
700007000001C0000000
E0000E000003C0000000
E0000E00000780000000
E0001C00000700000000
E0003C00000F00000000
E0003800001E00000000
E0007800001E00000000
60007000003C00000000
60002000003C00000000
60000000007C00000000
30000000007C00000000
30000000007C00000000
18000006007C00006000
0800000F007E00018000
0400000F003E000E0000
02000007003F80700000
01800006001FFF800000
007000060007FC000000
00000006000000000000
0000000C000000000000
00000008000000000000
00000010000000000000
00000020000000000000
000000C0000000000000
ENDCHAR
STARTCHAR 0146
ENCODING 326
SWIDTH 261 0
DWIDTH 22 0
BBX 26 31 3 -15
BITMAP
00C38000
03C78000
01CB8000
01B30000
03C70000
03860000
070E0000
060C0000
0E1C0040
0C180080
0C380100
18700200
18700400
30E00800
30E03000
71E04000
61E18000
E1FE0000
C0F00000
04000000
0E000000
0E000000
0E000000
0E000000
0E000000
0C000000
08000000
18000000
30000000
60000000
80000000
ENDCHAR
STARTCHAR 0147
ENCODING 327
SWIDTH 797 0
DWIDTH 67 0
BBX 76 70 3 -9
BITMAP
00000000000000200000
00000000000000600000
00000000000000E02000
00000000000000E04000
00000000000000E08000
00000000000000E30000
00000000000000E40000
00000000000000E80000
00000000000000F00000
00000000000000E00000
00000000000000C00000
00000000000000000000
00000000000000000000
00000000000000000000
00000000000000001F80
0000000000000000FFC0
0000000000000003FFE0
000000000000000E07F0
000000000000003001F0
00000000000000C001F0
000000000000010000F0
000000000000060000F0
000000000F00080000F0
000000007F00300000E0
00000003FF00400000E0
0000000E1F00800001C0
000000381E03000001C0
000000E01E0400000380
000001801C0800000300
000006001C1000000600
00001800382000000C00
00003000304000000C00
00004000708000001800
00018000610000003000
00030000620000006000
00060000C4000000C000
000C0000880000018000
00380001900000030000
00700003200000060000
00E000034000000C0000
01C00006800000180000
01800005000000300000
0300000E000000600000
0700001C000000C00000
0E000018000001800000
0C000038000003000000
1C000070000007000000
3800006000000E000000
380000C000001C000000
380001C0000038000000
70000180000070000000
700003000000E0000000
700007000001C0000000
E0000E000003C0000000
E0000E00000780000000
E0001C00000700000000
E0003C00000F00000000
E0003800001E00000000
E0007800001E00000000
60007000003C00000000
60002000003C00000000
60000000007C00000000
30000000007C00000000
30000000007C00000000
18000000007C00006000
08000000007E00018000
04000000003E000E0000
02000000003F80700000
01800000001FFF800000
007000000007FC000000
ENDCHAR
STARTCHAR 0148
ENCODING 328
SWIDTH 261 0
DWIDTH 22 0
BBX 28 33 0 1
BITMAP
00003000
00007020
00007040
00007080
00007100
00007200
00007400
00007800
00007000
00006000
00000000
00000000
00000000
00000000
00000000
00307000
03F1F000
00627000
00EC6000
00D0E000
01A0C000
01C1C000
03838000
03038000
06070010
0E0E0020
0C1E0040
1C1C0080
183C0300
38780400
70781800
70782000
E039C000
ENDCHAR
STARTCHAR 0149
ENCODING 329
SWIDTH 261 0
DWIDTH 22 0
BBX 28 39 1 -3
BITMAP
00080000
00180000
003C0000
001C0000
001C0000
001C0000
00180000
00180000
00100000
00100000
00200000
00400000
00800000
01000000
02000000
00000000
00000000
00000000
00F00000
03F00000
00E0E000
00E3E000
01CCE000
0191C000
03A1C000
03418000
07838000
07030000
0E070010
0C060020
1C0E0040
180C0080
381C0100
70380600
70380800
E0383000
8038C000
003F0000
00100000
ENDCHAR
STARTCHAR 014C
ENCODING 332
SWIDTH 595 0
DWIDTH 50 0
BBX 53 53 5 0
BITMAP
0000000000FE00
00000000000000
00000000000000
00000000000000
00000000000000
00000000000000
0000000001FE00
000000000E0780
000000007001E0
0000000FC000E0
00000073800070
00000187000070
0000060E000038
0000180E000038
0000301C000038
0000C01C000038
00018038000038
00030038000038
00060038000038
000C0038000030
00180018000030
00380000000070
00700000000060
00E00000000060
01E000000000C0
03C000000000C0
03800000000080
07800000000180
0F000000000100
0F000000000300
1E000000000200
1E000000000400
3E000000000C00
3C000000000800
7C000000001000
7C000000002000
78000000004000
78000000004000
F8000000008000
F8000000010000
F8000000020000
F8000000040000
F8000000080000
F8000000300000
FC000000400000
FC000000800000
7C000003000000
7E000004000000
3F000018000000
1F800060000000
0FE00380000000
07FFFC00000000
00FF8000000000
ENDCHAR
STARTCHAR 014D
ENCODING 333
SWIDTH 238 0
DWIDTH 20 0
BBX 28 28 3 0
BITMAP
0007F800
00000000
00000000
00000000
00000000
00000000
00000000
00000000
00000000
000F0010
00798020
01B080C0
02208100
04208600
04209800
08216000
183F8000
103D0000
30020000
70040000
60040000
E0080000
E0100000
E0200000
E0600000
E0800000
F3000000
7C000000
ENDCHAR
STARTCHAR 014E
ENCODING 334
SWIDTH 595 0
DWIDTH 50 0
BBX 53 54 5 1
BITMAP
00000000006008
00000000006010
00000000007020
00000000003840
00000000000F80
00000000000000
00000000000000
0000000001FE00
000000000E0780
000000007001E0
0000000FC000E0
00000033800070
000001C7000070
0000060E000038
0000080E000038
0000301C000038
0000401C000038
00018038000038
00030038000038
00060038000038
000C0038000030
00180018000030
00380000000070
00700000000060
00E00000000060
01E000000000C0
01C000000000C0
03800000000080
07800000000180
0F000000000100
0F000000000300
1E000000000200
1E000000000400
3E000000000C00
3C000000000800
7C000000001000
7C000000002000
78000000004000
78000000004000
F8000000008000
F8000000010000
F8000000020000
F8000000040000
F8000000080000
F8000000300000
FC000000400000
FC000000800000
7C000003000000
7E000004000000
3F000018000000
1F800060000000
0FE00380000000
07FFFC00000000
00FF8000000000
ENDCHAR
STARTCHAR 014F
ENCODING 335
SWIDTH 238 0
DWIDTH 20 0
BBX 28 29 3 1
BITMAP
003C0000
003C0400
003C0800
001E3000
000FC000
00000000
00000000
00000000
00000000
00000000
000F0010
00798020
01B080C0
02208100
04208600
04209800
08216000
183F8000
103D0000
30020000
70040000
60040000
E0080000
E0100000
E0100000
E0200000
E0800000
F3000000
7C000000
ENDCHAR
STARTCHAR 0150
ENCODING 336
SWIDTH 595 0
DWIDTH 50 0
BBX 53 59 5 0
BITMAP
00000000000188
00000000000198
00000000000330
00000000000620
00000000000C60
000000000018C0
00000000001080
00000000002100
00000000004000
00000000000000
00000000000000
00000000000000
0000000001FE00
000000000E0780
000000007001E0
0000000FC000E0
00000073800070
00000187000070
0000060E000038
0000180E000038
0000301C000038
0000C01C000038
00018038000038
00030038000038
00060038000038
000C0038000030
00180018000030
00380000000070
00700000000060
00E00000000060
01E000000000C0
03C000000000C0
03800000000080
07800000000180
0F000000000100
0F000000000300
1E000000000200
1E000000000400
3E000000000C00
3C000000000800
7C000000001000
7C000000002000
78000000004000
78000000004000
F8000000008000
F8000000010000
F8000000020000
F8000000040000
F8000000080000
F8000000300000
FC000000400000
FC000000800000
7C000003000000
7E000004000000
3F000018000000
1F800060000000
0FE00380000000
07FFFC00000000
00FF8000000000
ENDCHAR
STARTCHAR 0151
ENCODING 337
SWIDTH 238 0
DWIDTH 20 0
BBX 26 32 3 1
BITMAP
00008400
00018C00
00010800
00021800
00021000
00042000
00084000
00004000
00000000
00000000
00000000
00000000
00000000
000F0040
00798080
01B08300
02208400
04208800
0420B000
08214000
183F8000
103D0000
30020000
70040000
60040000
E0080000
E0100000
E0200000
E0600000
E0800000
F3000000
7C000000
ENDCHAR
STARTCHAR 0152
ENCODING 338
SWIDTH 761 0
DWIDTH 64 0
BBX 65 45 5 0
BITMAP
000000003E01FE0000
00000003C006078000
0000000C001803C000
00000030006001C000
0000008000C000E000
0000020001C000E000
00000C00018000E000
00001000038000E000
00006000030000E000
0000C000070000C000
00018000070000C000
00030000070001C000
000E00000700018000
001C00000700018000
003800000300010000
007000000380030000
006000000180020000
00E000000060060000
01C0000003FF040000
038000001C00080000
078000006000180000
070000018000100000
0F0000060000200000
0E00000C0000600000
1E0000180000C00000
3E0000300000800000
3C0000700001000000
3C0000E00002000080
7C0000E00004000080
780001E00008000080
780001C00010000100
F80003C00020000200
F80003C00040000200
F80003C00180000400
F80003C00200000800
F80003C00400001000
F80003E01800002000
FC0003E0200000C000
7C0001F0C000010000
7E0001F30000060000
3F0000FC0000180000
3F8000FE0000600000
1FE003BFC003800000
07FFFC1FFFFC000000
01FFC003FFC0000000
ENDCHAR
ENDFONT
